G04*
G04 #@! TF.GenerationSoftware,Altium Limited,Altium Designer,23.10.1 (27)*
G04*
G04 Layer_Physical_Order=2*
G04 Layer_Color=16711680*
%FSLAX44Y44*%
%MOMM*%
G71*
G04*
G04 #@! TF.SameCoordinates,312DE8FD-0999-4980-B1F4-3DF31CF03A3F*
G04*
G04*
G04 #@! TF.FilePolarity,Positive*
G04*
G01*
G75*
%ADD21R,1.3500X1.1000*%
%ADD62C,0.6350*%
%ADD63C,0.3810*%
%ADD67R,2.1000X2.1000*%
%ADD68C,2.1000*%
%ADD69R,1.5500X1.5500*%
%ADD70C,1.5500*%
%ADD71C,1.6000*%
G04:AMPARAMS|DCode=72|XSize=1.6mm|YSize=1.6mm|CornerRadius=0.4mm|HoleSize=0mm|Usage=FLASHONLY|Rotation=180.000|XOffset=0mm|YOffset=0mm|HoleType=Round|Shape=RoundedRectangle|*
%AMROUNDEDRECTD72*
21,1,1.6000,0.8000,0,0,180.0*
21,1,0.8000,1.6000,0,0,180.0*
1,1,0.8000,-0.4000,0.4000*
1,1,0.8000,0.4000,0.4000*
1,1,0.8000,0.4000,-0.4000*
1,1,0.8000,-0.4000,-0.4000*
%
%ADD72ROUNDEDRECTD72*%
G04:AMPARAMS|DCode=73|XSize=1.6mm|YSize=1.6mm|CornerRadius=0.4mm|HoleSize=0mm|Usage=FLASHONLY|Rotation=90.000|XOffset=0mm|YOffset=0mm|HoleType=Round|Shape=RoundedRectangle|*
%AMROUNDEDRECTD73*
21,1,1.6000,0.8000,0,0,90.0*
21,1,0.8000,1.6000,0,0,90.0*
1,1,0.8000,0.4000,0.4000*
1,1,0.8000,0.4000,-0.4000*
1,1,0.8000,-0.4000,-0.4000*
1,1,0.8000,-0.4000,0.4000*
%
%ADD73ROUNDEDRECTD73*%
%ADD74C,1.2500*%
%ADD75R,1.2500X1.2500*%
%ADD76C,0.3000*%
%ADD77C,5.0000*%
%ADD78C,0.5000*%
G36*
X1246049Y1145286D02*
X1245880Y989939D01*
X1245882Y989928D01*
X1245880Y989917D01*
X1246030Y989184D01*
X1246174Y988452D01*
X1246181Y988443D01*
X1246183Y988431D01*
X1246602Y987811D01*
X1247015Y987191D01*
X1247025Y987185D01*
X1247031Y987175D01*
X1247655Y986762D01*
X1248275Y986348D01*
X1248286Y986345D01*
X1248295Y986339D01*
X1249028Y986197D01*
X1249761Y986050D01*
X1249772Y986052D01*
X1249783Y986050D01*
X1360097Y986570D01*
X1360830Y986719D01*
X1361313Y986816D01*
X1361645D01*
Y986915D01*
X1362204Y987292D01*
X1362829Y987710D01*
X1362833Y987716D01*
X1362839Y987720D01*
X1363252Y988345D01*
X1363669Y988972D01*
X1363671Y988979D01*
X1363675Y988985D01*
X1363817Y989718D01*
X1363963Y990459D01*
X1363796Y1144994D01*
X1364693Y1145893D01*
X1437358D01*
X1437663Y1144623D01*
X1435566Y1143554D01*
X1432059Y1141006D01*
X1428994Y1137941D01*
X1426446Y1134434D01*
X1424478Y1130572D01*
X1423138Y1126449D01*
X1422460Y1122168D01*
Y1117832D01*
X1423138Y1113551D01*
X1424478Y1109428D01*
X1426446Y1105566D01*
X1428994Y1102059D01*
X1432059Y1098994D01*
X1435566Y1096446D01*
X1439428Y1094478D01*
X1443551Y1093138D01*
X1447832Y1092460D01*
X1452168D01*
X1456449Y1093138D01*
X1460572Y1094478D01*
X1464434Y1096446D01*
X1467941Y1098994D01*
X1471006Y1102059D01*
X1473554Y1105566D01*
X1475522Y1109428D01*
X1476862Y1113551D01*
X1477540Y1117832D01*
Y1122168D01*
X1476862Y1126449D01*
X1475522Y1130572D01*
X1473554Y1134434D01*
X1471006Y1137941D01*
X1467941Y1141006D01*
X1464434Y1143554D01*
X1462337Y1144623D01*
X1462642Y1145893D01*
X1507358D01*
X1507663Y1144623D01*
X1505566Y1143554D01*
X1502059Y1141006D01*
X1498994Y1137941D01*
X1496446Y1134434D01*
X1494478Y1130572D01*
X1493138Y1126449D01*
X1492460Y1122168D01*
Y1117832D01*
X1493138Y1113551D01*
X1494478Y1109428D01*
X1496446Y1105566D01*
X1498994Y1102059D01*
X1502059Y1098994D01*
X1505566Y1096446D01*
X1509428Y1094478D01*
X1513551Y1093138D01*
X1517832Y1092460D01*
X1522168D01*
X1526449Y1093138D01*
X1530572Y1094478D01*
X1534434Y1096446D01*
X1537941Y1098994D01*
X1541006Y1102059D01*
X1543554Y1105566D01*
X1544889Y1108184D01*
X1546158Y1107879D01*
X1546008Y542416D01*
X1544738Y542112D01*
X1543554Y544434D01*
X1541006Y547941D01*
X1537941Y551006D01*
X1534434Y553554D01*
X1530572Y555522D01*
X1526449Y556862D01*
X1522168Y557540D01*
X1517832D01*
X1513551Y556862D01*
X1509428Y555522D01*
X1505566Y553554D01*
X1502059Y551006D01*
X1498994Y547941D01*
X1496446Y544434D01*
X1494478Y540572D01*
X1493138Y536449D01*
X1492460Y532168D01*
Y527832D01*
X1493138Y523551D01*
X1494478Y519428D01*
X1496446Y515566D01*
X1498994Y512059D01*
X1502059Y508994D01*
X1505566Y506446D01*
X1508038Y505186D01*
X1507733Y503916D01*
X642884Y504231D01*
X642580Y505501D01*
X644434Y506446D01*
X647941Y508994D01*
X651006Y512059D01*
X653554Y515566D01*
X655522Y519428D01*
X656862Y523551D01*
X657540Y527832D01*
Y532168D01*
X656862Y536449D01*
X655522Y540572D01*
X653554Y544434D01*
X651006Y547941D01*
X647941Y551006D01*
X644434Y553554D01*
X640572Y555522D01*
X636449Y556862D01*
X632168Y557540D01*
X627833D01*
X623551Y556862D01*
X619428Y555522D01*
X615566Y553554D01*
X612059Y551006D01*
X608994Y547941D01*
X606446Y544434D01*
X604996Y541590D01*
X603726Y541895D01*
X603877Y1107809D01*
X605148Y1108114D01*
X606446Y1105566D01*
X608994Y1102059D01*
X612059Y1098994D01*
X615566Y1096446D01*
X619428Y1094478D01*
X623551Y1093138D01*
X627833Y1092460D01*
X632168D01*
X636449Y1093138D01*
X640572Y1094478D01*
X644434Y1096446D01*
X647941Y1098994D01*
X651006Y1102059D01*
X653554Y1105566D01*
X655522Y1109428D01*
X656862Y1113551D01*
X657540Y1117832D01*
Y1122168D01*
X656862Y1126449D01*
X655522Y1130572D01*
X653554Y1134434D01*
X651006Y1137941D01*
X647941Y1141006D01*
X644434Y1143554D01*
X641765Y1144914D01*
X642070Y1146184D01*
X687930D01*
X688235Y1144914D01*
X685566Y1143554D01*
X682059Y1141006D01*
X678994Y1137941D01*
X676446Y1134434D01*
X674478Y1130572D01*
X673138Y1126449D01*
X672460Y1122168D01*
Y1117832D01*
X673138Y1113551D01*
X674478Y1109428D01*
X676446Y1105566D01*
X678994Y1102059D01*
X682059Y1098994D01*
X685566Y1096446D01*
X689428Y1094478D01*
X693551Y1093138D01*
X697832Y1092460D01*
X702168D01*
X706449Y1093138D01*
X710572Y1094478D01*
X714039Y1096244D01*
X714795Y1095204D01*
X668795Y1049205D01*
X667813Y1047734D01*
X667468Y1046000D01*
Y913000D01*
X667813Y911266D01*
X668795Y909795D01*
X694015Y884576D01*
Y883997D01*
X694782Y882145D01*
X696200Y880727D01*
X698053Y879960D01*
X700058D01*
X700412Y880107D01*
X701468Y879401D01*
Y876877D01*
X642795Y818205D01*
X641813Y816734D01*
X641468Y815000D01*
Y712434D01*
X640198Y711908D01*
X639472Y712634D01*
X637068Y714022D01*
X634388Y714740D01*
X634270D01*
Y704200D01*
Y693660D01*
X634388D01*
X637068Y694378D01*
X639472Y695766D01*
X640198Y696492D01*
X641468Y695966D01*
Y687034D01*
X640198Y686508D01*
X639472Y687234D01*
X637068Y688622D01*
X634388Y689340D01*
X631612D01*
X628932Y688622D01*
X626528Y687234D01*
X624566Y685272D01*
X623178Y682868D01*
X622460Y680188D01*
Y677412D01*
X623178Y674732D01*
X624566Y672328D01*
X626528Y670366D01*
X628932Y668978D01*
X631612Y668260D01*
X634388D01*
X637068Y668978D01*
X639472Y670366D01*
X640198Y671092D01*
X641468Y670566D01*
Y661634D01*
X640198Y661108D01*
X639472Y661834D01*
X637068Y663222D01*
X634388Y663940D01*
X631612D01*
X628932Y663222D01*
X626528Y661834D01*
X624566Y659872D01*
X623178Y657468D01*
X622460Y654788D01*
Y652012D01*
X623178Y649332D01*
X624566Y646928D01*
X626528Y644966D01*
X628932Y643578D01*
X631612Y642860D01*
X634388D01*
X637068Y643578D01*
X639472Y644966D01*
X640198Y645692D01*
X641468Y645166D01*
Y636234D01*
X640198Y635708D01*
X639472Y636434D01*
X637068Y637822D01*
X634388Y638540D01*
X631612D01*
X628932Y637822D01*
X626528Y636434D01*
X624566Y634472D01*
X623178Y632068D01*
X622460Y629388D01*
Y626612D01*
X623178Y623932D01*
X624566Y621528D01*
X626528Y619566D01*
X628932Y618178D01*
X631612Y617460D01*
X634388D01*
X637068Y618178D01*
X639472Y619566D01*
X640198Y620292D01*
X641468Y619766D01*
Y617477D01*
X636551Y612560D01*
X634388Y613140D01*
X631612D01*
X628932Y612422D01*
X626528Y611034D01*
X624566Y609072D01*
X623178Y606668D01*
X622460Y603988D01*
Y601212D01*
X623178Y598532D01*
X624566Y596128D01*
X626528Y594166D01*
X628932Y592778D01*
X631612Y592060D01*
X634388D01*
X637068Y592778D01*
X639472Y594166D01*
X641434Y596128D01*
X642822Y598532D01*
X643540Y601212D01*
Y603988D01*
X642960Y606151D01*
X647295Y610485D01*
X648468Y609999D01*
Y599077D01*
X637165Y587775D01*
X637000Y587796D01*
X629000D01*
X627293Y587572D01*
X625702Y586913D01*
X624336Y585864D01*
X623287Y584498D01*
X622628Y582907D01*
X622404Y581200D01*
Y573200D01*
X622628Y571493D01*
X623287Y569902D01*
X624336Y568536D01*
X625702Y567487D01*
X627293Y566828D01*
X629000Y566604D01*
X637000D01*
X638707Y566828D01*
X640298Y567487D01*
X641664Y568536D01*
X642713Y569902D01*
X643372Y571493D01*
X643596Y573200D01*
Y581200D01*
X643575Y581365D01*
X656205Y593995D01*
X656690Y594721D01*
X657960Y594336D01*
Y591960D01*
X677631D01*
X691795Y577795D01*
X693266Y576813D01*
X695000Y576468D01*
X695000Y576468D01*
X890000D01*
X891734Y576813D01*
X893205Y577795D01*
X957369Y641960D01*
X977040D01*
Y668040D01*
X950960D01*
Y648369D01*
X888123Y585532D01*
X696877D01*
X684040Y598369D01*
Y618040D01*
X658802D01*
X657960Y618040D01*
X657532Y619133D01*
Y649973D01*
X658802Y650140D01*
X658849Y649967D01*
X660565Y646993D01*
X662993Y644565D01*
X665967Y642849D01*
X669283Y641960D01*
X672717D01*
X676033Y642849D01*
X679007Y644565D01*
X681434Y646993D01*
X683151Y649967D01*
X684040Y653283D01*
Y656717D01*
X683151Y660033D01*
X682892Y660483D01*
X706995Y684586D01*
X707982Y683777D01*
X707617Y683230D01*
X707173Y681000D01*
X707617Y678770D01*
X708880Y676880D01*
X710770Y675617D01*
X713000Y675173D01*
X715230Y675617D01*
X717120Y676880D01*
X735414Y695173D01*
X916000D01*
X918230Y695617D01*
X920120Y696880D01*
X921383Y698770D01*
X921827Y701000D01*
X921383Y703230D01*
X920120Y705120D01*
X918230Y706383D01*
X916000Y706827D01*
X733000D01*
X730770Y706383D01*
X730223Y706018D01*
X729414Y707005D01*
X756877Y734468D01*
X843000D01*
X844734Y734813D01*
X846205Y735795D01*
X921198Y810789D01*
X922468Y810263D01*
Y798000D01*
X922813Y796266D01*
X923795Y794795D01*
X981468Y737123D01*
Y628877D01*
X969483Y616892D01*
X969033Y617151D01*
X965717Y618040D01*
X962283D01*
X958967Y617151D01*
X955993Y615435D01*
X953565Y613007D01*
X951849Y610033D01*
X950960Y606717D01*
Y603283D01*
X951849Y599967D01*
X953565Y596993D01*
X955993Y594565D01*
X958967Y592849D01*
X962283Y591960D01*
X965717D01*
X969033Y592849D01*
X972007Y594565D01*
X974435Y596993D01*
X976151Y599967D01*
X977040Y603283D01*
Y606717D01*
X976151Y610033D01*
X975892Y610483D01*
X989205Y623795D01*
X990187Y625266D01*
X990532Y627000D01*
Y669973D01*
X991802Y670140D01*
X991849Y669967D01*
X993565Y666993D01*
X995993Y664565D01*
X998967Y662849D01*
X1002283Y661960D01*
X1005717D01*
X1009033Y662849D01*
X1012007Y664565D01*
X1014435Y666993D01*
X1016151Y669967D01*
X1017040Y673283D01*
Y676717D01*
X1016151Y680033D01*
X1014435Y683007D01*
X1012007Y685435D01*
X1009033Y687151D01*
X1005717Y688040D01*
X1002283D01*
X998967Y687151D01*
X995993Y685435D01*
X993565Y683007D01*
X991849Y680033D01*
X991802Y679860D01*
X990532Y680027D01*
Y719973D01*
X991802Y720140D01*
X991849Y719967D01*
X993565Y716993D01*
X995993Y714565D01*
X998967Y712849D01*
X1002283Y711960D01*
X1005717D01*
X1009033Y712849D01*
X1012007Y714565D01*
X1014435Y716993D01*
X1016151Y719967D01*
X1017040Y723283D01*
Y726717D01*
X1016151Y730033D01*
X1014435Y733007D01*
X1012007Y735435D01*
X1009033Y737151D01*
X1005717Y738040D01*
X1002283D01*
X998967Y737151D01*
X995993Y735435D01*
X993565Y733007D01*
X991849Y730033D01*
X991802Y729860D01*
X990532Y730027D01*
Y739000D01*
X990532Y739000D01*
X990187Y740734D01*
X989205Y742205D01*
X989205Y742205D01*
X931532Y799877D01*
Y809123D01*
X934220Y811810D01*
X934790Y811713D01*
X935223Y810351D01*
X934727Y809855D01*
X933960Y808002D01*
Y805997D01*
X934727Y804145D01*
X936145Y802727D01*
X937998Y801960D01*
X940003D01*
X941229Y802468D01*
X962424D01*
X963130Y801412D01*
X962960Y801003D01*
Y798997D01*
X963727Y797145D01*
X965145Y795727D01*
X966921Y794992D01*
X967117Y794795D01*
X968588Y793813D01*
X970322Y793468D01*
X980681D01*
X981455Y792198D01*
X980960Y791003D01*
Y788997D01*
X981727Y787145D01*
X983145Y785727D01*
X984921Y784992D01*
X1001699Y768213D01*
X1001213Y767040D01*
X1000997D01*
X999145Y766273D01*
X997727Y764855D01*
X996960Y763002D01*
Y760997D01*
X997468Y759771D01*
Y758000D01*
X997813Y756266D01*
X998795Y754795D01*
X1103468Y650123D01*
Y561000D01*
X1103813Y559266D01*
X1104795Y557795D01*
X1117108Y545483D01*
X1116849Y545033D01*
X1115960Y541717D01*
Y538283D01*
X1116849Y534967D01*
X1118565Y531993D01*
X1120993Y529565D01*
X1123967Y527849D01*
X1127283Y526960D01*
X1130717D01*
X1134033Y527849D01*
X1137007Y529565D01*
X1139435Y531993D01*
X1141151Y534967D01*
X1142040Y538283D01*
Y541717D01*
X1141151Y545033D01*
X1139435Y548007D01*
X1137007Y550435D01*
X1134033Y552151D01*
X1130717Y553040D01*
X1127283D01*
X1123967Y552151D01*
X1123517Y551892D01*
X1112532Y562877D01*
Y652000D01*
X1112532Y652000D01*
X1112187Y653734D01*
X1111205Y655205D01*
X1111205Y655205D01*
X1006563Y759846D01*
X1007040Y760997D01*
Y761213D01*
X1008213Y761699D01*
X1009092Y760821D01*
X1009740Y759850D01*
X1097795Y671795D01*
X1099266Y670813D01*
X1101000Y670468D01*
X1101000Y670468D01*
X1116714D01*
X1116849Y669967D01*
X1118565Y666993D01*
X1120993Y664565D01*
X1123967Y662849D01*
X1127283Y661960D01*
X1130717D01*
X1134033Y662849D01*
X1137007Y664565D01*
X1139435Y666993D01*
X1141151Y669967D01*
X1142040Y673283D01*
Y676717D01*
X1141151Y680033D01*
X1139435Y683007D01*
X1137007Y685435D01*
X1135685Y686198D01*
X1136025Y687468D01*
X1147123D01*
X1174108Y660483D01*
X1173849Y660033D01*
X1172960Y656717D01*
Y653283D01*
X1173849Y649967D01*
X1175565Y646993D01*
X1177993Y644565D01*
X1180967Y642849D01*
X1184283Y641960D01*
X1187717D01*
X1191033Y642849D01*
X1194007Y644565D01*
X1196434Y646993D01*
X1198151Y649967D01*
X1199040Y653283D01*
Y656717D01*
X1198151Y660033D01*
X1196434Y663007D01*
X1194007Y665435D01*
X1191033Y667151D01*
X1187717Y668040D01*
X1184283D01*
X1180967Y667151D01*
X1180517Y666892D01*
X1174047Y673363D01*
X1174672Y674533D01*
X1175000Y674468D01*
X1175000Y674468D01*
X1359123D01*
X1431795Y601795D01*
X1431795Y601795D01*
X1433266Y600813D01*
X1435000Y600468D01*
X1435000Y600468D01*
X1466714D01*
X1466849Y599967D01*
X1468565Y596993D01*
X1470993Y594565D01*
X1473967Y592849D01*
X1477283Y591960D01*
X1480717D01*
X1484033Y592849D01*
X1487007Y594565D01*
X1489435Y596993D01*
X1491151Y599967D01*
X1492040Y603283D01*
Y606717D01*
X1491151Y610033D01*
X1489435Y613007D01*
X1487007Y615435D01*
X1484033Y617151D01*
X1480717Y618040D01*
X1477283D01*
X1473967Y617151D01*
X1470993Y615435D01*
X1468565Y613007D01*
X1466849Y610033D01*
X1466714Y609532D01*
X1436877D01*
X1364205Y682205D01*
X1362734Y683187D01*
X1361000Y683532D01*
X1176877D01*
X1154205Y706205D01*
X1152734Y707187D01*
X1151000Y707532D01*
X1104877D01*
X1002205Y810205D01*
X1001059Y810970D01*
X1001444Y812240D01*
X1017321D01*
X1017998Y811960D01*
X1020003D01*
X1021855Y812727D01*
X1023273Y814145D01*
X1024040Y815997D01*
Y818002D01*
X1023273Y819855D01*
X1022930Y820198D01*
X1023456Y821468D01*
X1093000D01*
X1094734Y821813D01*
X1096205Y822795D01*
X1106172Y832763D01*
X1106172Y832763D01*
X1107155Y834233D01*
X1107229Y834605D01*
X1109368Y835178D01*
X1111772Y836566D01*
X1113734Y838528D01*
X1115122Y840932D01*
X1115840Y843612D01*
Y846388D01*
X1115122Y849068D01*
X1113734Y851472D01*
X1111772Y853434D01*
X1109368Y854822D01*
X1106688Y855540D01*
X1103912D01*
X1101232Y854822D01*
X1098828Y853434D01*
X1096866Y851472D01*
X1095478Y849068D01*
X1094760Y846388D01*
Y843612D01*
X1095478Y840932D01*
X1096866Y838528D01*
X1097992Y837402D01*
X1091123Y830532D01*
X930000D01*
X928266Y830187D01*
X926795Y829205D01*
X841123Y743532D01*
X755000D01*
X755000Y743532D01*
X753266Y743187D01*
X751795Y742205D01*
X676482Y666892D01*
X676033Y667151D01*
X672717Y668040D01*
X669283D01*
X665967Y667151D01*
X662993Y665435D01*
X660565Y663007D01*
X658849Y660033D01*
X658802Y659860D01*
X657532Y660027D01*
Y806123D01*
X674165Y822756D01*
X675206Y822000D01*
X674478Y820572D01*
X673138Y816449D01*
X672460Y812168D01*
Y807832D01*
X673138Y803551D01*
X674478Y799428D01*
X676446Y795566D01*
X678994Y792059D01*
X682059Y788994D01*
X685566Y786446D01*
X689428Y784478D01*
X693551Y783138D01*
X697832Y782460D01*
X702168D01*
X706449Y783138D01*
X710572Y784478D01*
X714434Y786446D01*
X717941Y788994D01*
X721006Y792059D01*
X723554Y795566D01*
X725522Y799428D01*
X726862Y803551D01*
X727540Y807832D01*
Y812168D01*
X726862Y816449D01*
X725522Y820572D01*
X723554Y824434D01*
X721006Y827941D01*
X717941Y831006D01*
X714434Y833554D01*
X710572Y835522D01*
X706449Y836862D01*
X702168Y837540D01*
X697832D01*
X693551Y836862D01*
X689428Y835522D01*
X688000Y834794D01*
X687244Y835835D01*
X716205Y864795D01*
X716205Y864795D01*
X717187Y866266D01*
X717532Y868000D01*
Y911123D01*
X725237Y918828D01*
X726590Y918385D01*
X726813Y917266D01*
X727795Y915795D01*
X734219Y909371D01*
X734727Y908145D01*
X736145Y906727D01*
X737998Y905960D01*
X740003D01*
X741855Y906727D01*
X742603Y907475D01*
X743873Y906949D01*
Y855322D01*
X742402Y854713D01*
X741036Y853664D01*
X739987Y852298D01*
X739328Y850707D01*
X739104Y849000D01*
Y841000D01*
X739328Y839293D01*
X739987Y837702D01*
X741036Y836336D01*
X742402Y835287D01*
X743993Y834628D01*
X745700Y834404D01*
X753700D01*
X755407Y834628D01*
X756998Y835287D01*
X758364Y836336D01*
X759413Y837702D01*
X760072Y839293D01*
X760296Y841000D01*
Y847356D01*
X769114Y856173D01*
X771168D01*
X771335Y854903D01*
X771032Y854822D01*
X768628Y853434D01*
X766666Y851472D01*
X765278Y849068D01*
X764560Y846388D01*
Y843612D01*
X765278Y840932D01*
X766666Y838528D01*
X768628Y836566D01*
X771032Y835178D01*
X773712Y834460D01*
X776488D01*
X779168Y835178D01*
X781572Y836566D01*
X783534Y838528D01*
X784922Y840932D01*
X785640Y843612D01*
Y846388D01*
X784922Y849068D01*
X783534Y851472D01*
X781572Y853434D01*
X779168Y854822D01*
X778865Y854903D01*
X779032Y856173D01*
X796568D01*
X796735Y854903D01*
X796432Y854822D01*
X794028Y853434D01*
X792066Y851472D01*
X790678Y849068D01*
X789960Y846388D01*
Y843612D01*
X790678Y840932D01*
X792066Y838528D01*
X794028Y836566D01*
X796432Y835178D01*
X799112Y834460D01*
X801888D01*
X804568Y835178D01*
X806972Y836566D01*
X808934Y838528D01*
X810322Y840932D01*
X811040Y843612D01*
Y846388D01*
X810322Y849068D01*
X808934Y851472D01*
X806972Y853434D01*
X804568Y854822D01*
X804265Y854903D01*
X804432Y856173D01*
X821968D01*
X822135Y854903D01*
X821832Y854822D01*
X819428Y853434D01*
X817466Y851472D01*
X816078Y849068D01*
X815360Y846388D01*
Y843612D01*
X816078Y840932D01*
X817466Y838528D01*
X819428Y836566D01*
X821832Y835178D01*
X824512Y834460D01*
X827288D01*
X829968Y835178D01*
X832372Y836566D01*
X834334Y838528D01*
X835722Y840932D01*
X836440Y843612D01*
Y846388D01*
X835722Y849068D01*
X834334Y851472D01*
X832372Y853434D01*
X829968Y854822D01*
X829665Y854903D01*
X829832Y856173D01*
X847368D01*
X847535Y854903D01*
X847232Y854822D01*
X844828Y853434D01*
X842866Y851472D01*
X841478Y849068D01*
X840760Y846388D01*
Y843612D01*
X841478Y840932D01*
X842866Y838528D01*
X844828Y836566D01*
X847232Y835178D01*
X849912Y834460D01*
X852688D01*
X855368Y835178D01*
X857772Y836566D01*
X859734Y838528D01*
X861122Y840932D01*
X861840Y843612D01*
Y846388D01*
X861122Y849068D01*
X859734Y851472D01*
X857772Y853434D01*
X855368Y854822D01*
X855065Y854903D01*
X855232Y856173D01*
X861000D01*
X863230Y856617D01*
X865120Y857880D01*
X875120Y867880D01*
X876383Y869770D01*
X876827Y872000D01*
Y897173D01*
X881710D01*
Y894960D01*
X900290D01*
Y897173D01*
X1294586D01*
X1348580Y843180D01*
X1350470Y841917D01*
X1352700Y841473D01*
X1374273D01*
X1374759Y840300D01*
X1373286Y838827D01*
X1292000D01*
X1289770Y838383D01*
X1287880Y837120D01*
X1181586Y730827D01*
X1142040D01*
Y738040D01*
X1115960D01*
Y711960D01*
X1142040D01*
Y719173D01*
X1184000D01*
X1186230Y719617D01*
X1188120Y720880D01*
X1294414Y827173D01*
X1375700D01*
X1377930Y827617D01*
X1379820Y828880D01*
X1387644Y836704D01*
X1394000D01*
X1395707Y836928D01*
X1397298Y837587D01*
X1398664Y838636D01*
X1399713Y840002D01*
X1400372Y841593D01*
X1400596Y843300D01*
Y851300D01*
X1400372Y853007D01*
X1399713Y854598D01*
X1398664Y855964D01*
X1397298Y857013D01*
X1395707Y857672D01*
X1394000Y857896D01*
X1386000D01*
X1384293Y857672D01*
X1382702Y857013D01*
X1381336Y855964D01*
X1380287Y854598D01*
X1379678Y853127D01*
X1355114D01*
X1301120Y907120D01*
X1299230Y908383D01*
X1297000Y908827D01*
X900290D01*
Y915730D01*
X891000D01*
X881710D01*
Y908827D01*
X874000D01*
X871770Y908383D01*
X869880Y907120D01*
X866880Y904120D01*
X865617Y902230D01*
X865173Y900000D01*
Y874414D01*
X858586Y867827D01*
X766700D01*
X764470Y867383D01*
X762580Y866120D01*
X756700Y860241D01*
X755527Y860727D01*
Y952300D01*
X755083Y954530D01*
X753820Y956420D01*
X745120Y965120D01*
X743230Y966383D01*
X741000Y966827D01*
X738770Y966383D01*
X736880Y965120D01*
X736802Y965004D01*
X735532Y965389D01*
Y1032123D01*
X764527Y1061118D01*
X994650D01*
X996384Y1061463D01*
X997855Y1062445D01*
X1025449Y1090040D01*
X1027612Y1089460D01*
X1030388D01*
X1033068Y1090178D01*
X1035472Y1091566D01*
X1037434Y1093528D01*
X1038822Y1095932D01*
X1039540Y1098612D01*
Y1101388D01*
X1038822Y1104068D01*
X1037434Y1106472D01*
X1035472Y1108434D01*
X1033068Y1109822D01*
X1030388Y1110540D01*
X1027612D01*
X1024932Y1109822D01*
X1022528Y1108434D01*
X1020566Y1106472D01*
X1019178Y1104068D01*
X1018460Y1101388D01*
Y1098612D01*
X1019040Y1096449D01*
X992773Y1070182D01*
X956451D01*
X955965Y1071355D01*
X974649Y1090040D01*
X976812Y1089460D01*
X979588D01*
X982268Y1090178D01*
X984672Y1091566D01*
X986634Y1093528D01*
X988022Y1095932D01*
X988740Y1098612D01*
Y1101388D01*
X988022Y1104068D01*
X986634Y1106472D01*
X984672Y1108434D01*
X982268Y1109822D01*
X979588Y1110540D01*
X976812D01*
X974132Y1109822D01*
X971728Y1108434D01*
X969766Y1106472D01*
X968378Y1104068D01*
X967660Y1101388D01*
Y1098612D01*
X968240Y1096449D01*
X948323Y1076532D01*
X937401D01*
X936915Y1077705D01*
X949249Y1090040D01*
X951412Y1089460D01*
X954188D01*
X956868Y1090178D01*
X959272Y1091566D01*
X961234Y1093528D01*
X962622Y1095932D01*
X963340Y1098612D01*
Y1101388D01*
X962622Y1104068D01*
X961234Y1106472D01*
X959272Y1108434D01*
X956868Y1109822D01*
X954188Y1110540D01*
X951412D01*
X948732Y1109822D01*
X946328Y1108434D01*
X944366Y1106472D01*
X942978Y1104068D01*
X942260Y1101388D01*
Y1098612D01*
X942840Y1096449D01*
X929923Y1083532D01*
X919001D01*
X918515Y1084705D01*
X923849Y1090040D01*
X926012Y1089460D01*
X928788D01*
X931468Y1090178D01*
X933872Y1091566D01*
X935834Y1093528D01*
X937222Y1095932D01*
X937940Y1098612D01*
Y1101388D01*
X937222Y1104068D01*
X935834Y1106472D01*
X933872Y1108434D01*
X931468Y1109822D01*
X928788Y1110540D01*
X926012D01*
X923332Y1109822D01*
X920928Y1108434D01*
X919241Y1106747D01*
X919003Y1106815D01*
X913028D01*
Y1108085D01*
X911758D01*
Y1113015D01*
X910173Y1112358D01*
X908755Y1110940D01*
X908353Y1109969D01*
X906815Y1109391D01*
X906068Y1109822D01*
X903388Y1110540D01*
X903270D01*
Y1100000D01*
X902000D01*
Y1098730D01*
X891460D01*
Y1098612D01*
X892178Y1095932D01*
X893566Y1093528D01*
X895292Y1091802D01*
X894958Y1090532D01*
X883642D01*
X883308Y1091802D01*
X885034Y1093528D01*
X886422Y1095932D01*
X887140Y1098612D01*
Y1101388D01*
X886422Y1104068D01*
X885034Y1106472D01*
X883072Y1108434D01*
X880668Y1109822D01*
X877988Y1110540D01*
X875212D01*
X872532Y1109822D01*
X870128Y1108434D01*
X868166Y1106472D01*
X866778Y1104068D01*
X866060Y1101388D01*
Y1098612D01*
X866778Y1095932D01*
X868166Y1093528D01*
X869892Y1091802D01*
X869558Y1090532D01*
X858242D01*
X857908Y1091802D01*
X859634Y1093528D01*
X861022Y1095932D01*
X861740Y1098612D01*
Y1101388D01*
X861022Y1104068D01*
X859634Y1106472D01*
X857672Y1108434D01*
X855268Y1109822D01*
X852588Y1110540D01*
X849812D01*
X847132Y1109822D01*
X844728Y1108434D01*
X842766Y1106472D01*
X841378Y1104068D01*
X840660Y1101388D01*
Y1098612D01*
X841378Y1095932D01*
X842766Y1093528D01*
X844492Y1091802D01*
X844158Y1090532D01*
X832842D01*
X832508Y1091802D01*
X834234Y1093528D01*
X835622Y1095932D01*
X836340Y1098612D01*
Y1101388D01*
X835622Y1104068D01*
X834234Y1106472D01*
X833975Y1106730D01*
X834499Y1108003D01*
X835779Y1108258D01*
X837250Y1109240D01*
X848049Y1120040D01*
X850212Y1119460D01*
X852988D01*
X855668Y1120178D01*
X858072Y1121566D01*
X860034Y1123528D01*
X861422Y1125932D01*
X862140Y1128612D01*
Y1131388D01*
X861422Y1134068D01*
X860034Y1136472D01*
X858072Y1138434D01*
X855668Y1139822D01*
X852988Y1140540D01*
X850212D01*
X847532Y1139822D01*
X845128Y1138434D01*
X843166Y1136472D01*
X841778Y1134068D01*
X841060Y1131388D01*
Y1128612D01*
X841640Y1126449D01*
X832168Y1116977D01*
X738445D01*
X738445Y1116977D01*
X736711Y1116632D01*
X735240Y1115650D01*
X724796Y1105205D01*
X723756Y1105961D01*
X725522Y1109428D01*
X726862Y1113551D01*
X727540Y1117832D01*
Y1122168D01*
X726862Y1126449D01*
X725522Y1130572D01*
X723554Y1134434D01*
X722203Y1136295D01*
X723171Y1137122D01*
X724304Y1135989D01*
X725889Y1135333D01*
Y1140262D01*
X727159D01*
Y1141532D01*
X732088D01*
X731432Y1143117D01*
X730014Y1144535D01*
X729097Y1144914D01*
X729350Y1146184D01*
X1245151D01*
X1246049Y1145286D01*
D02*
G37*
G36*
X755596Y1066801D02*
X756014Y1065423D01*
X727795Y1037205D01*
X726813Y1035734D01*
X726468Y1034000D01*
Y971576D01*
X725198Y971050D01*
X723532Y972716D01*
Y1012771D01*
X724040Y1013997D01*
Y1016003D01*
X723532Y1017229D01*
Y1025161D01*
X723532Y1025161D01*
X723187Y1026895D01*
X722532Y1027876D01*
Y1034123D01*
X755274Y1066865D01*
X755596Y1066801D01*
D02*
G37*
G36*
X713533Y1036328D02*
X713468Y1036000D01*
Y1026161D01*
X713813Y1024427D01*
X714468Y1023446D01*
Y1017229D01*
X713960Y1016003D01*
Y1013997D01*
X714468Y1012771D01*
Y970839D01*
X714813Y969105D01*
X715795Y967634D01*
X718468Y964962D01*
Y956738D01*
X717198Y956211D01*
X700532Y972877D01*
Y1025123D01*
X712363Y1036953D01*
X713533Y1036328D01*
D02*
G37*
G36*
X690530Y1028796D02*
X691544Y1027384D01*
X691468Y1027000D01*
Y971000D01*
X691813Y969266D01*
X692795Y967795D01*
X711219Y949371D01*
X711468Y948771D01*
Y932288D01*
X710563Y931960D01*
X710198Y931930D01*
X708855Y933273D01*
X707629Y933781D01*
X688532Y952877D01*
Y1027123D01*
X690243Y1028833D01*
X690530Y1028796D01*
D02*
G37*
G36*
X736880Y956880D02*
X743873Y949886D01*
Y915051D01*
X742603Y914525D01*
X741855Y915273D01*
X740629Y915781D01*
X735532Y920877D01*
Y956611D01*
X736802Y956996D01*
X736880Y956880D01*
D02*
G37*
G36*
X739125Y1104919D02*
X739004Y1104000D01*
Y1101270D01*
X749600D01*
Y1098730D01*
X739004D01*
Y1096000D01*
X739228Y1094293D01*
X739887Y1092702D01*
X740617Y1091751D01*
X740284Y1090535D01*
X740143Y1090362D01*
X739266Y1090187D01*
X737795Y1089205D01*
X737795Y1089205D01*
X680795Y1032205D01*
X679813Y1030734D01*
X679468Y1029000D01*
Y951000D01*
X679813Y949266D01*
X680795Y947795D01*
X701219Y927371D01*
X701727Y926145D01*
X703145Y924727D01*
X703626Y924528D01*
X703873Y923283D01*
X702795Y922205D01*
X701813Y920734D01*
X701468Y919000D01*
Y891601D01*
X700295Y891115D01*
X676532Y914877D01*
Y1044123D01*
X737922Y1105512D01*
X739125Y1104919D01*
D02*
G37*
G36*
X1096795Y688795D02*
X1098266Y687813D01*
X1100000Y687468D01*
X1121975D01*
X1122315Y686198D01*
X1120993Y685435D01*
X1118565Y683007D01*
X1116849Y680033D01*
X1116714Y679532D01*
X1102877D01*
X1016798Y765611D01*
X1016150Y766582D01*
X990907Y791825D01*
X991477Y793051D01*
X992455Y793136D01*
X1096795Y688795D01*
D02*
G37*
%LPC*%
G36*
X732088Y1138992D02*
X728429D01*
Y1135333D01*
X730014Y1135989D01*
X731432Y1137407D01*
X732088Y1138992D01*
D02*
G37*
G36*
X751388Y1140540D02*
X751270D01*
Y1131270D01*
X760540D01*
Y1131388D01*
X759822Y1134068D01*
X758434Y1136472D01*
X756472Y1138434D01*
X754068Y1139822D01*
X751388Y1140540D01*
D02*
G37*
G36*
X748730D02*
X748612D01*
X745932Y1139822D01*
X743528Y1138434D01*
X741566Y1136472D01*
X740178Y1134068D01*
X739460Y1131388D01*
Y1131270D01*
X748730D01*
Y1140540D01*
D02*
G37*
G36*
X878388D02*
X875612D01*
X872932Y1139822D01*
X870528Y1138434D01*
X868566Y1136472D01*
X867178Y1134068D01*
X866460Y1131388D01*
Y1128612D01*
X867178Y1125932D01*
X868566Y1123528D01*
X870528Y1121566D01*
X872932Y1120178D01*
X875612Y1119460D01*
X878388D01*
X881068Y1120178D01*
X883472Y1121566D01*
X885434Y1123528D01*
X886822Y1125932D01*
X887540Y1128612D01*
Y1131388D01*
X886822Y1134068D01*
X885434Y1136472D01*
X883472Y1138434D01*
X881068Y1139822D01*
X878388Y1140540D01*
D02*
G37*
G36*
X827588D02*
X824812D01*
X822132Y1139822D01*
X819728Y1138434D01*
X817766Y1136472D01*
X816378Y1134068D01*
X815660Y1131388D01*
Y1128612D01*
X816378Y1125932D01*
X817766Y1123528D01*
X819728Y1121566D01*
X822132Y1120178D01*
X824812Y1119460D01*
X827588D01*
X830268Y1120178D01*
X832672Y1121566D01*
X834634Y1123528D01*
X836022Y1125932D01*
X836740Y1128612D01*
Y1131388D01*
X836022Y1134068D01*
X834634Y1136472D01*
X832672Y1138434D01*
X830268Y1139822D01*
X827588Y1140540D01*
D02*
G37*
G36*
X802188D02*
X799412D01*
X796732Y1139822D01*
X794328Y1138434D01*
X792366Y1136472D01*
X790978Y1134068D01*
X790260Y1131388D01*
Y1128612D01*
X790978Y1125932D01*
X792366Y1123528D01*
X794328Y1121566D01*
X796732Y1120178D01*
X799412Y1119460D01*
X802188D01*
X804868Y1120178D01*
X807272Y1121566D01*
X809234Y1123528D01*
X810622Y1125932D01*
X811340Y1128612D01*
Y1131388D01*
X810622Y1134068D01*
X809234Y1136472D01*
X807272Y1138434D01*
X804868Y1139822D01*
X802188Y1140540D01*
D02*
G37*
G36*
X776788D02*
X774012D01*
X771332Y1139822D01*
X768928Y1138434D01*
X766966Y1136472D01*
X765578Y1134068D01*
X764860Y1131388D01*
Y1128612D01*
X765578Y1125932D01*
X766966Y1123528D01*
X768928Y1121566D01*
X771332Y1120178D01*
X774012Y1119460D01*
X776788D01*
X779468Y1120178D01*
X781872Y1121566D01*
X783834Y1123528D01*
X785222Y1125932D01*
X785940Y1128612D01*
Y1131388D01*
X785222Y1134068D01*
X783834Y1136472D01*
X781872Y1138434D01*
X779468Y1139822D01*
X776788Y1140540D01*
D02*
G37*
G36*
X760540Y1128730D02*
X751270D01*
Y1119460D01*
X751388D01*
X754068Y1120178D01*
X756472Y1121566D01*
X758434Y1123528D01*
X759822Y1125932D01*
X760540Y1128612D01*
Y1128730D01*
D02*
G37*
G36*
X748730D02*
X739460D01*
Y1128612D01*
X740178Y1125932D01*
X741566Y1123528D01*
X743528Y1121566D01*
X745932Y1120178D01*
X748612Y1119460D01*
X748730D01*
Y1128730D01*
D02*
G37*
G36*
X906400Y1140596D02*
X898400D01*
X896693Y1140372D01*
X895102Y1139713D01*
X893736Y1138664D01*
X892687Y1137298D01*
X892028Y1135707D01*
X891804Y1134000D01*
Y1126000D01*
X892028Y1124293D01*
X892687Y1122702D01*
X893736Y1121336D01*
X895102Y1120287D01*
X896693Y1119628D01*
X898400Y1119404D01*
X906400D01*
X908107Y1119628D01*
X909698Y1120287D01*
X911064Y1121336D01*
X912113Y1122702D01*
X912772Y1124293D01*
X912996Y1126000D01*
Y1134000D01*
X912772Y1135707D01*
X912113Y1137298D01*
X911064Y1138664D01*
X909698Y1139713D01*
X908107Y1140372D01*
X906400Y1140596D01*
D02*
G37*
G36*
X914298Y1113015D02*
Y1109355D01*
X917957D01*
X917301Y1110940D01*
X915883Y1112358D01*
X914298Y1113015D01*
D02*
G37*
G36*
X900730Y1110540D02*
X900612D01*
X897932Y1109822D01*
X895528Y1108434D01*
X893566Y1106472D01*
X892178Y1104068D01*
X891460Y1101388D01*
Y1101270D01*
X900730D01*
Y1110540D01*
D02*
G37*
G36*
X1211555Y1110290D02*
X1208845D01*
X1206228Y1109589D01*
X1203882Y1108234D01*
X1201966Y1106318D01*
X1200611Y1103972D01*
X1199910Y1101355D01*
Y1098645D01*
X1200611Y1096028D01*
X1201966Y1093682D01*
X1203882Y1091766D01*
X1206228Y1090411D01*
X1208845Y1089710D01*
X1211555D01*
X1214172Y1090411D01*
X1216518Y1091766D01*
X1218434Y1093682D01*
X1219789Y1096028D01*
X1220490Y1098645D01*
Y1101355D01*
X1219789Y1103972D01*
X1218434Y1106318D01*
X1216518Y1108234D01*
X1214172Y1109589D01*
X1211555Y1110290D01*
D02*
G37*
G36*
X1186155D02*
X1183445D01*
X1180828Y1109589D01*
X1178482Y1108234D01*
X1176566Y1106318D01*
X1175211Y1103972D01*
X1174510Y1101355D01*
Y1098645D01*
X1175211Y1096028D01*
X1176566Y1093682D01*
X1178482Y1091766D01*
X1180828Y1090411D01*
X1183445Y1089710D01*
X1186155D01*
X1188772Y1090411D01*
X1191118Y1091766D01*
X1193034Y1093682D01*
X1194389Y1096028D01*
X1195090Y1098645D01*
Y1101355D01*
X1194389Y1103972D01*
X1193034Y1106318D01*
X1191118Y1108234D01*
X1188772Y1109589D01*
X1186155Y1110290D01*
D02*
G37*
G36*
X1169690D02*
X1149110D01*
Y1089710D01*
X1169690D01*
Y1110290D01*
D02*
G37*
G36*
X1131988Y1110540D02*
X1129212D01*
X1126532Y1109822D01*
X1124128Y1108434D01*
X1122166Y1106472D01*
X1120778Y1104068D01*
X1120060Y1101388D01*
Y1098612D01*
X1120778Y1095932D01*
X1122166Y1093528D01*
X1124128Y1091566D01*
X1126532Y1090178D01*
X1129212Y1089460D01*
X1131988D01*
X1134668Y1090178D01*
X1137072Y1091566D01*
X1139034Y1093528D01*
X1140422Y1095932D01*
X1141140Y1098612D01*
Y1101388D01*
X1140422Y1104068D01*
X1139034Y1106472D01*
X1137072Y1108434D01*
X1134668Y1109822D01*
X1131988Y1110540D01*
D02*
G37*
G36*
X1106588D02*
X1103812D01*
X1101132Y1109822D01*
X1098728Y1108434D01*
X1096766Y1106472D01*
X1095378Y1104068D01*
X1094660Y1101388D01*
Y1098612D01*
X1095378Y1095932D01*
X1096766Y1093528D01*
X1098728Y1091566D01*
X1101132Y1090178D01*
X1103812Y1089460D01*
X1106588D01*
X1109268Y1090178D01*
X1111672Y1091566D01*
X1113634Y1093528D01*
X1115022Y1095932D01*
X1115740Y1098612D01*
Y1101388D01*
X1115022Y1104068D01*
X1113634Y1106472D01*
X1111672Y1108434D01*
X1109268Y1109822D01*
X1106588Y1110540D01*
D02*
G37*
G36*
X1081188D02*
X1078412D01*
X1075732Y1109822D01*
X1073328Y1108434D01*
X1071366Y1106472D01*
X1069978Y1104068D01*
X1069260Y1101388D01*
Y1098612D01*
X1069978Y1095932D01*
X1071366Y1093528D01*
X1073328Y1091566D01*
X1075732Y1090178D01*
X1078412Y1089460D01*
X1081188D01*
X1083868Y1090178D01*
X1086272Y1091566D01*
X1088234Y1093528D01*
X1089622Y1095932D01*
X1090340Y1098612D01*
Y1101388D01*
X1089622Y1104068D01*
X1088234Y1106472D01*
X1086272Y1108434D01*
X1083868Y1109822D01*
X1081188Y1110540D01*
D02*
G37*
G36*
X1004988D02*
X1002212D01*
X999532Y1109822D01*
X997128Y1108434D01*
X995166Y1106472D01*
X993778Y1104068D01*
X993060Y1101388D01*
Y1098612D01*
X993778Y1095932D01*
X995166Y1093528D01*
X997128Y1091566D01*
X999532Y1090178D01*
X1002212Y1089460D01*
X1004988D01*
X1007668Y1090178D01*
X1010072Y1091566D01*
X1012034Y1093528D01*
X1013422Y1095932D01*
X1014140Y1098612D01*
Y1101388D01*
X1013422Y1104068D01*
X1012034Y1106472D01*
X1010072Y1108434D01*
X1007668Y1109822D01*
X1004988Y1110540D01*
D02*
G37*
G36*
X1483786Y1086092D02*
Y1082433D01*
X1487445D01*
X1486789Y1084018D01*
X1485371Y1085436D01*
X1483786Y1086092D01*
D02*
G37*
G36*
X1481246D02*
X1479661Y1085436D01*
X1478244Y1084018D01*
X1477587Y1082433D01*
X1481246D01*
Y1086092D01*
D02*
G37*
G36*
X1487445Y1079893D02*
X1483786D01*
Y1076234D01*
X1485371Y1076890D01*
X1486789Y1078308D01*
X1487445Y1079893D01*
D02*
G37*
G36*
X1481246D02*
X1477587D01*
X1478244Y1078308D01*
X1479661Y1076890D01*
X1481246Y1076234D01*
Y1079893D01*
D02*
G37*
G36*
X664405Y1079321D02*
Y1075661D01*
X668064D01*
X667408Y1077246D01*
X665990Y1078664D01*
X664405Y1079321D01*
D02*
G37*
G36*
X661865D02*
X660280Y1078664D01*
X658862Y1077246D01*
X658206Y1075661D01*
X661865D01*
Y1079321D01*
D02*
G37*
G36*
X1391388Y1080540D02*
X1391270D01*
Y1071270D01*
X1400540D01*
Y1071388D01*
X1399822Y1074068D01*
X1398434Y1076472D01*
X1396472Y1078434D01*
X1394068Y1079822D01*
X1391388Y1080540D01*
D02*
G37*
G36*
X1388730D02*
X1388612D01*
X1385932Y1079822D01*
X1383528Y1078434D01*
X1381566Y1076472D01*
X1380178Y1074068D01*
X1379460Y1071388D01*
Y1071270D01*
X1388730D01*
Y1080540D01*
D02*
G37*
G36*
X668064Y1073121D02*
X664405D01*
Y1069462D01*
X665990Y1070119D01*
X667408Y1071536D01*
X668064Y1073121D01*
D02*
G37*
G36*
X661865D02*
X658206D01*
X658862Y1071536D01*
X660280Y1070119D01*
X661865Y1069462D01*
Y1073121D01*
D02*
G37*
G36*
X1055788Y1110540D02*
X1053012D01*
X1050332Y1109822D01*
X1047928Y1108434D01*
X1045966Y1106472D01*
X1044578Y1104068D01*
X1043860Y1101388D01*
Y1098612D01*
X1044578Y1095932D01*
X1045966Y1093528D01*
X1047928Y1091566D01*
X1050332Y1090178D01*
X1053012Y1089460D01*
X1055788D01*
X1057951Y1090040D01*
X1073960Y1074031D01*
Y1072998D01*
X1074727Y1071145D01*
X1076145Y1069727D01*
X1077998Y1068960D01*
X1080003D01*
X1081855Y1069727D01*
X1083273Y1071145D01*
X1084040Y1072998D01*
Y1075003D01*
X1083273Y1076855D01*
X1083008Y1077120D01*
X1082959Y1077362D01*
X1081977Y1078832D01*
X1064360Y1096449D01*
X1064940Y1098612D01*
Y1101388D01*
X1064222Y1104068D01*
X1062834Y1106472D01*
X1060872Y1108434D01*
X1058468Y1109822D01*
X1055788Y1110540D01*
D02*
G37*
G36*
X1197555Y1068119D02*
Y1064460D01*
X1201214D01*
X1200558Y1066045D01*
X1199140Y1067463D01*
X1197555Y1068119D01*
D02*
G37*
G36*
X1195015D02*
X1193430Y1067463D01*
X1192012Y1066045D01*
X1191356Y1064460D01*
X1195015D01*
Y1068119D01*
D02*
G37*
G36*
X1400540Y1068730D02*
X1391270D01*
Y1059460D01*
X1391388D01*
X1394068Y1060178D01*
X1396472Y1061566D01*
X1398434Y1063528D01*
X1399822Y1065932D01*
X1400540Y1068612D01*
Y1068730D01*
D02*
G37*
G36*
X1388730D02*
X1379460D01*
Y1068612D01*
X1380178Y1065932D01*
X1381566Y1063528D01*
X1383528Y1061566D01*
X1385932Y1060178D01*
X1388612Y1059460D01*
X1388730D01*
Y1068730D01*
D02*
G37*
G36*
X1201214Y1061920D02*
X1197555D01*
Y1058261D01*
X1199140Y1058917D01*
X1200558Y1060335D01*
X1201214Y1061920D01*
D02*
G37*
G36*
X1195015D02*
X1191356D01*
X1192012Y1060335D01*
X1193430Y1058917D01*
X1195015Y1058261D01*
Y1061920D01*
D02*
G37*
G36*
X1391388Y1055140D02*
X1388612D01*
X1385932Y1054422D01*
X1383528Y1053034D01*
X1381566Y1051072D01*
X1380178Y1048668D01*
X1379460Y1045988D01*
Y1043212D01*
X1380178Y1040532D01*
X1381566Y1038128D01*
X1383528Y1036166D01*
X1385932Y1034778D01*
X1388612Y1034060D01*
X1391388D01*
X1394068Y1034778D01*
X1396472Y1036166D01*
X1398434Y1038128D01*
X1399822Y1040532D01*
X1400540Y1043212D01*
Y1045988D01*
X1399822Y1048668D01*
X1398434Y1051072D01*
X1396472Y1053034D01*
X1394068Y1054422D01*
X1391388Y1055140D01*
D02*
G37*
G36*
X1446849Y1031303D02*
Y1027644D01*
X1450509D01*
X1449852Y1029228D01*
X1448434Y1030646D01*
X1446849Y1031303D01*
D02*
G37*
G36*
X1444309D02*
X1442724Y1030646D01*
X1441307Y1029228D01*
X1440650Y1027644D01*
X1444309D01*
Y1031303D01*
D02*
G37*
G36*
X985003Y1039040D02*
X982998D01*
X981145Y1038273D01*
X979727Y1036855D01*
X978960Y1035003D01*
Y1032998D01*
X979727Y1031145D01*
X981145Y1029727D01*
X982371Y1029219D01*
X983795Y1027795D01*
X983795Y1027795D01*
X985266Y1026813D01*
X987000Y1026468D01*
X987000Y1026468D01*
X1174771D01*
X1175997Y1025960D01*
X1178002D01*
X1179855Y1026727D01*
X1181273Y1028145D01*
X1182040Y1029997D01*
Y1032002D01*
X1181273Y1033855D01*
X1179855Y1035273D01*
X1178002Y1036040D01*
X1175997D01*
X1174771Y1035532D01*
X988877D01*
X988781Y1035629D01*
X988273Y1036855D01*
X986855Y1038273D01*
X985003Y1039040D01*
D02*
G37*
G36*
X1450509Y1025104D02*
X1446849D01*
Y1021444D01*
X1448434Y1022101D01*
X1449852Y1023519D01*
X1450509Y1025104D01*
D02*
G37*
G36*
X1444309D02*
X1440650D01*
X1441307Y1023519D01*
X1442724Y1022101D01*
X1444309Y1021444D01*
Y1025104D01*
D02*
G37*
G36*
X760441Y1024531D02*
Y1020872D01*
X764100D01*
X763443Y1022457D01*
X762026Y1023875D01*
X760441Y1024531D01*
D02*
G37*
G36*
X757901D02*
X756316Y1023875D01*
X754898Y1022457D01*
X754241Y1020872D01*
X757901D01*
Y1024531D01*
D02*
G37*
G36*
X764100Y1018332D02*
X760441D01*
Y1014673D01*
X762026Y1015329D01*
X763443Y1016747D01*
X764100Y1018332D01*
D02*
G37*
G36*
X757901D02*
X754241D01*
X754898Y1016747D01*
X756316Y1015329D01*
X757901Y1014673D01*
Y1018332D01*
D02*
G37*
G36*
X881003Y1037040D02*
X878997D01*
X877145Y1036273D01*
X875727Y1034855D01*
X874960Y1033002D01*
Y1030997D01*
X875727Y1029145D01*
X877145Y1027727D01*
X878371Y1027219D01*
X908795Y996795D01*
X908795Y996795D01*
X910266Y995813D01*
X912000Y995468D01*
X912000Y995468D01*
X1192123D01*
X1228795Y958795D01*
X1228795Y958795D01*
X1230266Y957813D01*
X1232000Y957468D01*
X1232000Y957468D01*
X1358200D01*
X1359934Y957813D01*
X1361405Y958795D01*
X1385835Y983225D01*
X1386000Y983204D01*
X1394000D01*
X1395707Y983428D01*
X1397298Y984087D01*
X1398664Y985136D01*
X1399713Y986502D01*
X1400372Y988093D01*
X1400596Y989800D01*
Y997800D01*
X1400372Y999507D01*
X1399713Y1001098D01*
X1398664Y1002464D01*
X1397298Y1003513D01*
X1395707Y1004172D01*
X1394000Y1004396D01*
X1386000D01*
X1384293Y1004172D01*
X1382702Y1003513D01*
X1381912Y1002907D01*
X1381073Y1003864D01*
X1386449Y1009240D01*
X1388612Y1008660D01*
X1391388D01*
X1394068Y1009378D01*
X1396472Y1010766D01*
X1398434Y1012728D01*
X1399822Y1015132D01*
X1400540Y1017812D01*
Y1020588D01*
X1399822Y1023268D01*
X1398434Y1025672D01*
X1396472Y1027634D01*
X1394068Y1029022D01*
X1391388Y1029740D01*
X1388612D01*
X1385932Y1029022D01*
X1383528Y1027634D01*
X1381566Y1025672D01*
X1380178Y1023268D01*
X1379460Y1020588D01*
Y1017812D01*
X1380040Y1015649D01*
X1367795Y1003405D01*
X1366813Y1001934D01*
X1366468Y1000200D01*
Y988877D01*
X1361123Y983532D01*
X1246877D01*
X1211205Y1019205D01*
X1209734Y1020187D01*
X1208000Y1020532D01*
X939877D01*
X927781Y1032629D01*
X927273Y1033855D01*
X925855Y1035273D01*
X924003Y1036040D01*
X921998D01*
X920145Y1035273D01*
X918727Y1033855D01*
X917960Y1032002D01*
Y1029997D01*
X918727Y1028145D01*
X920145Y1026727D01*
X921371Y1026219D01*
X934795Y1012795D01*
X934795Y1012795D01*
X936266Y1011813D01*
X938000Y1011468D01*
X1206123D01*
X1241795Y975795D01*
X1243266Y974813D01*
X1245000Y974468D01*
X1362462D01*
X1362989Y973198D01*
X1356323Y966532D01*
X1233877D01*
X1197205Y1003205D01*
X1195734Y1004187D01*
X1194000Y1004532D01*
X913877D01*
X884781Y1033629D01*
X884273Y1034855D01*
X882855Y1036273D01*
X881003Y1037040D01*
D02*
G37*
G36*
X1535498Y991288D02*
Y987629D01*
X1539157D01*
X1538500Y989213D01*
X1537083Y990631D01*
X1535498Y991288D01*
D02*
G37*
G36*
X1532958D02*
X1531373Y990631D01*
X1529955Y989213D01*
X1529298Y987629D01*
X1532958D01*
Y991288D01*
D02*
G37*
G36*
X1181489Y990391D02*
Y986732D01*
X1185148D01*
X1184492Y988317D01*
X1183074Y989734D01*
X1181489Y990391D01*
D02*
G37*
G36*
X1178949D02*
X1177364Y989734D01*
X1175946Y988317D01*
X1175290Y986732D01*
X1178949D01*
Y990391D01*
D02*
G37*
G36*
X1539157Y985089D02*
X1535498D01*
Y981429D01*
X1537083Y982086D01*
X1538500Y983504D01*
X1539157Y985089D01*
D02*
G37*
G36*
X1532958D02*
X1529298D01*
X1529955Y983504D01*
X1531373Y982086D01*
X1532958Y981429D01*
Y985089D01*
D02*
G37*
G36*
X1185148Y984192D02*
X1181489D01*
Y980533D01*
X1183074Y981189D01*
X1184492Y982607D01*
X1185148Y984192D01*
D02*
G37*
G36*
X1178949D02*
X1175290D01*
X1175946Y982607D01*
X1177364Y981189D01*
X1178949Y980533D01*
Y984192D01*
D02*
G37*
G36*
X1082405Y981438D02*
Y977779D01*
X1086064D01*
X1085408Y979364D01*
X1083990Y980782D01*
X1082405Y981438D01*
D02*
G37*
G36*
X1079865D02*
X1078280Y980782D01*
X1076862Y979364D01*
X1076206Y977779D01*
X1079865D01*
Y981438D01*
D02*
G37*
G36*
X940445Y977197D02*
Y974620D01*
X943022D01*
X942600Y975639D01*
X941463Y976775D01*
X940445Y977197D01*
D02*
G37*
G36*
X937905Y977197D02*
X936887Y976775D01*
X935750Y975639D01*
X935328Y974620D01*
X937905D01*
Y977197D01*
D02*
G37*
G36*
X922095Y977197D02*
Y974620D01*
X924672D01*
X924250Y975639D01*
X923113Y976775D01*
X922095Y977197D01*
D02*
G37*
G36*
X919555Y977197D02*
X918537Y976775D01*
X917400Y975639D01*
X916978Y974620D01*
X919555D01*
Y977197D01*
D02*
G37*
G36*
X1086064Y975239D02*
X1082405D01*
Y971580D01*
X1083990Y972236D01*
X1085408Y973654D01*
X1086064Y975239D01*
D02*
G37*
G36*
X1079865D02*
X1076206D01*
X1076862Y973654D01*
X1078280Y972236D01*
X1079865Y971580D01*
Y975239D01*
D02*
G37*
G36*
X1507003Y972040D02*
X1504998D01*
X1503771Y971532D01*
X1477000D01*
X1477000Y971532D01*
X1475266Y971187D01*
X1475045Y971040D01*
X1474998D01*
X1473145Y970273D01*
X1471727Y968855D01*
X1470960Y967002D01*
Y964997D01*
X1471727Y963145D01*
X1473145Y961727D01*
X1474998Y960960D01*
X1477003D01*
X1478855Y961727D01*
X1479595Y962468D01*
X1503771D01*
X1504998Y961960D01*
X1507003D01*
X1508855Y962727D01*
X1510273Y964145D01*
X1511040Y965997D01*
Y968002D01*
X1510273Y969855D01*
X1508855Y971273D01*
X1507003Y972040D01*
D02*
G37*
G36*
X937905Y972080D02*
X935328D01*
X935750Y971061D01*
X936887Y969925D01*
X937905Y969503D01*
Y972080D01*
D02*
G37*
G36*
X919555Y972080D02*
X916978D01*
X917400Y971061D01*
X918537Y969925D01*
X919555Y969503D01*
Y972080D01*
D02*
G37*
G36*
X924672D02*
X922095D01*
Y969503D01*
X923113Y969925D01*
X924250Y971061D01*
X924672Y972080D01*
D02*
G37*
G36*
X943022Y972080D02*
X940445D01*
Y969503D01*
X941463Y969925D01*
X942600Y971061D01*
X943022Y972080D01*
D02*
G37*
G36*
X931270Y968022D02*
Y965445D01*
X933847D01*
X933425Y966463D01*
X932289Y967600D01*
X931270Y968022D01*
D02*
G37*
G36*
X928730D02*
X927711Y967600D01*
X926575Y966463D01*
X926153Y965445D01*
X928730D01*
Y968022D01*
D02*
G37*
G36*
X912920Y968022D02*
Y965445D01*
X915497D01*
X915075Y966463D01*
X913939Y967600D01*
X912920Y968022D01*
D02*
G37*
G36*
X910380Y968022D02*
X909361Y967600D01*
X908225Y966463D01*
X907803Y965445D01*
X910380D01*
Y968022D01*
D02*
G37*
G36*
X949620Y968022D02*
Y965445D01*
X952197D01*
X951775Y966463D01*
X950639Y967600D01*
X949620Y968022D01*
D02*
G37*
G36*
X947080Y968022D02*
X946061Y967600D01*
X944925Y966463D01*
X944503Y965445D01*
X947080D01*
Y968022D01*
D02*
G37*
G36*
X1391388Y970940D02*
X1391270D01*
Y961670D01*
X1400540D01*
Y961788D01*
X1399822Y964468D01*
X1398434Y966872D01*
X1396472Y968834D01*
X1394068Y970222D01*
X1391388Y970940D01*
D02*
G37*
G36*
X1388730D02*
X1388612D01*
X1385932Y970222D01*
X1383528Y968834D01*
X1381566Y966872D01*
X1380178Y964468D01*
X1379460Y961788D01*
Y961670D01*
X1388730D01*
Y970940D01*
D02*
G37*
G36*
X952197Y962905D02*
X949620D01*
Y960328D01*
X950639Y960750D01*
X951775Y961887D01*
X952197Y962905D01*
D02*
G37*
G36*
X915497Y962905D02*
X912920D01*
Y960328D01*
X913939Y960750D01*
X915075Y961887D01*
X915497Y962905D01*
D02*
G37*
G36*
X933847Y962905D02*
X931270D01*
Y960328D01*
X932289Y960750D01*
X933425Y961887D01*
X933847Y962905D01*
D02*
G37*
G36*
X928730D02*
X926153D01*
X926575Y961887D01*
X927711Y960750D01*
X928730Y960328D01*
Y962905D01*
D02*
G37*
G36*
X910380Y962905D02*
X907803D01*
X908225Y961887D01*
X909361Y960750D01*
X910380Y960328D01*
Y962905D01*
D02*
G37*
G36*
X947080Y962905D02*
X944503D01*
X944925Y961887D01*
X946061Y960750D01*
X947080Y960328D01*
Y962905D01*
D02*
G37*
G36*
X940445Y958847D02*
Y956270D01*
X943022D01*
X942600Y957289D01*
X941463Y958425D01*
X940445Y958847D01*
D02*
G37*
G36*
X937905Y958847D02*
X936887Y958425D01*
X935750Y957289D01*
X935328Y956270D01*
X937905D01*
Y958847D01*
D02*
G37*
G36*
X922095Y958847D02*
Y956270D01*
X924672D01*
X924250Y957289D01*
X923113Y958425D01*
X922095Y958847D01*
D02*
G37*
G36*
X919555D02*
X918537Y958425D01*
X917400Y957289D01*
X916978Y956270D01*
X919555D01*
Y958847D01*
D02*
G37*
G36*
X937905Y953730D02*
X935328D01*
X935750Y952711D01*
X936887Y951575D01*
X937905Y951153D01*
Y953730D01*
D02*
G37*
G36*
X919555Y953730D02*
X916978D01*
X917400Y952711D01*
X918537Y951575D01*
X919555Y951153D01*
Y953730D01*
D02*
G37*
G36*
X924672D02*
X922095D01*
Y951153D01*
X923113Y951575D01*
X924250Y952711D01*
X924672Y953730D01*
D02*
G37*
G36*
X943022Y953730D02*
X940445D01*
Y951153D01*
X941463Y951575D01*
X942600Y952711D01*
X943022Y953730D01*
D02*
G37*
G36*
X1400540Y959130D02*
X1391270D01*
Y949860D01*
X1391388D01*
X1394068Y950578D01*
X1396472Y951966D01*
X1398434Y953928D01*
X1399822Y956332D01*
X1400540Y959012D01*
Y959130D01*
D02*
G37*
G36*
X1388730D02*
X1379460D01*
Y959012D01*
X1380178Y956332D01*
X1381566Y953928D01*
X1383528Y951966D01*
X1385932Y950578D01*
X1388612Y949860D01*
X1388730D01*
Y959130D01*
D02*
G37*
G36*
X931270Y949672D02*
Y947095D01*
X933847D01*
X933425Y948113D01*
X932289Y949250D01*
X931270Y949672D01*
D02*
G37*
G36*
X928730Y949672D02*
X927711Y949250D01*
X926575Y948113D01*
X926153Y947095D01*
X928730D01*
Y949672D01*
D02*
G37*
G36*
X912920Y949672D02*
Y947095D01*
X915497D01*
X915075Y948113D01*
X913939Y949250D01*
X912920Y949672D01*
D02*
G37*
G36*
X910380D02*
X909361Y949250D01*
X908225Y948113D01*
X907803Y947095D01*
X910380D01*
Y949672D01*
D02*
G37*
G36*
X949620D02*
Y947095D01*
X952197D01*
X951775Y948113D01*
X950639Y949250D01*
X949620Y949672D01*
D02*
G37*
G36*
X947080D02*
X946061Y949250D01*
X944925Y948113D01*
X944503Y947095D01*
X947080D01*
Y949672D01*
D02*
G37*
G36*
X928730Y944555D02*
X926153D01*
X926575Y943537D01*
X927711Y942400D01*
X928730Y941978D01*
Y944555D01*
D02*
G37*
G36*
X952197Y944555D02*
X949620D01*
Y941978D01*
X950639Y942400D01*
X951775Y943537D01*
X952197Y944555D01*
D02*
G37*
G36*
X910380Y944555D02*
X907803D01*
X908225Y943537D01*
X909361Y942400D01*
X910380Y941978D01*
Y944555D01*
D02*
G37*
G36*
X915497D02*
X912920D01*
Y941978D01*
X913939Y942400D01*
X915075Y943537D01*
X915497Y944555D01*
D02*
G37*
G36*
X947080Y944555D02*
X944503D01*
X944925Y943537D01*
X946061Y942400D01*
X947080Y941978D01*
Y944555D01*
D02*
G37*
G36*
X933847Y944555D02*
X931270D01*
Y941978D01*
X932289Y942400D01*
X933425Y943537D01*
X933847Y944555D01*
D02*
G37*
G36*
X940445Y940497D02*
Y937920D01*
X943022D01*
X942600Y938939D01*
X941463Y940075D01*
X940445Y940497D01*
D02*
G37*
G36*
X937905D02*
X936887Y940075D01*
X935750Y938939D01*
X935328Y937920D01*
X937905D01*
Y940497D01*
D02*
G37*
G36*
X922095D02*
Y937920D01*
X924672D01*
X924250Y938939D01*
X923113Y940075D01*
X922095Y940497D01*
D02*
G37*
G36*
X919555D02*
X918537Y940075D01*
X917400Y938939D01*
X916978Y937920D01*
X919555D01*
Y940497D01*
D02*
G37*
G36*
X937905Y935380D02*
X935328D01*
X935750Y934361D01*
X936887Y933225D01*
X937905Y932803D01*
Y935380D01*
D02*
G37*
G36*
X924672Y935380D02*
X922095D01*
Y932803D01*
X923113Y933225D01*
X924250Y934361D01*
X924672Y935380D01*
D02*
G37*
G36*
X919555D02*
X916978D01*
X917400Y934361D01*
X918537Y933225D01*
X919555Y932803D01*
Y935380D01*
D02*
G37*
G36*
X943022Y935380D02*
X940445D01*
Y932803D01*
X941463Y933225D01*
X942600Y934361D01*
X943022Y935380D01*
D02*
G37*
G36*
X1182134Y932189D02*
Y928530D01*
X1185794D01*
X1185137Y930115D01*
X1183719Y931533D01*
X1182134Y932189D01*
D02*
G37*
G36*
X1179594D02*
X1178009Y931533D01*
X1176592Y930115D01*
X1175935Y928530D01*
X1179594D01*
Y932189D01*
D02*
G37*
G36*
X1080558Y930958D02*
Y927299D01*
X1084218D01*
X1083561Y928884D01*
X1082143Y930302D01*
X1080558Y930958D01*
D02*
G37*
G36*
X1078018D02*
X1076433Y930302D01*
X1075016Y928884D01*
X1074359Y927299D01*
X1078018D01*
Y930958D01*
D02*
G37*
G36*
X1391388Y945540D02*
X1388612D01*
X1385932Y944822D01*
X1383528Y943434D01*
X1381566Y941472D01*
X1380178Y939068D01*
X1379460Y936388D01*
Y933612D01*
X1380178Y930932D01*
X1381566Y928528D01*
X1383528Y926566D01*
X1385932Y925178D01*
X1388612Y924460D01*
X1391388D01*
X1394068Y925178D01*
X1396472Y926566D01*
X1398434Y928528D01*
X1399822Y930932D01*
X1400540Y933612D01*
Y936388D01*
X1399822Y939068D01*
X1398434Y941472D01*
X1396472Y943434D01*
X1394068Y944822D01*
X1391388Y945540D01*
D02*
G37*
G36*
X1185794Y925990D02*
X1182134D01*
Y922331D01*
X1183719Y922988D01*
X1185137Y924405D01*
X1185794Y925990D01*
D02*
G37*
G36*
X1179594D02*
X1175935D01*
X1176592Y924405D01*
X1178009Y922988D01*
X1179594Y922331D01*
Y925990D01*
D02*
G37*
G36*
X1084218Y924759D02*
X1080558D01*
Y921100D01*
X1082143Y921756D01*
X1083561Y923174D01*
X1084218Y924759D01*
D02*
G37*
G36*
X1078018D02*
X1074359D01*
X1075016Y923174D01*
X1076433Y921756D01*
X1078018Y921100D01*
Y924759D01*
D02*
G37*
G36*
X900290Y925040D02*
X892270D01*
Y918270D01*
X900290D01*
Y925040D01*
D02*
G37*
G36*
X889730D02*
X881710D01*
Y918270D01*
X889730D01*
Y925040D01*
D02*
G37*
G36*
X1394000Y920196D02*
X1386000D01*
X1384293Y919972D01*
X1382702Y919313D01*
X1381336Y918264D01*
X1380287Y916898D01*
X1379628Y915307D01*
X1379404Y913600D01*
Y905600D01*
X1379628Y903893D01*
X1380287Y902302D01*
X1381336Y900936D01*
X1382702Y899887D01*
X1384293Y899228D01*
X1386000Y899004D01*
X1394000D01*
X1395707Y899228D01*
X1397298Y899887D01*
X1398664Y900936D01*
X1399713Y902302D01*
X1400372Y903893D01*
X1400596Y905600D01*
Y913600D01*
X1400372Y915307D01*
X1399713Y916898D01*
X1398664Y918264D01*
X1397298Y919313D01*
X1395707Y919972D01*
X1394000Y920196D01*
D02*
G37*
G36*
X843100Y1057590D02*
X780100D01*
X779109Y1057393D01*
X778269Y1056831D01*
X777707Y1055991D01*
X777510Y1055000D01*
Y875000D01*
X777707Y874009D01*
X778269Y873169D01*
X779109Y872607D01*
X780100Y872410D01*
X843100D01*
X844091Y872607D01*
X844931Y873169D01*
X845493Y874009D01*
X845690Y875000D01*
Y1055000D01*
X845493Y1055991D01*
X844931Y1056831D01*
X844091Y1057393D01*
X843100Y1057590D01*
D02*
G37*
G36*
X1507316Y874544D02*
Y870885D01*
X1510975D01*
X1510319Y872470D01*
X1508901Y873887D01*
X1507316Y874544D01*
D02*
G37*
G36*
X1504776D02*
X1503191Y873887D01*
X1501773Y872470D01*
X1501117Y870885D01*
X1504776D01*
Y874544D01*
D02*
G37*
G36*
X1510975Y868345D02*
X1507316D01*
Y864685D01*
X1508901Y865342D01*
X1510319Y866760D01*
X1510975Y868345D01*
D02*
G37*
G36*
X1504776D02*
X1501117D01*
X1501773Y866760D01*
X1503191Y865342D01*
X1504776Y864685D01*
Y868345D01*
D02*
G37*
G36*
X1391388Y883240D02*
X1388612D01*
X1385932Y882522D01*
X1383528Y881134D01*
X1381566Y879172D01*
X1380178Y876768D01*
X1379460Y874088D01*
Y871312D01*
X1380178Y868632D01*
X1381566Y866228D01*
X1383528Y864266D01*
X1385932Y862878D01*
X1388612Y862160D01*
X1391388D01*
X1394068Y862878D01*
X1396472Y864266D01*
X1398434Y866228D01*
X1399822Y868632D01*
X1400540Y871312D01*
Y874088D01*
X1399822Y876768D01*
X1398434Y879172D01*
X1396472Y881134D01*
X1394068Y882522D01*
X1391388Y883240D01*
D02*
G37*
G36*
X1081288Y855540D02*
X1081170D01*
Y846270D01*
X1090440D01*
Y846388D01*
X1089722Y849068D01*
X1088334Y851472D01*
X1086372Y853434D01*
X1083968Y854822D01*
X1081288Y855540D01*
D02*
G37*
G36*
X1078630D02*
X1078512D01*
X1075832Y854822D01*
X1073428Y853434D01*
X1071466Y851472D01*
X1070078Y849068D01*
X1069360Y846388D01*
Y846270D01*
X1078630D01*
Y855540D01*
D02*
G37*
G36*
X1219890Y855290D02*
X1199310D01*
Y834710D01*
X1219890D01*
Y855290D01*
D02*
G37*
G36*
X1185555D02*
X1182845D01*
X1180228Y854589D01*
X1177882Y853234D01*
X1175966Y851318D01*
X1174611Y848972D01*
X1173910Y846355D01*
Y843645D01*
X1174611Y841028D01*
X1175966Y838682D01*
X1177882Y836766D01*
X1180228Y835411D01*
X1182845Y834710D01*
X1185555D01*
X1188172Y835411D01*
X1190518Y836766D01*
X1192434Y838682D01*
X1193789Y841028D01*
X1194490Y843645D01*
Y846355D01*
X1193789Y848972D01*
X1192434Y851318D01*
X1190518Y853234D01*
X1188172Y854589D01*
X1185555Y855290D01*
D02*
G37*
G36*
X1160155D02*
X1157445D01*
X1154828Y854589D01*
X1152482Y853234D01*
X1150566Y851318D01*
X1149211Y848972D01*
X1148510Y846355D01*
Y843645D01*
X1149211Y841028D01*
X1150566Y838682D01*
X1152482Y836766D01*
X1154828Y835411D01*
X1157445Y834710D01*
X1160155D01*
X1162772Y835411D01*
X1165118Y836766D01*
X1167034Y838682D01*
X1168389Y841028D01*
X1169090Y843645D01*
Y846355D01*
X1168389Y848972D01*
X1167034Y851318D01*
X1165118Y853234D01*
X1162772Y854589D01*
X1160155Y855290D01*
D02*
G37*
G36*
X1132088Y855540D02*
X1129312D01*
X1126632Y854822D01*
X1124228Y853434D01*
X1122266Y851472D01*
X1120878Y849068D01*
X1120160Y846388D01*
Y843612D01*
X1120878Y840932D01*
X1122266Y838528D01*
X1124228Y836566D01*
X1126632Y835178D01*
X1129312Y834460D01*
X1132088D01*
X1134768Y835178D01*
X1137172Y836566D01*
X1139134Y838528D01*
X1140522Y840932D01*
X1141240Y843612D01*
Y846388D01*
X1140522Y849068D01*
X1139134Y851472D01*
X1137172Y853434D01*
X1134768Y854822D01*
X1132088Y855540D01*
D02*
G37*
G36*
X1090440Y843730D02*
X1081170D01*
Y834460D01*
X1081288D01*
X1083968Y835178D01*
X1086372Y836566D01*
X1088334Y838528D01*
X1089722Y840932D01*
X1090440Y843612D01*
Y843730D01*
D02*
G37*
G36*
X1078630D02*
X1069360D01*
Y843612D01*
X1070078Y840932D01*
X1071466Y838528D01*
X1073428Y836566D01*
X1075832Y835178D01*
X1078512Y834460D01*
X1078630D01*
Y843730D01*
D02*
G37*
G36*
X1055888Y855540D02*
X1053112D01*
X1050432Y854822D01*
X1048028Y853434D01*
X1046066Y851472D01*
X1044678Y849068D01*
X1043960Y846388D01*
Y843612D01*
X1044678Y840932D01*
X1046066Y838528D01*
X1048028Y836566D01*
X1050432Y835178D01*
X1053112Y834460D01*
X1055888D01*
X1058568Y835178D01*
X1060972Y836566D01*
X1062934Y838528D01*
X1064322Y840932D01*
X1065040Y843612D01*
Y846388D01*
X1064322Y849068D01*
X1062934Y851472D01*
X1060972Y853434D01*
X1058568Y854822D01*
X1055888Y855540D01*
D02*
G37*
G36*
X1030488D02*
X1027712D01*
X1025032Y854822D01*
X1022628Y853434D01*
X1020666Y851472D01*
X1019278Y849068D01*
X1018560Y846388D01*
Y843612D01*
X1019278Y840932D01*
X1020666Y838528D01*
X1022628Y836566D01*
X1025032Y835178D01*
X1027712Y834460D01*
X1030488D01*
X1033168Y835178D01*
X1035572Y836566D01*
X1037534Y838528D01*
X1038922Y840932D01*
X1039640Y843612D01*
Y846388D01*
X1038922Y849068D01*
X1037534Y851472D01*
X1035572Y853434D01*
X1033168Y854822D01*
X1030488Y855540D01*
D02*
G37*
G36*
X1005088D02*
X1002312D01*
X999632Y854822D01*
X997228Y853434D01*
X995266Y851472D01*
X993878Y849068D01*
X993160Y846388D01*
Y843612D01*
X993878Y840932D01*
X995266Y838528D01*
X997228Y836566D01*
X999632Y835178D01*
X1002312Y834460D01*
X1005088D01*
X1007768Y835178D01*
X1010172Y836566D01*
X1012134Y838528D01*
X1013522Y840932D01*
X1014240Y843612D01*
Y846388D01*
X1013522Y849068D01*
X1012134Y851472D01*
X1010172Y853434D01*
X1007768Y854822D01*
X1005088Y855540D01*
D02*
G37*
G36*
X979688D02*
X976912D01*
X974232Y854822D01*
X971828Y853434D01*
X969866Y851472D01*
X968478Y849068D01*
X967760Y846388D01*
Y843612D01*
X968478Y840932D01*
X969866Y838528D01*
X971828Y836566D01*
X974232Y835178D01*
X976912Y834460D01*
X979688D01*
X982368Y835178D01*
X984772Y836566D01*
X986734Y838528D01*
X988122Y840932D01*
X988840Y843612D01*
Y846388D01*
X988122Y849068D01*
X986734Y851472D01*
X984772Y853434D01*
X982368Y854822D01*
X979688Y855540D01*
D02*
G37*
G36*
X954288D02*
X951512D01*
X948832Y854822D01*
X946428Y853434D01*
X944466Y851472D01*
X943078Y849068D01*
X942360Y846388D01*
Y843612D01*
X943078Y840932D01*
X944466Y838528D01*
X946428Y836566D01*
X948832Y835178D01*
X951512Y834460D01*
X954288D01*
X956968Y835178D01*
X959372Y836566D01*
X961334Y838528D01*
X962722Y840932D01*
X963440Y843612D01*
Y846388D01*
X962722Y849068D01*
X961334Y851472D01*
X959372Y853434D01*
X956968Y854822D01*
X954288Y855540D01*
D02*
G37*
G36*
X928888D02*
X926112D01*
X923432Y854822D01*
X921028Y853434D01*
X919066Y851472D01*
X917678Y849068D01*
X916960Y846388D01*
Y843612D01*
X917678Y840932D01*
X919066Y838528D01*
X921028Y836566D01*
X923432Y835178D01*
X926112Y834460D01*
X928888D01*
X931568Y835178D01*
X933972Y836566D01*
X935934Y838528D01*
X937322Y840932D01*
X938040Y843612D01*
Y846388D01*
X937322Y849068D01*
X935934Y851472D01*
X933972Y853434D01*
X931568Y854822D01*
X928888Y855540D01*
D02*
G37*
G36*
X903488D02*
X900712D01*
X898032Y854822D01*
X895628Y853434D01*
X893666Y851472D01*
X892278Y849068D01*
X891560Y846388D01*
Y843612D01*
X892278Y840932D01*
X893666Y838528D01*
X895628Y836566D01*
X898032Y835178D01*
X900712Y834460D01*
X903488D01*
X906168Y835178D01*
X908572Y836566D01*
X910534Y838528D01*
X911922Y840932D01*
X912640Y843612D01*
Y846388D01*
X911922Y849068D01*
X910534Y851472D01*
X908572Y853434D01*
X906168Y854822D01*
X903488Y855540D01*
D02*
G37*
G36*
X878088D02*
X875312D01*
X872632Y854822D01*
X870228Y853434D01*
X868266Y851472D01*
X866878Y849068D01*
X866160Y846388D01*
Y843612D01*
X866878Y840932D01*
X868266Y838528D01*
X870228Y836566D01*
X872632Y835178D01*
X875312Y834460D01*
X878088D01*
X880768Y835178D01*
X883172Y836566D01*
X885134Y838528D01*
X886522Y840932D01*
X887240Y843612D01*
Y846388D01*
X886522Y849068D01*
X885134Y851472D01*
X883172Y853434D01*
X880768Y854822D01*
X878088Y855540D01*
D02*
G37*
G36*
X1488364Y824716D02*
Y821057D01*
X1492023D01*
X1491366Y822642D01*
X1489949Y824060D01*
X1488364Y824716D01*
D02*
G37*
G36*
X1485824D02*
X1484239Y824060D01*
X1482821Y822642D01*
X1482164Y821057D01*
X1485824D01*
Y824716D01*
D02*
G37*
G36*
X1492023Y818517D02*
X1488364D01*
Y814858D01*
X1489949Y815514D01*
X1491366Y816932D01*
X1492023Y818517D01*
D02*
G37*
G36*
X1485824D02*
X1482164D01*
X1482821Y816932D01*
X1484239Y815514D01*
X1485824Y814858D01*
Y818517D01*
D02*
G37*
G36*
X1395196Y799647D02*
Y795988D01*
X1398855D01*
X1398198Y797573D01*
X1396781Y798991D01*
X1395196Y799647D01*
D02*
G37*
G36*
X1392656D02*
X1391071Y798991D01*
X1389653Y797573D01*
X1388996Y795988D01*
X1392656D01*
Y799647D01*
D02*
G37*
G36*
X1398855Y793448D02*
X1395196D01*
Y789789D01*
X1396781Y790446D01*
X1398198Y791863D01*
X1398855Y793448D01*
D02*
G37*
G36*
X1392656D02*
X1388996D01*
X1389653Y791863D01*
X1391071Y790446D01*
X1392656Y789789D01*
Y793448D01*
D02*
G37*
G36*
X1116879Y793061D02*
Y789402D01*
X1120539D01*
X1119882Y790987D01*
X1118464Y792404D01*
X1116879Y793061D01*
D02*
G37*
G36*
X1114339D02*
X1112754Y792404D01*
X1111337Y790987D01*
X1110680Y789402D01*
X1114339D01*
Y793061D01*
D02*
G37*
G36*
X1120539Y786862D02*
X1116879D01*
Y783203D01*
X1118464Y783859D01*
X1119882Y785277D01*
X1120539Y786862D01*
D02*
G37*
G36*
X1114339D02*
X1110680D01*
X1111337Y785277D01*
X1112754Y783859D01*
X1114339Y783203D01*
Y786862D01*
D02*
G37*
G36*
X1452168Y837540D02*
X1447832D01*
X1443551Y836862D01*
X1439428Y835522D01*
X1435566Y833554D01*
X1432059Y831006D01*
X1428994Y827941D01*
X1426446Y824434D01*
X1424478Y820572D01*
X1423138Y816449D01*
X1422460Y812168D01*
Y807832D01*
X1423138Y803551D01*
X1424478Y799428D01*
X1426446Y795566D01*
X1428994Y792059D01*
X1432059Y788994D01*
X1435566Y786446D01*
X1439428Y784478D01*
X1443551Y783138D01*
X1447832Y782460D01*
X1452168D01*
X1456449Y783138D01*
X1460572Y784478D01*
X1464434Y786446D01*
X1467941Y788994D01*
X1471006Y792059D01*
X1473554Y795566D01*
X1475522Y799428D01*
X1476862Y803551D01*
X1477540Y807832D01*
Y812168D01*
X1476862Y816449D01*
X1475522Y820572D01*
X1473554Y824434D01*
X1471006Y827941D01*
X1467941Y831006D01*
X1464434Y833554D01*
X1460572Y835522D01*
X1456449Y836862D01*
X1452168Y837540D01*
D02*
G37*
G36*
X1523800Y785058D02*
Y781399D01*
X1527459D01*
X1526803Y782984D01*
X1525385Y784401D01*
X1523800Y785058D01*
D02*
G37*
G36*
X1521260D02*
X1519675Y784401D01*
X1518257Y782984D01*
X1517601Y781399D01*
X1521260D01*
Y785058D01*
D02*
G37*
G36*
X1527459Y778859D02*
X1523800D01*
Y775200D01*
X1525385Y775856D01*
X1526803Y777274D01*
X1527459Y778859D01*
D02*
G37*
G36*
X1521260D02*
X1517601D01*
X1518257Y777274D01*
X1519675Y775856D01*
X1521260Y775200D01*
Y778859D01*
D02*
G37*
G36*
X1271918Y765998D02*
Y762339D01*
X1275578D01*
X1274921Y763924D01*
X1273503Y765342D01*
X1271918Y765998D01*
D02*
G37*
G36*
X1269378D02*
X1267794Y765342D01*
X1266376Y763924D01*
X1265719Y762339D01*
X1269378D01*
Y765998D01*
D02*
G37*
G36*
X1428997Y765357D02*
Y761698D01*
X1432656D01*
X1431999Y763283D01*
X1430582Y764701D01*
X1428997Y765357D01*
D02*
G37*
G36*
X1426457D02*
X1424872Y764701D01*
X1423454Y763283D01*
X1422797Y761698D01*
X1426457D01*
Y765357D01*
D02*
G37*
G36*
X891566Y761664D02*
Y758005D01*
X895225D01*
X894569Y759590D01*
X893151Y761008D01*
X891566Y761664D01*
D02*
G37*
G36*
X889026D02*
X887441Y761008D01*
X886023Y759590D01*
X885367Y758005D01*
X889026D01*
Y761664D01*
D02*
G37*
G36*
X1275578Y759799D02*
X1271918D01*
Y756140D01*
X1273503Y756796D01*
X1274921Y758214D01*
X1275578Y759799D01*
D02*
G37*
G36*
X1269378D02*
X1265719D01*
X1266376Y758214D01*
X1267794Y756796D01*
X1269378Y756140D01*
Y759799D01*
D02*
G37*
G36*
X1432656Y759158D02*
X1428997D01*
Y755499D01*
X1430582Y756156D01*
X1431999Y757573D01*
X1432656Y759158D01*
D02*
G37*
G36*
X1426457D02*
X1422797D01*
X1423454Y757573D01*
X1424872Y756156D01*
X1426457Y755499D01*
Y759158D01*
D02*
G37*
G36*
X756131Y757355D02*
Y753696D01*
X759791D01*
X759134Y755281D01*
X757716Y756699D01*
X756131Y757355D01*
D02*
G37*
G36*
X753591D02*
X752006Y756699D01*
X750589Y755281D01*
X749932Y753696D01*
X753591D01*
Y757355D01*
D02*
G37*
G36*
X895225Y755465D02*
X891566D01*
Y751806D01*
X893151Y752463D01*
X894569Y753880D01*
X895225Y755465D01*
D02*
G37*
G36*
X889026D02*
X885367D01*
X886023Y753880D01*
X887441Y752463D01*
X889026Y751806D01*
Y755465D01*
D02*
G37*
G36*
X759791Y751156D02*
X756131D01*
Y747497D01*
X757716Y748153D01*
X759134Y749571D01*
X759791Y751156D01*
D02*
G37*
G36*
X753591D02*
X749932D01*
X750589Y749571D01*
X752006Y748153D01*
X753591Y747497D01*
Y751156D01*
D02*
G37*
G36*
X1325143Y786995D02*
X1323138D01*
X1321286Y786228D01*
X1319868Y784810D01*
X1319100Y782958D01*
Y780953D01*
X1319468Y780066D01*
Y746000D01*
X1319813Y744266D01*
X1320795Y742795D01*
X1324219Y739371D01*
X1324727Y738145D01*
X1326145Y736727D01*
X1327997Y735960D01*
X1330002D01*
X1331855Y736727D01*
X1333273Y738145D01*
X1334040Y739997D01*
Y742002D01*
X1333273Y743855D01*
X1331855Y745273D01*
X1330629Y745781D01*
X1328532Y747877D01*
Y779387D01*
X1329180Y780953D01*
Y782958D01*
X1328413Y784810D01*
X1326995Y786228D01*
X1325143Y786995D01*
D02*
G37*
G36*
X676102Y729653D02*
Y725994D01*
X679761D01*
X679104Y727579D01*
X677687Y728996D01*
X676102Y729653D01*
D02*
G37*
G36*
X673562D02*
X671977Y728996D01*
X670559Y727579D01*
X669902Y725994D01*
X673562D01*
Y729653D01*
D02*
G37*
G36*
X679761Y723454D02*
X676102D01*
Y719794D01*
X677687Y720451D01*
X679104Y721869D01*
X679761Y723454D01*
D02*
G37*
G36*
X673562D02*
X669902D01*
X670559Y721869D01*
X671977Y720451D01*
X673562Y719794D01*
Y723454D01*
D02*
G37*
G36*
X631730Y714740D02*
X631612D01*
X628932Y714022D01*
X626528Y712634D01*
X624566Y710672D01*
X623178Y708268D01*
X622460Y705588D01*
Y705470D01*
X631730D01*
Y714740D01*
D02*
G37*
G36*
Y702930D02*
X622460D01*
Y702812D01*
X623178Y700132D01*
X624566Y697728D01*
X626528Y695766D01*
X628932Y694378D01*
X631612Y693660D01*
X631730D01*
Y702930D01*
D02*
G37*
G36*
X1492040Y668040D02*
X1465960D01*
Y659268D01*
X1428019D01*
X1426446Y660842D01*
X1425901Y662157D01*
X1424483Y663574D01*
X1422631Y664342D01*
X1420626D01*
X1418773Y663574D01*
X1417356Y662157D01*
X1416588Y660304D01*
Y658299D01*
X1417356Y656447D01*
X1418773Y655029D01*
X1419911Y654558D01*
X1422937Y651532D01*
X1422937Y651532D01*
X1424407Y650549D01*
X1426142Y650204D01*
X1426142Y650204D01*
X1465960D01*
Y641960D01*
X1492040D01*
Y668040D01*
D02*
G37*
G36*
X1521388Y675940D02*
X1518612D01*
X1515932Y675222D01*
X1513528Y673834D01*
X1511566Y671872D01*
X1510178Y669468D01*
X1509460Y666788D01*
Y664012D01*
X1510178Y661332D01*
X1511566Y658928D01*
X1513528Y656966D01*
X1515932Y655578D01*
X1518612Y654860D01*
X1521388D01*
X1524068Y655578D01*
X1526472Y656966D01*
X1528434Y658928D01*
X1529822Y661332D01*
X1530540Y664012D01*
Y666788D01*
X1529822Y669468D01*
X1528434Y671872D01*
X1526472Y673834D01*
X1524068Y675222D01*
X1521388Y675940D01*
D02*
G37*
G36*
X1355717Y668040D02*
X1352283D01*
X1348967Y667151D01*
X1345993Y665435D01*
X1343565Y663007D01*
X1341849Y660033D01*
X1340960Y656717D01*
Y653283D01*
X1341849Y649967D01*
X1343565Y646993D01*
X1345993Y644565D01*
X1348967Y642849D01*
X1352283Y641960D01*
X1355717D01*
X1359033Y642849D01*
X1362007Y644565D01*
X1364435Y646993D01*
X1366151Y649967D01*
X1367040Y653283D01*
Y656717D01*
X1366151Y660033D01*
X1364435Y663007D01*
X1362007Y665435D01*
X1359033Y667151D01*
X1355717Y668040D01*
D02*
G37*
G36*
X1312717D02*
X1309283D01*
X1305967Y667151D01*
X1302993Y665435D01*
X1300565Y663007D01*
X1298849Y660033D01*
X1297960Y656717D01*
Y653283D01*
X1298849Y649967D01*
X1300565Y646993D01*
X1302993Y644565D01*
X1305967Y642849D01*
X1309283Y641960D01*
X1312717D01*
X1316033Y642849D01*
X1319007Y644565D01*
X1321434Y646993D01*
X1323151Y649967D01*
X1324040Y653283D01*
Y656717D01*
X1323151Y660033D01*
X1321434Y663007D01*
X1319007Y665435D01*
X1316033Y667151D01*
X1312717Y668040D01*
D02*
G37*
G36*
X840717D02*
X837283D01*
X833967Y667151D01*
X830993Y665435D01*
X828565Y663007D01*
X826849Y660033D01*
X825960Y656717D01*
Y653283D01*
X826849Y649967D01*
X828565Y646993D01*
X830993Y644565D01*
X833967Y642849D01*
X837283Y641960D01*
X840717D01*
X844033Y642849D01*
X847007Y644565D01*
X849435Y646993D01*
X851151Y649967D01*
X852040Y653283D01*
Y656717D01*
X851151Y660033D01*
X849435Y663007D01*
X847007Y665435D01*
X844033Y667151D01*
X840717Y668040D01*
D02*
G37*
G36*
X797717D02*
X794283D01*
X790967Y667151D01*
X787993Y665435D01*
X785565Y663007D01*
X783849Y660033D01*
X782960Y656717D01*
Y653283D01*
X783849Y649967D01*
X785565Y646993D01*
X787993Y644565D01*
X790967Y642849D01*
X794283Y641960D01*
X797717D01*
X801033Y642849D01*
X804007Y644565D01*
X806434Y646993D01*
X808151Y649967D01*
X809040Y653283D01*
Y656717D01*
X808151Y660033D01*
X806434Y663007D01*
X804007Y665435D01*
X801033Y667151D01*
X797717Y668040D01*
D02*
G37*
G36*
X1249238Y633617D02*
Y629958D01*
X1252897D01*
X1252240Y631543D01*
X1250823Y632961D01*
X1249238Y633617D01*
D02*
G37*
G36*
X1246698D02*
X1245113Y632961D01*
X1243695Y631543D01*
X1243038Y629958D01*
X1246698D01*
Y633617D01*
D02*
G37*
G36*
X1524000Y650596D02*
X1516000D01*
X1514293Y650372D01*
X1512702Y649713D01*
X1511336Y648664D01*
X1510287Y647298D01*
X1509628Y645707D01*
X1509404Y644000D01*
Y636000D01*
X1509628Y634293D01*
X1510287Y632702D01*
X1511336Y631336D01*
X1512702Y630287D01*
X1514293Y629628D01*
X1516000Y629404D01*
X1524000D01*
X1525707Y629628D01*
X1527298Y630287D01*
X1528664Y631336D01*
X1529713Y632702D01*
X1530372Y634293D01*
X1530596Y636000D01*
Y644000D01*
X1530372Y645707D01*
X1529713Y647298D01*
X1528664Y648664D01*
X1527298Y649713D01*
X1525707Y650372D01*
X1524000Y650596D01*
D02*
G37*
G36*
X1252897Y627418D02*
X1249238D01*
Y623759D01*
X1250823Y624415D01*
X1252240Y625833D01*
X1252897Y627418D01*
D02*
G37*
G36*
X1246698D02*
X1243038D01*
X1243695Y625833D01*
X1245113Y624415D01*
X1246698Y623759D01*
Y627418D01*
D02*
G37*
G36*
X1355717Y618040D02*
X1352283D01*
X1348967Y617151D01*
X1345993Y615435D01*
X1343565Y613007D01*
X1341849Y610033D01*
X1340960Y606717D01*
Y603283D01*
X1341849Y599967D01*
X1343565Y596993D01*
X1345993Y594565D01*
X1348967Y592849D01*
X1352283Y591960D01*
X1355717D01*
X1359033Y592849D01*
X1362007Y594565D01*
X1364435Y596993D01*
X1366151Y599967D01*
X1367040Y603283D01*
Y606717D01*
X1366151Y610033D01*
X1364435Y613007D01*
X1362007Y615435D01*
X1359033Y617151D01*
X1355717Y618040D01*
D02*
G37*
G36*
X1312717D02*
X1309283D01*
X1305967Y617151D01*
X1302993Y615435D01*
X1300565Y613007D01*
X1298849Y610033D01*
X1297960Y606717D01*
Y603283D01*
X1298849Y599967D01*
X1300565Y596993D01*
X1302993Y594565D01*
X1305967Y592849D01*
X1309283Y591960D01*
X1312717D01*
X1316033Y592849D01*
X1319007Y594565D01*
X1321434Y596993D01*
X1323151Y599967D01*
X1324040Y603283D01*
Y606717D01*
X1323151Y610033D01*
X1321434Y613007D01*
X1319007Y615435D01*
X1316033Y617151D01*
X1312717Y618040D01*
D02*
G37*
G36*
X1199040D02*
X1172960D01*
Y591960D01*
X1199040D01*
Y618040D01*
D02*
G37*
G36*
X840717D02*
X837283D01*
X833967Y617151D01*
X830993Y615435D01*
X828565Y613007D01*
X826849Y610033D01*
X825960Y606717D01*
Y603283D01*
X826849Y599967D01*
X828565Y596993D01*
X830993Y594565D01*
X833967Y592849D01*
X837283Y591960D01*
X840717D01*
X844033Y592849D01*
X847007Y594565D01*
X849435Y596993D01*
X851151Y599967D01*
X852040Y603283D01*
Y606717D01*
X851151Y610033D01*
X849435Y613007D01*
X847007Y615435D01*
X844033Y617151D01*
X840717Y618040D01*
D02*
G37*
G36*
X797717D02*
X794283D01*
X790967Y617151D01*
X787993Y615435D01*
X785565Y613007D01*
X783849Y610033D01*
X782960Y606717D01*
Y603283D01*
X783849Y599967D01*
X785565Y596993D01*
X787993Y594565D01*
X790967Y592849D01*
X794283Y591960D01*
X797717D01*
X801033Y592849D01*
X804007Y594565D01*
X806434Y596993D01*
X808151Y599967D01*
X809040Y603283D01*
Y606717D01*
X808151Y610033D01*
X806434Y613007D01*
X804007Y615435D01*
X801033Y617151D01*
X797717Y618040D01*
D02*
G37*
G36*
X1142040Y603040D02*
X1115960D01*
Y576960D01*
X1142040D01*
Y603040D01*
D02*
G37*
G36*
X1005717D02*
X1002283D01*
X998967Y602151D01*
X995993Y600435D01*
X993565Y598007D01*
X991849Y595033D01*
X990960Y591717D01*
Y588283D01*
X991849Y584967D01*
X993565Y581993D01*
X995993Y579565D01*
X998967Y577849D01*
X1002283Y576960D01*
X1005717D01*
X1009033Y577849D01*
X1012007Y579565D01*
X1014435Y581993D01*
X1016151Y584967D01*
X1017040Y588283D01*
Y591717D01*
X1016151Y595033D01*
X1014435Y598007D01*
X1012007Y600435D01*
X1009033Y602151D01*
X1005717Y603040D01*
D02*
G37*
G36*
X1451388Y563240D02*
X1448612D01*
X1445932Y562522D01*
X1443528Y561134D01*
X1441566Y559172D01*
X1440178Y556768D01*
X1439460Y554088D01*
Y551312D01*
X1440178Y548632D01*
X1441566Y546228D01*
X1443528Y544266D01*
X1445932Y542878D01*
X1448612Y542160D01*
X1451388D01*
X1454068Y542878D01*
X1456472Y544266D01*
X1458434Y546228D01*
X1459822Y548632D01*
X1460540Y551312D01*
Y554088D01*
X1459822Y556768D01*
X1458434Y559172D01*
X1456472Y561134D01*
X1454068Y562522D01*
X1451388Y563240D01*
D02*
G37*
G36*
X1411388D02*
X1408612D01*
X1405932Y562522D01*
X1403528Y561134D01*
X1401566Y559172D01*
X1400178Y556768D01*
X1399460Y554088D01*
Y551312D01*
X1400178Y548632D01*
X1401566Y546228D01*
X1403528Y544266D01*
X1405932Y542878D01*
X1408612Y542160D01*
X1411388D01*
X1414068Y542878D01*
X1416472Y544266D01*
X1418434Y546228D01*
X1419822Y548632D01*
X1420540Y551312D01*
Y554088D01*
X1419822Y556768D01*
X1418434Y559172D01*
X1416472Y561134D01*
X1414068Y562522D01*
X1411388Y563240D01*
D02*
G37*
G36*
X1371388D02*
X1368612D01*
X1365932Y562522D01*
X1363528Y561134D01*
X1361566Y559172D01*
X1360178Y556768D01*
X1359460Y554088D01*
Y551312D01*
X1360178Y548632D01*
X1361566Y546228D01*
X1363528Y544266D01*
X1365932Y542878D01*
X1368612Y542160D01*
X1371388D01*
X1374068Y542878D01*
X1376472Y544266D01*
X1378434Y546228D01*
X1379822Y548632D01*
X1380540Y551312D01*
Y554088D01*
X1379822Y556768D01*
X1378434Y559172D01*
X1376472Y561134D01*
X1374068Y562522D01*
X1371388Y563240D01*
D02*
G37*
G36*
X1261388Y562940D02*
X1258612D01*
X1255932Y562222D01*
X1253528Y560834D01*
X1251566Y558872D01*
X1250178Y556468D01*
X1249460Y553788D01*
Y551012D01*
X1250178Y548332D01*
X1251566Y545928D01*
X1253528Y543966D01*
X1255932Y542578D01*
X1258612Y541860D01*
X1261388D01*
X1264068Y542578D01*
X1266472Y543966D01*
X1268434Y545928D01*
X1269822Y548332D01*
X1270540Y551012D01*
Y553788D01*
X1269822Y556468D01*
X1268434Y558872D01*
X1266472Y560834D01*
X1264068Y562222D01*
X1261388Y562940D01*
D02*
G37*
G36*
X1298000Y562996D02*
X1290000D01*
X1288293Y562772D01*
X1286702Y562113D01*
X1285336Y561064D01*
X1284287Y559698D01*
X1283628Y558107D01*
X1283404Y556400D01*
Y548400D01*
X1283628Y546693D01*
X1284287Y545102D01*
X1285336Y543736D01*
X1286702Y542687D01*
X1288293Y542028D01*
X1290000Y541804D01*
X1298000D01*
X1299707Y542028D01*
X1301298Y542687D01*
X1302664Y543736D01*
X1303713Y545102D01*
X1304372Y546693D01*
X1304596Y548400D01*
Y556400D01*
X1304372Y558107D01*
X1303713Y559698D01*
X1302664Y561064D01*
X1301298Y562113D01*
X1299707Y562772D01*
X1298000Y562996D01*
D02*
G37*
G36*
X1482554Y543738D02*
Y540079D01*
X1486213D01*
X1485557Y541663D01*
X1484139Y543081D01*
X1482554Y543738D01*
D02*
G37*
G36*
X1480014D02*
X1478429Y543081D01*
X1477011Y541663D01*
X1476355Y540079D01*
X1480014D01*
Y543738D01*
D02*
G37*
G36*
X1232190Y555190D02*
X1214610D01*
Y537610D01*
X1232190D01*
Y555190D01*
D02*
G37*
G36*
X1173757D02*
X1171443D01*
X1169207Y554591D01*
X1167203Y553434D01*
X1165566Y551797D01*
X1164409Y549793D01*
X1163810Y547557D01*
Y545243D01*
X1164409Y543007D01*
X1165566Y541003D01*
X1167203Y539366D01*
X1169207Y538209D01*
X1171443Y537610D01*
X1173757D01*
X1175993Y538209D01*
X1177997Y539366D01*
X1179634Y541003D01*
X1180791Y543007D01*
X1181390Y545243D01*
Y547557D01*
X1180791Y549793D01*
X1179634Y551797D01*
X1177997Y553434D01*
X1175993Y554591D01*
X1173757Y555190D01*
D02*
G37*
G36*
X1486213Y537538D02*
X1482554D01*
Y533879D01*
X1484139Y534536D01*
X1485557Y535953D01*
X1486213Y537538D01*
D02*
G37*
G36*
X1480014D02*
X1476355D01*
X1477011Y535953D01*
X1478429Y534536D01*
X1480014Y533879D01*
Y537538D01*
D02*
G37*
G36*
X1414000Y537896D02*
X1411270D01*
Y528570D01*
X1420596D01*
Y531300D01*
X1420372Y533007D01*
X1419713Y534598D01*
X1418664Y535964D01*
X1417298Y537013D01*
X1415707Y537672D01*
X1414000Y537896D01*
D02*
G37*
G36*
X1374000D02*
X1371270D01*
Y528570D01*
X1380596D01*
Y531300D01*
X1380372Y533007D01*
X1379713Y534598D01*
X1378664Y535964D01*
X1377298Y537013D01*
X1375707Y537672D01*
X1374000Y537896D01*
D02*
G37*
G36*
X1408730D02*
X1406000D01*
X1404293Y537672D01*
X1402702Y537013D01*
X1401336Y535964D01*
X1400287Y534598D01*
X1399628Y533007D01*
X1399404Y531300D01*
Y528570D01*
X1408730D01*
Y537896D01*
D02*
G37*
G36*
X1368730D02*
X1366000D01*
X1364293Y537672D01*
X1362702Y537013D01*
X1361336Y535964D01*
X1360287Y534598D01*
X1359628Y533007D01*
X1359404Y531300D01*
Y528570D01*
X1368730D01*
Y537896D01*
D02*
G37*
G36*
X1454000D02*
X1451270D01*
Y528570D01*
X1460596D01*
Y531300D01*
X1460372Y533007D01*
X1459713Y534598D01*
X1458664Y535964D01*
X1457298Y537013D01*
X1455707Y537672D01*
X1454000Y537896D01*
D02*
G37*
G36*
X1448730D02*
X1446000D01*
X1444293Y537672D01*
X1442702Y537013D01*
X1441336Y535964D01*
X1440287Y534598D01*
X1439628Y533007D01*
X1439404Y531300D01*
Y528570D01*
X1448730D01*
Y537896D01*
D02*
G37*
G36*
X1295388Y537540D02*
X1295270D01*
Y528270D01*
X1304540D01*
Y528388D01*
X1303822Y531068D01*
X1302434Y533472D01*
X1300472Y535434D01*
X1298068Y536822D01*
X1295388Y537540D01*
D02*
G37*
G36*
X1292730D02*
X1292612D01*
X1289932Y536822D01*
X1287528Y535434D01*
X1285566Y533472D01*
X1284178Y531068D01*
X1283460Y528388D01*
Y528270D01*
X1292730D01*
Y537540D01*
D02*
G37*
G36*
X1005717Y553040D02*
X1002283D01*
X998967Y552151D01*
X995993Y550435D01*
X993565Y548007D01*
X991849Y545033D01*
X990960Y541717D01*
Y538283D01*
X991849Y534967D01*
X993565Y531993D01*
X995993Y529565D01*
X998967Y527849D01*
X1002283Y526960D01*
X1005717D01*
X1009033Y527849D01*
X1012007Y529565D01*
X1014435Y531993D01*
X1016151Y534967D01*
X1017040Y538283D01*
Y541717D01*
X1016151Y545033D01*
X1014435Y548007D01*
X1012007Y550435D01*
X1009033Y552151D01*
X1005717Y553040D01*
D02*
G37*
G36*
X1460596Y526030D02*
X1451270D01*
Y516704D01*
X1454000D01*
X1455707Y516928D01*
X1457298Y517587D01*
X1458664Y518636D01*
X1459713Y520002D01*
X1460372Y521593D01*
X1460596Y523300D01*
Y526030D01*
D02*
G37*
G36*
X1448730D02*
X1439404D01*
Y523300D01*
X1439628Y521593D01*
X1440287Y520002D01*
X1441336Y518636D01*
X1442702Y517587D01*
X1444293Y516928D01*
X1446000Y516704D01*
X1448730D01*
Y526030D01*
D02*
G37*
G36*
X1420596Y526030D02*
X1411270D01*
Y516704D01*
X1414000D01*
X1415707Y516928D01*
X1417298Y517587D01*
X1418664Y518636D01*
X1419713Y520002D01*
X1420372Y521593D01*
X1420596Y523300D01*
Y526030D01*
D02*
G37*
G36*
X1408730D02*
X1399404D01*
Y523300D01*
X1399628Y521593D01*
X1400287Y520002D01*
X1401336Y518636D01*
X1402702Y517587D01*
X1404293Y516928D01*
X1406000Y516704D01*
X1408730D01*
Y526030D01*
D02*
G37*
G36*
X1380596D02*
X1371270D01*
Y516704D01*
X1374000D01*
X1375707Y516928D01*
X1377298Y517587D01*
X1378664Y518636D01*
X1379713Y520002D01*
X1380372Y521593D01*
X1380596Y523300D01*
Y526030D01*
D02*
G37*
G36*
X1368730D02*
X1359404D01*
Y523300D01*
X1359628Y521593D01*
X1360287Y520002D01*
X1361336Y518636D01*
X1362702Y517587D01*
X1364293Y516928D01*
X1366000Y516704D01*
X1368730D01*
Y526030D01*
D02*
G37*
G36*
X1304540Y525730D02*
X1295270D01*
Y516460D01*
X1295388D01*
X1298068Y517178D01*
X1300472Y518566D01*
X1302434Y520528D01*
X1303822Y522932D01*
X1304540Y525612D01*
Y525730D01*
D02*
G37*
G36*
X1292730D02*
X1283460D01*
Y525612D01*
X1284178Y522932D01*
X1285566Y520528D01*
X1287528Y518566D01*
X1289932Y517178D01*
X1292612Y516460D01*
X1292730D01*
Y525730D01*
D02*
G37*
G36*
X1264000Y537596D02*
X1256000D01*
X1254293Y537372D01*
X1252702Y536713D01*
X1251336Y535664D01*
X1250287Y534298D01*
X1249628Y532707D01*
X1249404Y531000D01*
Y523000D01*
X1249628Y521293D01*
X1250287Y519702D01*
X1251336Y518336D01*
X1252702Y517287D01*
X1254293Y516628D01*
X1256000Y516404D01*
X1264000D01*
X1265707Y516628D01*
X1267298Y517287D01*
X1268664Y518336D01*
X1269713Y519702D01*
X1270372Y521293D01*
X1270596Y523000D01*
Y531000D01*
X1270372Y532707D01*
X1269713Y534298D01*
X1268664Y535664D01*
X1267298Y536713D01*
X1265707Y537372D01*
X1264000Y537596D01*
D02*
G37*
G36*
X1199157Y529790D02*
X1196843D01*
X1194607Y529191D01*
X1192603Y528034D01*
X1190966Y526397D01*
X1189809Y524393D01*
X1189210Y522157D01*
Y519843D01*
X1189809Y517607D01*
X1190966Y515603D01*
X1192603Y513966D01*
X1194607Y512809D01*
X1196843Y512210D01*
X1199157D01*
X1201393Y512809D01*
X1203397Y513966D01*
X1205034Y515603D01*
X1206191Y517607D01*
X1206790Y519843D01*
Y522157D01*
X1206191Y524393D01*
X1205034Y526397D01*
X1203397Y528034D01*
X1201393Y529191D01*
X1199157Y529790D01*
D02*
G37*
%LPD*%
D21*
X891000Y917000D02*
D03*
Y903000D02*
D03*
D62*
X713000Y681000D02*
X733000Y701000D01*
X916000D01*
X1375700Y833000D02*
X1390000Y847300D01*
X1292000Y833000D02*
X1375700D01*
X1184000Y725000D02*
X1292000Y833000D01*
X1129000Y725000D02*
X1184000D01*
X1352700Y847300D02*
X1390000D01*
X1297000Y903000D02*
X1352700Y847300D01*
X891000Y903000D02*
X1297000D01*
X741000Y961000D02*
X749700Y952300D01*
Y845000D02*
Y952300D01*
X871000Y872000D02*
Y900000D01*
X861000Y862000D02*
X871000Y872000D01*
X766700Y862000D02*
X861000D01*
X871000Y900000D02*
X874000Y903000D01*
X749700Y845000D02*
X766700Y862000D01*
X874000Y903000D02*
X891000D01*
D63*
X1426142Y654736D02*
X1478736D01*
X1421805Y658751D02*
X1422127D01*
X1426142Y654736D01*
X1478736D02*
X1479000Y655000D01*
X913350Y1108085D02*
X916381Y1111117D01*
X913028Y1108085D02*
X913350D01*
X1078772Y1074228D02*
Y1075628D01*
Y1074228D02*
X1079000Y1074000D01*
X1054400Y1100000D02*
X1078772Y1075628D01*
X684000Y951000D02*
X706000Y929000D01*
X684000Y951000D02*
Y1029000D01*
X1435000Y605000D02*
X1479000D01*
X1361000Y679000D02*
X1435000Y605000D01*
X1175000Y679000D02*
X1361000D01*
X671000Y655000D02*
X755000Y739000D01*
X843000D02*
X930000Y826000D01*
X755000Y739000D02*
X843000D01*
X646000Y615600D02*
Y815000D01*
X653000Y597200D02*
Y808000D01*
X719000Y970839D02*
Y1025161D01*
X633000Y602600D02*
X646000Y615600D01*
X633000Y577200D02*
X653000Y597200D01*
X930000Y826000D02*
X1093000D01*
X671000Y605000D02*
X695000Y581000D01*
X890000D01*
X964000Y655000D01*
X986000Y627000D02*
Y739000D01*
X927000Y798000D02*
Y811000D01*
Y798000D02*
X986000Y739000D01*
X927000Y811000D02*
X932772Y816772D01*
X964000Y605000D02*
X986000Y627000D01*
X718000Y1026161D02*
Y1036000D01*
X719000Y970839D02*
X723000Y966839D01*
X718000Y1026161D02*
X719000Y1025161D01*
X723000Y923000D02*
Y966839D01*
X731000Y919000D02*
X739000Y911000D01*
X731000Y919000D02*
Y1034000D01*
X762650Y1065650D01*
X713000Y913000D02*
X723000Y923000D01*
X696000Y971000D02*
Y1027000D01*
X716000Y929000D02*
Y951000D01*
X696000Y971000D02*
X716000Y951000D01*
X706000Y919000D02*
X716000Y929000D01*
X706000Y875000D02*
Y919000D01*
X718000Y1036000D02*
X754000Y1072000D01*
X696000Y1027000D02*
X748000Y1079000D01*
X684000Y1029000D02*
X741000Y1086000D01*
X672000Y913000D02*
X698827Y886173D01*
X672000Y913000D02*
Y1046000D01*
X738445Y1112445D01*
X932772Y816772D02*
X1018772D01*
X939000Y807000D02*
X999000D01*
X1002000Y758000D02*
Y762000D01*
X1108000Y561000D02*
Y652000D01*
X1002000Y758000D02*
X1108000Y652000D01*
X1476000Y966000D02*
X1477000Y967000D01*
X1506000D01*
X1324000Y746000D02*
Y782000D01*
Y746000D02*
X1329000Y741000D01*
X999000Y807000D02*
X1103000Y703000D01*
X1151000D01*
X994000Y798000D02*
X1100000Y692000D01*
X970322Y798000D02*
X994000D01*
X986322Y790000D02*
X1012945Y763377D01*
Y763055D02*
Y763377D01*
Y763055D02*
X1101000Y675000D01*
X1151000Y703000D02*
X1175000Y679000D01*
X1100000Y692000D02*
X1149000D01*
X1186000Y655000D01*
X986000Y790000D02*
X986322D01*
X1101000Y675000D02*
X1129000D01*
X968000Y800000D02*
X968322D01*
X970322Y798000D01*
X1108000Y561000D02*
X1129000Y540000D01*
X1093000Y826000D02*
X1102968Y835967D01*
Y842668D01*
X1105300Y845000D01*
X1018772Y816772D02*
X1019000Y817000D01*
X984000Y1034000D02*
X987000Y1031000D01*
X1177000D01*
X923000D02*
X938000Y1016000D01*
X1208000D02*
X1245000Y979000D01*
X938000Y1016000D02*
X1208000D01*
X912000Y1000000D02*
X1194000D01*
X1232000Y962000D01*
X880000Y1032000D02*
X912000Y1000000D01*
X1232000Y962000D02*
X1358200D01*
X1390000Y993800D01*
X1363000Y979000D02*
X1371000Y987000D01*
X1245000Y979000D02*
X1363000D01*
X762650Y1065650D02*
X994650D01*
X754000Y1072000D02*
X950200D01*
X1371000Y987000D02*
Y1000200D01*
X1390000Y1019200D01*
X698827Y885228D02*
Y886173D01*
Y885228D02*
X699055Y885000D01*
X738445Y1112445D02*
X834045D01*
X851600Y1130000D01*
X653000Y808000D02*
X713000Y868000D01*
Y913000D01*
X646000Y815000D02*
X706000Y875000D01*
X994650Y1065650D02*
X1029000Y1100000D01*
X950200Y1072000D02*
X978200Y1100000D01*
X913400Y1086000D02*
X927400Y1100000D01*
X741000Y1086000D02*
X913400D01*
X748000Y1079000D02*
X931800D01*
X952800Y1100000D01*
D67*
X1479000Y655000D02*
D03*
X1186000Y605000D02*
D03*
X1129000Y590000D02*
D03*
Y725000D02*
D03*
X964000Y655000D02*
D03*
X671000Y605000D02*
D03*
D68*
X1354000Y655000D02*
D03*
X1479000Y605000D02*
D03*
X1354000D02*
D03*
X1311000Y655000D02*
D03*
X1186000D02*
D03*
X1311000Y605000D02*
D03*
X1004000Y540000D02*
D03*
X1129000D02*
D03*
X1004000Y590000D02*
D03*
Y675000D02*
D03*
X1129000D02*
D03*
X1004000Y725000D02*
D03*
X839000Y605000D02*
D03*
X964000D02*
D03*
X839000Y655000D02*
D03*
X796000D02*
D03*
X671000D02*
D03*
X796000Y605000D02*
D03*
D69*
X1209600Y845000D02*
D03*
X1159400Y1100000D02*
D03*
D70*
X1184200Y845000D02*
D03*
X1158800D02*
D03*
X1210200Y1100000D02*
D03*
X1184800D02*
D03*
D71*
X750000Y1130000D02*
D03*
X775400D02*
D03*
X826200D02*
D03*
X877000D02*
D03*
X851600D02*
D03*
X800800D02*
D03*
X1130600Y1100000D02*
D03*
X1105200D02*
D03*
X1029000D02*
D03*
X1003600D02*
D03*
X978200D02*
D03*
X927400D02*
D03*
X902000D02*
D03*
X851200D02*
D03*
X800400D02*
D03*
X775000D02*
D03*
X825800D02*
D03*
X876600D02*
D03*
X952800D02*
D03*
X1054400D02*
D03*
X1079800D02*
D03*
X1390000Y872700D02*
D03*
Y960400D02*
D03*
Y935000D02*
D03*
X1130700Y845000D02*
D03*
X1105300D02*
D03*
X1029100D02*
D03*
X1003700D02*
D03*
X978300D02*
D03*
X927500D02*
D03*
X902100D02*
D03*
X851300D02*
D03*
X800500D02*
D03*
X775100D02*
D03*
X825900D02*
D03*
X876700D02*
D03*
X952900D02*
D03*
X1054500D02*
D03*
X1079900D02*
D03*
X1450000Y552700D02*
D03*
X1390000Y1019200D02*
D03*
Y1044600D02*
D03*
Y1070000D02*
D03*
X633000Y704200D02*
D03*
Y678800D02*
D03*
Y628000D02*
D03*
Y602600D02*
D03*
Y653400D02*
D03*
X1294000Y527000D02*
D03*
X1260000Y552400D02*
D03*
X1410000Y552700D02*
D03*
X1370000D02*
D03*
X1520000Y665400D02*
D03*
D72*
X902400Y1130000D02*
D03*
X749600Y1100000D02*
D03*
X749700Y845000D02*
D03*
D73*
X1390000Y847300D02*
D03*
Y909600D02*
D03*
X1450000Y527300D02*
D03*
X1390000Y993800D02*
D03*
X633000Y577200D02*
D03*
X1294000Y552400D02*
D03*
X1260000Y527000D02*
D03*
X1410000Y527300D02*
D03*
X1370000D02*
D03*
X1520000Y640000D02*
D03*
D74*
X1172600Y546400D02*
D03*
X1198000Y521000D02*
D03*
D75*
X1223400Y546400D02*
D03*
D76*
X948350Y964175D02*
D03*
Y945825D02*
D03*
X939175Y973350D02*
D03*
Y955000D02*
D03*
Y936650D02*
D03*
X930000Y964175D02*
D03*
Y945825D02*
D03*
X920825Y973350D02*
D03*
Y955000D02*
D03*
Y936650D02*
D03*
X911650Y964175D02*
D03*
Y945825D02*
D03*
D77*
X1520000Y1120000D02*
D03*
Y530000D02*
D03*
X630000D02*
D03*
Y1120000D02*
D03*
X700000Y810000D02*
D03*
Y1120000D02*
D03*
X1450000D02*
D03*
Y810000D02*
D03*
D78*
X1421628Y659302D02*
D03*
X1506046Y869615D02*
D03*
X1324140Y781955D02*
D03*
X913028Y1108085D02*
D03*
X1180219Y985462D02*
D03*
X1487094Y819787D02*
D03*
X1270648Y761069D02*
D03*
X1180864Y927260D02*
D03*
X1115609Y788132D02*
D03*
X1081135Y976509D02*
D03*
X1079288Y926029D02*
D03*
X1522530Y780129D02*
D03*
X1481284Y538809D02*
D03*
X674832Y724724D02*
D03*
X663135Y1074391D02*
D03*
X727159Y1140262D02*
D03*
X759171Y1019602D02*
D03*
X890296Y756735D02*
D03*
X754861Y752426D02*
D03*
X1247968Y628688D02*
D03*
X1482516Y1081163D02*
D03*
X1534228Y986359D02*
D03*
X1445579Y1026374D02*
D03*
X1393926Y794718D02*
D03*
X1427727Y760428D02*
D03*
X1196285Y1063190D02*
D03*
X1079000Y1074000D02*
D03*
X706000Y929000D02*
D03*
X713000Y681000D02*
D03*
X916000Y701000D02*
D03*
X719000Y1015000D02*
D03*
X741000Y961000D02*
D03*
X716000Y951000D02*
D03*
X874000Y903000D02*
D03*
X939000Y807000D02*
D03*
X1002000Y762000D02*
D03*
X1476000Y966000D02*
D03*
X1506000Y967000D02*
D03*
X1329000Y741000D02*
D03*
X986000Y790000D02*
D03*
X968000Y800000D02*
D03*
X1019000Y817000D02*
D03*
X984000Y1034000D02*
D03*
X1177000Y1031000D02*
D03*
X880000Y1032000D02*
D03*
X923000Y1031000D02*
D03*
X699055Y885000D02*
D03*
X739000Y911000D02*
D03*
M02*
