G04*
G04 #@! TF.GenerationSoftware,Altium Limited,Altium Designer,23.10.1 (27)*
G04*
G04 Layer_Color=8388736*
%FSLAX44Y44*%
%MOMM*%
G71*
G04*
G04 #@! TF.SameCoordinates,312DE8FD-0999-4980-B1F4-3DF31CF03A3F*
G04*
G04*
G04 #@! TF.FilePolarity,Negative*
G04*
G01*
G75*
%ADD15R,6.0000X2.0000*%
%ADD18R,2.0000X6.0000*%
G04:AMPARAMS|DCode=20|XSize=1.1mm|YSize=0.6mm|CornerRadius=0.051mm|HoleSize=0mm|Usage=FLASHONLY|Rotation=90.000|XOffset=0mm|YOffset=0mm|HoleType=Round|Shape=RoundedRectangle|*
%AMROUNDEDRECTD20*
21,1,1.1000,0.4980,0,0,90.0*
21,1,0.9980,0.6000,0,0,90.0*
1,1,0.1020,0.2490,0.4990*
1,1,0.1020,0.2490,-0.4990*
1,1,0.1020,-0.2490,-0.4990*
1,1,0.1020,-0.2490,0.4990*
%
%ADD20ROUNDEDRECTD20*%
%ADD24R,1.0000X1.4000*%
G04:AMPARAMS|DCode=25|XSize=1.1mm|YSize=0.6mm|CornerRadius=0.051mm|HoleSize=0mm|Usage=FLASHONLY|Rotation=180.000|XOffset=0mm|YOffset=0mm|HoleType=Round|Shape=RoundedRectangle|*
%AMROUNDEDRECTD25*
21,1,1.1000,0.4980,0,0,180.0*
21,1,0.9980,0.6000,0,0,180.0*
1,1,0.1020,-0.4990,0.2490*
1,1,0.1020,0.4990,0.2490*
1,1,0.1020,0.4990,-0.2490*
1,1,0.1020,-0.4990,-0.2490*
%
%ADD25ROUNDEDRECTD25*%
%ADD27R,1.5500X1.3000*%
%ADD36R,1.0532X1.5032*%
%ADD37R,1.2532X0.8532*%
%ADD38R,1.5032X1.0532*%
%ADD39R,1.5532X1.3032*%
%ADD40R,0.8532X1.2532*%
%ADD41R,0.8332X1.0332*%
%ADD42R,1.3032X1.5532*%
%ADD43R,3.7032X1.8032*%
%ADD44R,3.7032X1.7032*%
%ADD45R,1.6032X2.1532*%
%ADD46R,3.3032X1.6032*%
%ADD47R,1.8032X1.0032*%
%ADD48R,1.5332X1.5332*%
%ADD49R,1.1032X2.2032*%
%ADD50R,2.2032X1.1032*%
%ADD51R,2.3032X2.3032*%
%ADD52C,2.3032*%
%ADD53R,1.7532X1.7532*%
%ADD54C,1.7532*%
%ADD55C,1.8032*%
G04:AMPARAMS|DCode=56|XSize=1.8032mm|YSize=1.8032mm|CornerRadius=0.5016mm|HoleSize=0mm|Usage=FLASHONLY|Rotation=180.000|XOffset=0mm|YOffset=0mm|HoleType=Round|Shape=RoundedRectangle|*
%AMROUNDEDRECTD56*
21,1,1.8032,0.8000,0,0,180.0*
21,1,0.8000,1.8032,0,0,180.0*
1,1,1.0032,-0.4000,0.4000*
1,1,1.0032,0.4000,0.4000*
1,1,1.0032,0.4000,-0.4000*
1,1,1.0032,-0.4000,-0.4000*
%
%ADD56ROUNDEDRECTD56*%
G04:AMPARAMS|DCode=57|XSize=1.8032mm|YSize=1.8032mm|CornerRadius=0.5016mm|HoleSize=0mm|Usage=FLASHONLY|Rotation=90.000|XOffset=0mm|YOffset=0mm|HoleType=Round|Shape=RoundedRectangle|*
%AMROUNDEDRECTD57*
21,1,1.8032,0.8000,0,0,90.0*
21,1,0.8000,1.8032,0,0,90.0*
1,1,1.0032,0.4000,0.4000*
1,1,1.0032,0.4000,-0.4000*
1,1,1.0032,-0.4000,-0.4000*
1,1,1.0032,-0.4000,0.4000*
%
%ADD57ROUNDEDRECTD57*%
%ADD58C,1.4532*%
%ADD59R,1.4532X1.4532*%
%ADD60C,0.5032*%
%ADD61C,5.2032*%
D15*
X1417790Y732212D02*
D03*
Y689212D02*
D03*
D18*
X1485416Y873056D02*
D03*
X1442416D02*
D03*
D20*
X1467000Y953000D02*
D03*
X1476500D02*
D03*
X1486000D02*
D03*
Y926000D02*
D03*
X1476500D02*
D03*
X1467000D02*
D03*
D24*
X1489500Y736000D02*
D03*
X1470500D02*
D03*
X1480000Y714000D02*
D03*
D25*
X1345500Y731500D02*
D03*
Y741000D02*
D03*
Y750500D02*
D03*
X1372500D02*
D03*
Y741000D02*
D03*
Y731500D02*
D03*
D27*
X752250Y815500D02*
D03*
X831750D02*
D03*
X752250Y770500D02*
D03*
X831750D02*
D03*
D36*
X1357489Y786896D02*
D03*
X1340489D02*
D03*
X888000Y801000D02*
D03*
X905000D02*
D03*
Y780000D02*
D03*
X888000D02*
D03*
X1468500Y1005000D02*
D03*
X1485500D02*
D03*
X1468499Y985004D02*
D03*
X1485499D02*
D03*
X1507000Y737000D02*
D03*
X1524000D02*
D03*
X1295000Y716000D02*
D03*
X1312000D02*
D03*
X1308000Y630000D02*
D03*
X1325000D02*
D03*
X1355000D02*
D03*
X1338000D02*
D03*
X840000D02*
D03*
X823000D02*
D03*
X793000D02*
D03*
X810000D02*
D03*
D37*
X1334227Y678410D02*
D03*
Y695410D02*
D03*
X1392000Y751000D02*
D03*
Y768000D02*
D03*
X1351313Y695204D02*
D03*
Y678204D02*
D03*
D38*
X927000Y795000D02*
D03*
Y778000D02*
D03*
X1362000Y873000D02*
D03*
Y890000D02*
D03*
X1363000Y935500D02*
D03*
Y918500D02*
D03*
X1502000Y1022000D02*
D03*
Y1005000D02*
D03*
X1506000Y952000D02*
D03*
Y935000D02*
D03*
X1451000Y987000D02*
D03*
Y1004000D02*
D03*
X1294000Y785000D02*
D03*
Y768000D02*
D03*
Y750000D02*
D03*
Y733000D02*
D03*
X1313000Y750000D02*
D03*
Y733000D02*
D03*
X1030000Y675000D02*
D03*
Y658000D02*
D03*
X731000Y775000D02*
D03*
Y758000D02*
D03*
X690000Y867000D02*
D03*
Y850000D02*
D03*
X1030000Y523000D02*
D03*
Y540000D02*
D03*
D39*
X1445000Y934000D02*
D03*
Y948000D02*
D03*
X856000Y787000D02*
D03*
Y801000D02*
D03*
D40*
X1514261Y899719D02*
D03*
X1531261D02*
D03*
X1428000Y949600D02*
D03*
X1411000D02*
D03*
X1428000Y968600D02*
D03*
X1411000D02*
D03*
D41*
X1469850Y758000D02*
D03*
X1492150D02*
D03*
D42*
X1360000Y711000D02*
D03*
X1346000D02*
D03*
D43*
X735000Y1043500D02*
D03*
D44*
X625000Y1044500D02*
D03*
Y895000D02*
D03*
D45*
X654500Y897250D02*
D03*
D46*
X740000Y892500D02*
D03*
D47*
X756500Y906750D02*
D03*
Y917750D02*
D03*
Y928750D02*
D03*
Y939750D02*
D03*
Y950750D02*
D03*
Y961750D02*
D03*
Y972750D02*
D03*
Y983750D02*
D03*
Y994750D02*
D03*
D48*
X948350Y973350D02*
D03*
Y955000D02*
D03*
Y936650D02*
D03*
X930000Y973350D02*
D03*
Y955000D02*
D03*
Y936650D02*
D03*
X911650Y973350D02*
D03*
Y955000D02*
D03*
Y936650D02*
D03*
D49*
X855000Y1050000D02*
D03*
X867700D02*
D03*
X880400D02*
D03*
X893100D02*
D03*
X905800D02*
D03*
X918500D02*
D03*
X931200D02*
D03*
X943900D02*
D03*
X956600D02*
D03*
X969300D02*
D03*
X982000D02*
D03*
X994700D02*
D03*
X1007400D02*
D03*
X1020100D02*
D03*
Y880000D02*
D03*
X1007400D02*
D03*
X994700D02*
D03*
X982000D02*
D03*
X969300D02*
D03*
X956600D02*
D03*
X943900D02*
D03*
X931200D02*
D03*
X918500D02*
D03*
X905800D02*
D03*
X893100D02*
D03*
X880400D02*
D03*
X867700D02*
D03*
X855000D02*
D03*
D50*
X1030100Y1022150D02*
D03*
Y1009450D02*
D03*
Y996750D02*
D03*
Y984050D02*
D03*
Y971350D02*
D03*
Y958650D02*
D03*
Y945950D02*
D03*
Y933250D02*
D03*
Y920550D02*
D03*
Y907850D02*
D03*
D51*
X1479000Y655000D02*
D03*
X1186000Y605000D02*
D03*
X1129000Y590000D02*
D03*
Y725000D02*
D03*
X964000Y655000D02*
D03*
X671000Y605000D02*
D03*
D52*
X1354000Y655000D02*
D03*
X1479000Y605000D02*
D03*
X1354000D02*
D03*
X1311000Y655000D02*
D03*
X1186000D02*
D03*
X1311000Y605000D02*
D03*
X1004000Y540000D02*
D03*
X1129000D02*
D03*
X1004000Y590000D02*
D03*
Y675000D02*
D03*
X1129000D02*
D03*
X1004000Y725000D02*
D03*
X839000Y605000D02*
D03*
X964000D02*
D03*
X839000Y655000D02*
D03*
X796000D02*
D03*
X671000D02*
D03*
X796000Y605000D02*
D03*
D53*
X1209600Y845000D02*
D03*
X1159400Y1100000D02*
D03*
D54*
X1184200Y845000D02*
D03*
X1158800D02*
D03*
X1210200Y1100000D02*
D03*
X1184800D02*
D03*
D55*
X750000Y1130000D02*
D03*
X775400D02*
D03*
X826200D02*
D03*
X877000D02*
D03*
X851600D02*
D03*
X800800D02*
D03*
X1130600Y1100000D02*
D03*
X1105200D02*
D03*
X1029000D02*
D03*
X1003600D02*
D03*
X978200D02*
D03*
X927400D02*
D03*
X902000D02*
D03*
X851200D02*
D03*
X800400D02*
D03*
X775000D02*
D03*
X825800D02*
D03*
X876600D02*
D03*
X952800D02*
D03*
X1054400D02*
D03*
X1079800D02*
D03*
X1390000Y872700D02*
D03*
Y960400D02*
D03*
Y935000D02*
D03*
X1130700Y845000D02*
D03*
X1105300D02*
D03*
X1029100D02*
D03*
X1003700D02*
D03*
X978300D02*
D03*
X927500D02*
D03*
X902100D02*
D03*
X851300D02*
D03*
X800500D02*
D03*
X775100D02*
D03*
X825900D02*
D03*
X876700D02*
D03*
X952900D02*
D03*
X1054500D02*
D03*
X1079900D02*
D03*
X1450000Y552700D02*
D03*
X1390000Y1019200D02*
D03*
Y1044600D02*
D03*
Y1070000D02*
D03*
X633000Y704200D02*
D03*
Y678800D02*
D03*
Y628000D02*
D03*
Y602600D02*
D03*
Y653400D02*
D03*
X1294000Y527000D02*
D03*
X1260000Y552400D02*
D03*
X1410000Y552700D02*
D03*
X1370000D02*
D03*
X1520000Y665400D02*
D03*
D56*
X902400Y1130000D02*
D03*
X749600Y1100000D02*
D03*
X749700Y845000D02*
D03*
D57*
X1390000Y847300D02*
D03*
Y909600D02*
D03*
X1450000Y527300D02*
D03*
X1390000Y993800D02*
D03*
X633000Y577200D02*
D03*
X1294000Y552400D02*
D03*
X1260000Y527000D02*
D03*
X1410000Y527300D02*
D03*
X1370000D02*
D03*
X1520000Y640000D02*
D03*
D58*
X1172600Y546400D02*
D03*
X1198000Y521000D02*
D03*
D59*
X1223400Y546400D02*
D03*
D60*
X948350Y964175D02*
D03*
Y945825D02*
D03*
X939175Y973350D02*
D03*
Y955000D02*
D03*
Y936650D02*
D03*
X930000Y964175D02*
D03*
Y945825D02*
D03*
X920825Y973350D02*
D03*
Y955000D02*
D03*
Y936650D02*
D03*
X911650Y964175D02*
D03*
Y945825D02*
D03*
D61*
X1520000Y1120000D02*
D03*
Y530000D02*
D03*
X630000D02*
D03*
Y1120000D02*
D03*
X700000Y810000D02*
D03*
Y1120000D02*
D03*
X1450000D02*
D03*
Y810000D02*
D03*
M02*
