G04*
G04 #@! TF.GenerationSoftware,Altium Limited,Altium Designer,23.10.1 (27)*
G04*
G04 Layer_Color=65535*
%FSLAX44Y44*%
%MOMM*%
G71*
G04*
G04 #@! TF.SameCoordinates,312DE8FD-0999-4980-B1F4-3DF31CF03A3F*
G04*
G04*
G04 #@! TF.FilePolarity,Positive*
G04*
G01*
G75*
%ADD10C,0.2500*%
%ADD11C,0.2000*%
%ADD12C,0.2540*%
%ADD13C,0.1270*%
%ADD14C,0.1524*%
D10*
X1468250Y915000D02*
G03*
X1468250Y915000I-1250J0D01*
G01*
X1471100Y767650D02*
G03*
X1471100Y767650I-1250J0D01*
G01*
X1384750Y731500D02*
G03*
X1384750Y731500I-1250J0D01*
G01*
X1238250Y546400D02*
G03*
X1238250Y546400I-1250J0D01*
G01*
X739250Y815500D02*
G03*
X739250Y815500I-1250J0D01*
G01*
D11*
X856100Y865000D02*
G03*
X856100Y865000I-1000J0D01*
G01*
X1448790Y702962D02*
Y718462D01*
X1386790Y702962D02*
Y718462D01*
X1348489Y781396D02*
X1349489D01*
X1348489Y792396D02*
X1349489D01*
X1329978Y685410D02*
Y688410D01*
X1338477Y685410D02*
Y688410D01*
X1456166Y842057D02*
X1471666D01*
X1456166Y904056D02*
X1471666D01*
X932500Y786000D02*
Y787000D01*
X921500Y786000D02*
Y787000D01*
X896000Y806500D02*
X897000D01*
X896000Y795500D02*
X897000D01*
X896000Y774500D02*
X897000D01*
X896000Y785500D02*
X897000D01*
X1144200Y832300D02*
X1224200D01*
Y857700D01*
X1144200D02*
X1224200D01*
X1144200Y832300D02*
Y857700D01*
X735800Y1143450D02*
X916600D01*
Y1116550D02*
Y1143450D01*
X735800Y1116550D02*
X916600D01*
X735800D02*
Y1143450D01*
X1144800Y1086550D02*
Y1113450D01*
X735400D02*
X1144800D01*
X735400Y1086550D02*
Y1113450D01*
Y1086550D02*
X1144800D01*
X1376550Y886900D02*
X1403450D01*
X1376550Y833100D02*
Y886900D01*
Y833100D02*
X1403450D01*
Y886900D01*
X1356500Y881000D02*
Y882000D01*
X1367500Y881000D02*
Y882000D01*
X1368500Y926500D02*
Y927500D01*
X1357500Y926500D02*
Y927500D01*
X1403450Y895400D02*
Y974600D01*
X1376550Y895400D02*
X1403450D01*
X1376550D02*
Y974600D01*
X1403450D01*
X1507500Y1013000D02*
Y1014000D01*
X1496500Y1013000D02*
Y1014000D01*
X1476500Y1010500D02*
X1477500D01*
X1476500Y999500D02*
X1477500D01*
X1511500Y943000D02*
Y944000D01*
X1500500Y943000D02*
Y944000D01*
X1491750Y935250D02*
Y943750D01*
X1461250Y935250D02*
Y943750D01*
X1476499Y990504D02*
X1477499D01*
X1476499Y979504D02*
X1477499D01*
X1445500Y995000D02*
Y996000D01*
X1456500Y995000D02*
Y996000D01*
X1521261Y903969D02*
X1524261D01*
X1521261Y895469D02*
X1524261D01*
X1418000Y945350D02*
X1421000D01*
X1418000Y953850D02*
X1421000D01*
X1418000Y964350D02*
X1421000D01*
X1418000Y972850D02*
X1421000D01*
X1477000Y764750D02*
X1485000D01*
X1477000Y751250D02*
X1485000D01*
X1477000D02*
Y764750D01*
X1485000Y751250D02*
Y764750D01*
X1515000Y742500D02*
X1516000D01*
X1515000Y731500D02*
X1516000D01*
X1495200Y717400D02*
Y725250D01*
X1464800Y717400D02*
X1471250D01*
X1488750D02*
X1495200D01*
X1464800D02*
Y725250D01*
X1479250Y732600D02*
X1480750D01*
X1299500Y776000D02*
Y777000D01*
X1288500Y776000D02*
Y777000D01*
X1299500Y741000D02*
Y742000D01*
X1288500Y741000D02*
Y742000D01*
X1318500Y741000D02*
Y742000D01*
X1307500Y741000D02*
Y742000D01*
X1354750Y756250D02*
X1363250D01*
X1354750Y725750D02*
X1363250D01*
X1387750Y758000D02*
Y761000D01*
X1396250Y758000D02*
Y761000D01*
X1355564Y685204D02*
Y688204D01*
X1347063Y685204D02*
Y688204D01*
X1303000Y721500D02*
X1304000D01*
X1303000Y710500D02*
X1304000D01*
X1316000Y635500D02*
X1317000D01*
X1316000Y624500D02*
X1317000D01*
X1346000Y624500D02*
X1347000D01*
X1346000Y635500D02*
X1347000D01*
X1165000Y581700D02*
X1231000D01*
Y556650D02*
Y581700D01*
Y511800D02*
Y536150D01*
X1165000Y511800D02*
Y536150D01*
Y556650D02*
Y581700D01*
X1208250Y511800D02*
X1231000D01*
X1165000D02*
X1187750D01*
X1035500Y666000D02*
Y667000D01*
X1024500Y666000D02*
Y667000D01*
X831000Y624500D02*
X832000D01*
X831000Y635500D02*
X832000D01*
X801000Y635500D02*
X802000D01*
X801000Y624500D02*
X802000D01*
X736500Y766000D02*
Y767000D01*
X725500Y766000D02*
Y767000D01*
X763750Y823000D02*
X820250D01*
X822000Y780750D02*
Y805250D01*
X763750Y763000D02*
X820250D01*
X762000Y780750D02*
Y805250D01*
X1144900Y831550D02*
Y858450D01*
X735500D02*
X1144900D01*
X735500Y831550D02*
Y858450D01*
Y831550D02*
X1144900D01*
X695500Y858000D02*
Y859000D01*
X684500Y858000D02*
Y859000D01*
X1463450Y513100D02*
Y566900D01*
X1436550Y513100D02*
X1463450D01*
X1436550D02*
Y566900D01*
X1463450D01*
X1224800Y1087300D02*
Y1112700D01*
X1144800Y1087300D02*
X1224800D01*
X1144800D02*
Y1112700D01*
X1224800D01*
X619550Y718400D02*
X646450D01*
X619550Y563000D02*
Y718400D01*
Y563000D02*
X646450D01*
Y718400D01*
X1280550Y512800D02*
Y566600D01*
X1307450D01*
Y512800D02*
Y566600D01*
X1280550Y512800D02*
X1307450D01*
X1273450D02*
Y566600D01*
X1246550Y512800D02*
X1273450D01*
X1246550D02*
Y566600D01*
X1273450D01*
X1423450Y513100D02*
Y566900D01*
X1396550Y513100D02*
X1423450D01*
X1396550D02*
Y566900D01*
X1423450D01*
X1383450Y513100D02*
Y566900D01*
X1356550Y513100D02*
X1383450D01*
X1356550D02*
Y566900D01*
X1383450D01*
X1533450Y625800D02*
Y679600D01*
X1506550Y625800D02*
X1533450D01*
X1506550D02*
Y679600D01*
X1533450D01*
X1024500Y531000D02*
Y532000D01*
X1035500Y531000D02*
Y532000D01*
D12*
X755260Y1002450D02*
Y1040500D01*
X664940Y895500D02*
X720980D01*
X645960Y1040500D02*
X714040D01*
X605260Y895500D02*
Y1040500D01*
X1412080Y674091D02*
Y664696D01*
X1418343D01*
X1421475D02*
X1424606D01*
X1423041D01*
Y674091D01*
X1421475Y672525D01*
X1420007Y938027D02*
X1418441Y939593D01*
X1415310D01*
X1413744Y938027D01*
Y931764D01*
X1415310Y930198D01*
X1418441D01*
X1420007Y931764D01*
X1423139D02*
X1424705Y930198D01*
X1427836D01*
X1429402Y931764D01*
Y938027D01*
X1427836Y939593D01*
X1424705D01*
X1423139Y938027D01*
Y936461D01*
X1424705Y934895D01*
X1429402D01*
X1336850Y798855D02*
Y808250D01*
X1341547D01*
X1343113Y806684D01*
Y803552D01*
X1341547Y801987D01*
X1336850D01*
X1339981D02*
X1343113Y798855D01*
X1352508D02*
X1346245D01*
X1352508Y805118D01*
Y806684D01*
X1350942Y808250D01*
X1347810D01*
X1346245Y806684D01*
X1355639D02*
X1357205Y808250D01*
X1360337D01*
X1361903Y806684D01*
Y805118D01*
X1360337Y803552D01*
X1358771D01*
X1360337D01*
X1361903Y801987D01*
Y800421D01*
X1360337Y798855D01*
X1357205D01*
X1355639Y800421D01*
X1316284Y681620D02*
X1314719Y683186D01*
X1311587D01*
X1310021Y681620D01*
Y675357D01*
X1311587Y673791D01*
X1314719D01*
X1316284Y675357D01*
X1325679Y683186D02*
X1319416D01*
Y678488D01*
X1322548Y680054D01*
X1324114D01*
X1325679Y678488D01*
Y675357D01*
X1324114Y673791D01*
X1320982D01*
X1319416Y675357D01*
X781236Y746076D02*
Y755471D01*
X785934D01*
X787500Y753905D01*
Y750774D01*
X785934Y749208D01*
X781236D01*
X784368D02*
X787500Y746076D01*
X796895Y753905D02*
X795329Y755471D01*
X792197D01*
X790631Y753905D01*
Y752339D01*
X792197Y750774D01*
X795329D01*
X796895Y749208D01*
Y747642D01*
X795329Y746076D01*
X792197D01*
X790631Y747642D01*
X800026Y755471D02*
X806290D01*
X803158D01*
Y746076D01*
X957607Y1137070D02*
X959173Y1138636D01*
Y1141768D01*
X957607Y1143334D01*
X951344D01*
X949778Y1141768D01*
Y1138636D01*
X951344Y1137070D01*
X954476D01*
Y1140202D01*
X949778Y1133939D02*
X959173D01*
X949778Y1127675D01*
X959173D01*
Y1124544D02*
X949778D01*
Y1119846D01*
X951344Y1118280D01*
X957607D01*
X959173Y1119846D01*
Y1124544D01*
X1073922Y1143000D02*
X1075488Y1141434D01*
Y1138303D01*
X1073922Y1136737D01*
X1072356D01*
X1070790Y1138303D01*
Y1139868D01*
Y1138303D01*
X1069224Y1136737D01*
X1067659D01*
X1066093Y1138303D01*
Y1141434D01*
X1067659Y1143000D01*
X1075488Y1133605D02*
X1069224D01*
X1066093Y1130473D01*
X1069224Y1127342D01*
X1075488D01*
X1073922Y1124210D02*
X1075488Y1122644D01*
Y1119513D01*
X1073922Y1117947D01*
X1072356D01*
X1070790Y1119513D01*
Y1121079D01*
Y1119513D01*
X1069224Y1117947D01*
X1067659D01*
X1066093Y1119513D01*
Y1122644D01*
X1067659Y1124210D01*
X1337540Y527540D02*
X1343803D01*
X1337540Y550672D02*
X1343803D01*
X1340672Y553803D02*
Y547540D01*
X613304Y577372D02*
X614870Y578938D01*
Y582070D01*
X613304Y583636D01*
X607041D01*
X605475Y582070D01*
Y578938D01*
X607041Y577372D01*
X613304Y567977D02*
X614870Y569543D01*
Y572675D01*
X613304Y574241D01*
X611739D01*
X610173Y572675D01*
Y569543D01*
X608607Y567977D01*
X607041D01*
X605475Y569543D01*
Y572675D01*
X607041Y574241D01*
X613304Y707896D02*
X614870Y709462D01*
Y712593D01*
X613304Y714159D01*
X607041D01*
X605475Y712593D01*
Y709462D01*
X607041Y707896D01*
X610173D01*
Y711028D01*
X605475Y704764D02*
X614870D01*
X605475Y698501D01*
X614870D01*
Y695369D02*
X605475D01*
Y690672D01*
X607041Y689106D01*
X613304D01*
X614870Y690672D01*
Y695369D01*
X932237Y1125540D02*
X927540Y1130238D01*
X932237Y1134935D01*
X936935Y1130238D02*
X943198D01*
X976527Y1143334D02*
X978093Y1141768D01*
Y1138636D01*
X976527Y1137070D01*
X974961D01*
X973395Y1138636D01*
Y1140202D01*
Y1138636D01*
X971829Y1137070D01*
X970264D01*
X968698Y1138636D01*
Y1141768D01*
X970264Y1143334D01*
X978093Y1133939D02*
X971829D01*
X968698Y1130807D01*
X971829Y1127675D01*
X978093D01*
X976527Y1124544D02*
X978093Y1122978D01*
Y1119846D01*
X976527Y1118280D01*
X974961D01*
X973395Y1119846D01*
Y1121412D01*
Y1119846D01*
X971829Y1118280D01*
X970264D01*
X968698Y1119846D01*
Y1122978D01*
X970264Y1124544D01*
X995899Y1143055D02*
Y1136792D01*
Y1139924D01*
X986504D01*
X995899Y1133660D02*
X986504Y1127397D01*
X995899D02*
X986504Y1133660D01*
X1004867Y1141942D02*
X1014262D01*
Y1137245D01*
X1012696Y1135679D01*
X1009565D01*
X1007999Y1137245D01*
Y1141942D01*
Y1138811D02*
X1004867Y1135679D01*
X1014262Y1132548D02*
X1004867Y1126284D01*
X1014262D02*
X1004867Y1132548D01*
X1055264Y1142237D02*
X1045869D01*
Y1137540D01*
X1047434Y1135974D01*
X1049000D01*
X1050566Y1137540D01*
Y1142237D01*
Y1137540D01*
X1052132Y1135974D01*
X1053698D01*
X1055264Y1137540D01*
Y1142237D01*
Y1128145D02*
Y1131276D01*
X1053698Y1132842D01*
X1047434D01*
X1045869Y1131276D01*
Y1128145D01*
X1047434Y1126579D01*
X1053698D01*
X1055264Y1128145D01*
Y1123447D02*
Y1117184D01*
Y1120315D01*
X1045869D01*
X1024690Y1142618D02*
X1034085D01*
Y1137921D01*
X1032520Y1136355D01*
X1029388D01*
X1027822Y1137921D01*
Y1142618D01*
Y1139487D02*
X1024690Y1136355D01*
X1032520Y1126960D02*
X1034085Y1128526D01*
Y1131658D01*
X1032520Y1133223D01*
X1030954D01*
X1029388Y1131658D01*
Y1128526D01*
X1027822Y1126960D01*
X1026256D01*
X1024690Y1128526D01*
Y1131658D01*
X1026256Y1133223D01*
X1034085Y1123829D02*
Y1117565D01*
Y1120697D01*
X1024690D01*
X1518286Y939179D02*
Y948574D01*
X1522983D01*
X1524549Y947008D01*
Y943876D01*
X1522983Y942310D01*
X1518286D01*
X1521417D02*
X1524549Y939179D01*
X1533944D02*
X1527681D01*
X1533944Y945442D01*
Y947008D01*
X1532378Y948574D01*
X1529246D01*
X1527681Y947008D01*
X1541773Y939179D02*
Y948574D01*
X1537076Y943876D01*
X1543339D01*
X1411413Y879767D02*
Y870372D01*
X1417676D01*
X1427071D02*
X1420808D01*
X1427071Y876635D01*
Y878201D01*
X1425506Y879767D01*
X1422374D01*
X1420808Y878201D01*
X1417647Y986457D02*
X1416081Y988023D01*
X1412949D01*
X1411383Y986457D01*
Y980194D01*
X1412949Y978628D01*
X1416081D01*
X1417647Y980194D01*
X1420778Y978628D02*
X1423910D01*
X1422344D01*
Y988023D01*
X1420778Y986457D01*
X1428607D02*
X1430173Y988023D01*
X1433305D01*
X1434871Y986457D01*
Y980194D01*
X1433305Y978628D01*
X1430173D01*
X1428607Y980194D01*
Y986457D01*
X1368250Y683699D02*
X1366685Y685264D01*
X1363553D01*
X1361987Y683699D01*
Y677435D01*
X1363553Y675869D01*
X1366685D01*
X1368250Y677435D01*
X1377645Y685264D02*
X1374514Y683699D01*
X1371382Y680567D01*
Y677435D01*
X1372948Y675869D01*
X1376079D01*
X1377645Y677435D01*
Y679001D01*
X1376079Y680567D01*
X1371382D01*
X1389993Y784707D02*
X1388427Y786273D01*
X1385296D01*
X1383730Y784707D01*
Y778444D01*
X1385296Y776878D01*
X1388427D01*
X1389993Y778444D01*
X1397822Y776878D02*
Y786273D01*
X1393125Y781575D01*
X1399388D01*
X1524638Y877942D02*
X1523072Y879508D01*
X1519940D01*
X1518374Y877942D01*
Y871678D01*
X1519940Y870113D01*
X1523072D01*
X1524638Y871678D01*
X1527769Y877942D02*
X1529335Y879508D01*
X1532467D01*
X1534033Y877942D01*
Y876376D01*
X1532467Y874810D01*
X1534033Y873244D01*
Y871678D01*
X1532467Y870113D01*
X1529335D01*
X1527769Y871678D01*
Y873244D01*
X1529335Y874810D01*
X1527769Y876376D01*
Y877942D01*
X1529335Y874810D02*
X1532467D01*
X1305485Y759060D02*
Y768455D01*
X1310182D01*
X1311748Y766889D01*
Y763757D01*
X1310182Y762191D01*
X1305485D01*
X1308616D02*
X1311748Y759060D01*
X1314879Y760626D02*
X1316445Y759060D01*
X1319577D01*
X1321143Y760626D01*
Y766889D01*
X1319577Y768455D01*
X1316445D01*
X1314879Y766889D01*
Y765323D01*
X1316445Y763757D01*
X1321143D01*
X1265975Y738530D02*
Y747925D01*
X1270672D01*
X1272238Y746359D01*
Y743227D01*
X1270672Y741662D01*
X1265975D01*
X1269106D02*
X1272238Y738530D01*
X1275369Y746359D02*
X1276935Y747925D01*
X1280067D01*
X1281633Y746359D01*
Y744793D01*
X1280067Y743227D01*
X1281633Y741662D01*
Y740096D01*
X1280067Y738530D01*
X1276935D01*
X1275369Y740096D01*
Y741662D01*
X1276935Y743227D01*
X1275369Y744793D01*
Y746359D01*
X1276935Y743227D02*
X1280067D01*
X1326740Y923297D02*
Y932692D01*
X1331437D01*
X1333003Y931126D01*
Y927995D01*
X1331437Y926429D01*
X1326740D01*
X1329871D02*
X1333003Y923297D01*
X1342398D02*
X1336135D01*
X1342398Y929560D01*
Y931126D01*
X1340832Y932692D01*
X1337700D01*
X1336135Y931126D01*
X1351793Y923297D02*
X1345529D01*
X1351793Y929560D01*
Y931126D01*
X1350227Y932692D01*
X1347095D01*
X1345529Y931126D01*
X1449967Y971815D02*
Y963986D01*
X1451533Y962420D01*
X1454665D01*
X1456230Y963986D01*
Y971815D01*
X1464059Y962420D02*
Y971815D01*
X1459362Y967117D01*
X1465625D01*
X1418123Y998829D02*
Y1008224D01*
X1422820D01*
X1424386Y1006658D01*
Y1003527D01*
X1422820Y1001961D01*
X1418123D01*
X1421254D02*
X1424386Y998829D01*
X1433781D02*
X1427518D01*
X1433781Y1005092D01*
Y1006658D01*
X1432215Y1008224D01*
X1429084D01*
X1427518Y1006658D01*
X1436913Y998829D02*
X1440044D01*
X1438479D01*
Y1008224D01*
X1436913Y1006658D01*
X1493689Y981400D02*
Y990795D01*
X1498386D01*
X1499952Y989229D01*
Y986097D01*
X1498386Y984532D01*
X1493689D01*
X1496820D02*
X1499952Y981400D01*
X1509347D02*
X1503084D01*
X1509347Y987663D01*
Y989229D01*
X1507781Y990795D01*
X1504650D01*
X1503084Y989229D01*
X1512479D02*
X1514044Y990795D01*
X1517176D01*
X1518742Y989229D01*
Y982966D01*
X1517176Y981400D01*
X1514044D01*
X1512479Y982966D01*
Y989229D01*
X1463290Y1016456D02*
Y1025850D01*
X1467987D01*
X1469553Y1024285D01*
Y1021153D01*
X1467987Y1019587D01*
X1463290D01*
X1466421D02*
X1469553Y1016456D01*
X1472685D02*
X1475816D01*
X1474250D01*
Y1025850D01*
X1472685Y1024285D01*
X1480514Y1018021D02*
X1482080Y1016456D01*
X1485211D01*
X1486777Y1018021D01*
Y1024285D01*
X1485211Y1025850D01*
X1482080D01*
X1480514Y1024285D01*
Y1022719D01*
X1482080Y1021153D01*
X1486777D01*
X1493697Y1031950D02*
Y1041345D01*
X1498394D01*
X1499960Y1039779D01*
Y1036647D01*
X1498394Y1035081D01*
X1493697D01*
X1496829D02*
X1499960Y1031950D01*
X1503092D02*
X1506223D01*
X1504658D01*
Y1041345D01*
X1503092Y1039779D01*
X1510921D02*
X1512487Y1041345D01*
X1515618D01*
X1517184Y1039779D01*
Y1038213D01*
X1515618Y1036647D01*
X1517184Y1035081D01*
Y1033515D01*
X1515618Y1031950D01*
X1512487D01*
X1510921Y1033515D01*
Y1035081D01*
X1512487Y1036647D01*
X1510921Y1038213D01*
Y1039779D01*
X1512487Y1036647D02*
X1515618D01*
X1286311Y795858D02*
Y805253D01*
X1291008D01*
X1292574Y803687D01*
Y800556D01*
X1291008Y798990D01*
X1286311D01*
X1289442D02*
X1292574Y795858D01*
X1301969Y805253D02*
X1295706D01*
Y800556D01*
X1298837Y802122D01*
X1300403D01*
X1301969Y800556D01*
Y797424D01*
X1300403Y795858D01*
X1297271D01*
X1295706Y797424D01*
X1436878Y576834D02*
Y586229D01*
X1441575D01*
X1443141Y584663D01*
Y581531D01*
X1441575Y579966D01*
X1436878D01*
X1446273Y576834D02*
X1449405D01*
X1447839D01*
Y586229D01*
X1446273Y584663D01*
X1460365Y586229D02*
X1454102D01*
Y581531D01*
X1457234Y583097D01*
X1458800D01*
X1460365Y581531D01*
Y578400D01*
X1458800Y576834D01*
X1455668D01*
X1454102Y578400D01*
X1437847Y922747D02*
X1436282Y924313D01*
X1433150D01*
X1431584Y922747D01*
Y916483D01*
X1433150Y914918D01*
X1436282D01*
X1437847Y916483D01*
X1440979Y914918D02*
X1444111D01*
X1442545D01*
Y924313D01*
X1440979Y922747D01*
X1448808Y924313D02*
X1455072D01*
Y922747D01*
X1448808Y916483D01*
Y914918D01*
X1371534Y705060D02*
X1369969Y703494D01*
Y700363D01*
X1371534Y698797D01*
X1377798D01*
X1379364Y700363D01*
Y703494D01*
X1377798Y705060D01*
X1379364Y708192D02*
Y711323D01*
Y709758D01*
X1369969D01*
X1371534Y708192D01*
X1379364Y716021D02*
Y719153D01*
Y717587D01*
X1369969D01*
X1371534Y716021D01*
X1133451Y569355D02*
Y563092D01*
X1136582Y559961D01*
X1139714Y563092D01*
Y569355D01*
X1142846Y559961D02*
Y569355D01*
X1147543D01*
X1149109Y567790D01*
Y564658D01*
X1147543Y563092D01*
X1142846D01*
X1145977D02*
X1149109Y559961D01*
X1158504D02*
X1152241D01*
X1158504Y566224D01*
Y567790D01*
X1156938Y569355D01*
X1153807D01*
X1152241Y567790D01*
X1339959Y772134D02*
Y764305D01*
X1341525Y762739D01*
X1344657D01*
X1346222Y764305D01*
Y772134D01*
X1349354Y770569D02*
X1350920Y772134D01*
X1354051D01*
X1355617Y770569D01*
Y769003D01*
X1354051Y767437D01*
X1352486D01*
X1354051D01*
X1355617Y765871D01*
Y764305D01*
X1354051Y762739D01*
X1350920D01*
X1349354Y764305D01*
X779780Y1079751D02*
Y1071922D01*
X781346Y1070356D01*
X784477D01*
X786043Y1071922D01*
Y1079751D01*
X789175Y1070356D02*
X792307D01*
X790741D01*
Y1079751D01*
X789175Y1078185D01*
X740610Y798182D02*
X739044Y799748D01*
X735912D01*
X734347Y798182D01*
Y796617D01*
X735912Y795051D01*
X739044D01*
X740610Y793485D01*
Y791919D01*
X739044Y790353D01*
X735912D01*
X734347Y791919D01*
X743742Y799748D02*
Y790353D01*
X746873Y793485D01*
X750005Y790353D01*
Y799748D01*
X753137Y790353D02*
X756268D01*
X754702D01*
Y799748D01*
X753137Y798182D01*
X1293436Y693984D02*
Y703379D01*
X1298133D01*
X1299699Y701814D01*
Y698682D01*
X1298133Y697116D01*
X1293436D01*
X1296567D02*
X1299699Y693984D01*
X1302831D02*
X1305962D01*
X1304396D01*
Y703379D01*
X1302831Y701814D01*
X1310660Y703379D02*
X1316923D01*
Y701814D01*
X1310660Y695550D01*
Y693984D01*
X1325586Y877783D02*
Y887178D01*
X1330283D01*
X1331849Y885612D01*
Y882481D01*
X1330283Y880915D01*
X1325586D01*
X1328717D02*
X1331849Y877783D01*
X1334981D02*
X1338112D01*
X1336547D01*
Y887178D01*
X1334981Y885612D01*
X1349073Y887178D02*
X1345942Y885612D01*
X1342810Y882481D01*
Y879349D01*
X1344376Y877783D01*
X1347507D01*
X1349073Y879349D01*
Y880915D01*
X1347507Y882481D01*
X1342810D01*
X759702Y626843D02*
Y636238D01*
X764400D01*
X765966Y634672D01*
Y631541D01*
X764400Y629975D01*
X759702D01*
X762834D02*
X765966Y626843D01*
X769097D02*
X772229D01*
X770663D01*
Y636238D01*
X769097Y634672D01*
X783190Y636238D02*
X776926D01*
Y631541D01*
X780058Y633106D01*
X781624D01*
X783190Y631541D01*
Y628409D01*
X781624Y626843D01*
X778492D01*
X776926Y628409D01*
X851093Y625126D02*
Y634521D01*
X855790D01*
X857356Y632955D01*
Y629823D01*
X855790Y628257D01*
X851093D01*
X854224D02*
X857356Y625126D01*
X860488D02*
X863619D01*
X862054D01*
Y634521D01*
X860488Y632955D01*
X873014Y625126D02*
Y634521D01*
X868317Y629823D01*
X874580D01*
X1024890Y553466D02*
Y562861D01*
X1029587D01*
X1031153Y561295D01*
Y558163D01*
X1029587Y556598D01*
X1024890D01*
X1028022D02*
X1031153Y553466D01*
X1034285D02*
X1037417D01*
X1035851D01*
Y562861D01*
X1034285Y561295D01*
X1042114D02*
X1043680Y562861D01*
X1046812D01*
X1048377Y561295D01*
Y559729D01*
X1046812Y558163D01*
X1045246D01*
X1046812D01*
X1048377Y556598D01*
Y555032D01*
X1046812Y553466D01*
X1043680D01*
X1042114Y555032D01*
X1042237Y661834D02*
Y671229D01*
X1046935D01*
X1048501Y669663D01*
Y666532D01*
X1046935Y664966D01*
X1042237D01*
X1045369D02*
X1048501Y661834D01*
X1051633D02*
X1054764D01*
X1053198D01*
Y671229D01*
X1051633Y669663D01*
X1065725Y661834D02*
X1059462D01*
X1065725Y668098D01*
Y669663D01*
X1064159Y671229D01*
X1061028D01*
X1059462Y669663D01*
X1278539Y625036D02*
Y634431D01*
X1283236D01*
X1284802Y632865D01*
Y629733D01*
X1283236Y628167D01*
X1278539D01*
X1281671D02*
X1284802Y625036D01*
X1287934D02*
X1291066D01*
X1289500D01*
Y634431D01*
X1287934Y632865D01*
X1295763Y625036D02*
X1298895D01*
X1297329D01*
Y634431D01*
X1295763Y632865D01*
X1366064Y625617D02*
Y635012D01*
X1370762D01*
X1372328Y633446D01*
Y630314D01*
X1370762Y628748D01*
X1366064D01*
X1369196D02*
X1372328Y625617D01*
X1375459D02*
X1378591D01*
X1377025D01*
Y635012D01*
X1375459Y633446D01*
X1383288D02*
X1384854Y635012D01*
X1387986D01*
X1389552Y633446D01*
Y627183D01*
X1387986Y625617D01*
X1384854D01*
X1383288Y627183D01*
Y633446D01*
X703326Y762306D02*
Y771701D01*
X708024D01*
X709589Y770135D01*
Y767004D01*
X708024Y765438D01*
X703326D01*
X706458D02*
X709589Y762306D01*
X712721Y771701D02*
X718984D01*
Y770135D01*
X712721Y763872D01*
Y762306D01*
X663069Y854460D02*
Y863855D01*
X667766D01*
X669332Y862289D01*
Y859157D01*
X667766Y857592D01*
X663069D01*
X666200D02*
X669332Y854460D01*
X678727Y863855D02*
X675595Y862289D01*
X672464Y859157D01*
Y856026D01*
X674030Y854460D01*
X677161D01*
X678727Y856026D01*
Y857592D01*
X677161Y859157D01*
X672464D01*
X915586Y805328D02*
Y814723D01*
X920283D01*
X921849Y813157D01*
Y810026D01*
X920283Y808460D01*
X915586D01*
X918717D02*
X921849Y805328D01*
X929678D02*
Y814723D01*
X924981Y810026D01*
X931244D01*
X886100Y812196D02*
Y821591D01*
X890798D01*
X892363Y820025D01*
Y816894D01*
X890798Y815328D01*
X886100D01*
X889232D02*
X892363Y812196D01*
X895495Y820025D02*
X897061Y821591D01*
X900192D01*
X901758Y820025D01*
Y818460D01*
X900192Y816894D01*
X898627D01*
X900192D01*
X901758Y815328D01*
Y813762D01*
X900192Y812196D01*
X897061D01*
X895495Y813762D01*
X895810Y758672D02*
Y768067D01*
X900508D01*
X902074Y766501D01*
Y763370D01*
X900508Y761804D01*
X895810D01*
X898942D02*
X902074Y758672D01*
X911469D02*
X905205D01*
X911469Y764935D01*
Y766501D01*
X909903Y768067D01*
X906771D01*
X905205Y766501D01*
X1513897Y748988D02*
Y758383D01*
X1518594D01*
X1520160Y756818D01*
Y753686D01*
X1518594Y752120D01*
X1513897D01*
X1517028D02*
X1520160Y748988D01*
X1523292D02*
X1526423D01*
X1524857D01*
Y758383D01*
X1523292Y756818D01*
X1463607Y703878D02*
Y710142D01*
X1462041Y711707D01*
X1458909D01*
X1457343Y710142D01*
Y703878D01*
X1458909Y702312D01*
X1462041D01*
X1460475Y705444D02*
X1463607Y702312D01*
X1462041D02*
X1463607Y703878D01*
X1466738Y702312D02*
X1469870D01*
X1468304D01*
Y711707D01*
X1466738Y710142D01*
X1144778Y1122934D02*
Y1132329D01*
X1149475D01*
X1151041Y1130763D01*
Y1127632D01*
X1149475Y1126066D01*
X1144778D01*
X1154173Y1122934D02*
X1157305D01*
X1155739D01*
Y1132329D01*
X1154173Y1130763D01*
X1166700Y1122934D02*
Y1132329D01*
X1162002Y1127632D01*
X1168265D01*
X1148328Y864817D02*
Y874212D01*
X1153025D01*
X1154591Y872646D01*
Y869514D01*
X1153025Y867949D01*
X1148328D01*
X1157723Y864817D02*
X1160854D01*
X1159289D01*
Y874212D01*
X1157723Y872646D01*
X1165552D02*
X1167118Y874212D01*
X1170249D01*
X1171815Y872646D01*
Y871080D01*
X1170249Y869514D01*
X1168684D01*
X1170249D01*
X1171815Y867949D01*
Y866383D01*
X1170249Y864817D01*
X1167118D01*
X1165552Y866383D01*
X706495Y1081153D02*
Y1090548D01*
X711192D01*
X712758Y1088982D01*
Y1085850D01*
X711192Y1084285D01*
X706495D01*
X715890Y1081153D02*
X719022D01*
X717456D01*
Y1090548D01*
X715890Y1088982D01*
X729982Y1081153D02*
X723719D01*
X729982Y1087416D01*
Y1088982D01*
X728417Y1090548D01*
X725285D01*
X723719Y1088982D01*
X722919Y864572D02*
Y873967D01*
X727617D01*
X729182Y872401D01*
Y869269D01*
X727617Y867704D01*
X722919D01*
X732314Y864572D02*
X735446D01*
X733880D01*
Y873967D01*
X732314Y872401D01*
X740143Y864572D02*
X743275D01*
X741709D01*
Y873967D01*
X740143Y872401D01*
X654162Y1136077D02*
Y1145472D01*
X658859D01*
X660425Y1143906D01*
Y1140774D01*
X658859Y1139208D01*
X654162D01*
X663557Y1136077D02*
X666689D01*
X665123D01*
Y1145472D01*
X663557Y1143906D01*
X671386D02*
X672952Y1145472D01*
X676083D01*
X677649Y1143906D01*
Y1137643D01*
X676083Y1136077D01*
X672952D01*
X671386Y1137643D01*
Y1143906D01*
X1356421Y965712D02*
Y975107D01*
X1361119D01*
X1362685Y973541D01*
Y970410D01*
X1361119Y968844D01*
X1356421D01*
X1365816Y967278D02*
X1367382Y965712D01*
X1370514D01*
X1372080Y967278D01*
Y973541D01*
X1370514Y975107D01*
X1367382D01*
X1365816Y973541D01*
Y971976D01*
X1367382Y970410D01*
X1372080D01*
X1355066Y842728D02*
Y852123D01*
X1359763D01*
X1361329Y850557D01*
Y847425D01*
X1359763Y845860D01*
X1355066D01*
X1364460Y850557D02*
X1366026Y852123D01*
X1369158D01*
X1370724Y850557D01*
Y848991D01*
X1369158Y847425D01*
X1370724Y845860D01*
Y844294D01*
X1369158Y842728D01*
X1366026D01*
X1364460Y844294D01*
Y845860D01*
X1366026Y847425D01*
X1364460Y848991D01*
Y850557D01*
X1366026Y847425D02*
X1369158D01*
X1280922Y576580D02*
Y585975D01*
X1285620D01*
X1287185Y584409D01*
Y581278D01*
X1285620Y579712D01*
X1280922D01*
X1290317Y585975D02*
X1296580D01*
Y584409D01*
X1290317Y578146D01*
Y576580D01*
X1246886D02*
Y585975D01*
X1251583D01*
X1253149Y584409D01*
Y581278D01*
X1251583Y579712D01*
X1246886D01*
X1262544Y585975D02*
X1259413Y584409D01*
X1256281Y581278D01*
Y578146D01*
X1257847Y576580D01*
X1260978D01*
X1262544Y578146D01*
Y579712D01*
X1260978Y581278D01*
X1256281D01*
X606806Y728218D02*
Y737613D01*
X611503D01*
X613069Y736047D01*
Y732915D01*
X611503Y731350D01*
X606806D01*
X622464Y737613D02*
X616201D01*
Y732915D01*
X619333Y734481D01*
X620898D01*
X622464Y732915D01*
Y729784D01*
X620898Y728218D01*
X617767D01*
X616201Y729784D01*
X1396746Y576834D02*
Y586229D01*
X1401443D01*
X1403009Y584663D01*
Y581531D01*
X1401443Y579966D01*
X1396746D01*
X1406141Y584663D02*
X1407707Y586229D01*
X1410838D01*
X1412404Y584663D01*
Y583097D01*
X1410838Y581531D01*
X1409273D01*
X1410838D01*
X1412404Y579966D01*
Y578400D01*
X1410838Y576834D01*
X1407707D01*
X1406141Y578400D01*
X1356868Y576834D02*
Y586229D01*
X1361566D01*
X1363131Y584663D01*
Y581531D01*
X1361566Y579966D01*
X1356868D01*
X1372526Y576834D02*
X1366263D01*
X1372526Y583097D01*
Y584663D01*
X1370960Y586229D01*
X1367829D01*
X1366263Y584663D01*
X1506728Y689356D02*
Y698751D01*
X1511425D01*
X1512991Y697185D01*
Y694053D01*
X1511425Y692488D01*
X1506728D01*
X1516123Y689356D02*
X1519255D01*
X1517689D01*
Y698751D01*
X1516123Y697185D01*
X612815Y1070099D02*
X609684D01*
X611250D01*
Y1062270D01*
X609684Y1060704D01*
X608118D01*
X606552Y1062270D01*
X622210Y1060704D02*
X615947D01*
X622210Y1066967D01*
Y1068533D01*
X620644Y1070099D01*
X617513D01*
X615947Y1068533D01*
X1477098Y781431D02*
Y772036D01*
X1481796D01*
X1483362Y773602D01*
Y779865D01*
X1481796Y781431D01*
X1477098D01*
X1486493Y772036D02*
X1489625D01*
X1488059D01*
Y781431D01*
X1486493Y779865D01*
X856147Y823169D02*
X854582Y824735D01*
X851450D01*
X849884Y823169D01*
Y816906D01*
X851450Y815340D01*
X854582D01*
X856147Y816906D01*
X859279Y824735D02*
X865542D01*
Y823169D01*
X859279Y816906D01*
Y815340D01*
D13*
X780100Y1055000D02*
X845100D01*
X780100Y875000D02*
Y1055000D01*
Y875000D02*
X845100D01*
X1028600Y1055000D02*
X1035100D01*
Y1030500D02*
Y1055000D01*
Y875000D02*
Y899500D01*
X1028600Y875000D02*
X1035100D01*
D14*
X753800Y1103605D02*
X747537D01*
Y1105171D01*
X753800Y1111434D01*
Y1113000D01*
X903600D02*
X900468D01*
X902034D01*
Y1103605D01*
X903600Y1105171D01*
X1124300Y1117000D02*
X1127432D01*
X1125866D01*
Y1126395D01*
X1124300Y1124829D01*
X1138392Y1126395D02*
X1135261Y1124829D01*
X1132129Y1121697D01*
Y1118566D01*
X1133695Y1117000D01*
X1136827D01*
X1138392Y1118566D01*
Y1120132D01*
X1136827Y1121697D01*
X1132129D01*
X748400Y1117000D02*
X751532D01*
X749966D01*
Y1126395D01*
X748400Y1124829D01*
X1124400Y862000D02*
X1127532D01*
X1125966D01*
Y871395D01*
X1124400Y869829D01*
X1138492Y871395D02*
X1135361Y869829D01*
X1132229Y866697D01*
Y863566D01*
X1133795Y862000D01*
X1136927D01*
X1138492Y863566D01*
Y865132D01*
X1136927Y866697D01*
X1132229D01*
X748500Y862000D02*
X751632D01*
X750066D01*
Y871395D01*
X748500Y869829D01*
X657541Y709175D02*
X654409Y707609D01*
X651277Y704477D01*
Y701346D01*
X652843Y699780D01*
X655975D01*
X657541Y701346D01*
Y702912D01*
X655975Y704477D01*
X651277D01*
X652620Y571942D02*
X655752D01*
X654186D01*
Y581337D01*
X652620Y579771D01*
M02*
