G04*
G04 #@! TF.GenerationSoftware,Altium Limited,Altium Designer,23.10.1 (27)*
G04*
G04 Layer_Physical_Order=1*
G04 Layer_Color=255*
%FSLAX44Y44*%
%MOMM*%
G71*
G04*
G04 #@! TF.SameCoordinates,312DE8FD-0999-4980-B1F4-3DF31CF03A3F*
G04*
G04*
G04 #@! TF.FilePolarity,Positive*
G04*
G01*
G75*
%ADD15R,6.0000X2.0000*%
%ADD16R,0.8500X1.3000*%
%ADD17R,1.0500X0.6500*%
%ADD18R,2.0000X6.0000*%
%ADD19R,1.3000X0.8500*%
G04:AMPARAMS|DCode=20|XSize=1.1mm|YSize=0.6mm|CornerRadius=0.051mm|HoleSize=0mm|Usage=FLASHONLY|Rotation=90.000|XOffset=0mm|YOffset=0mm|HoleType=Round|Shape=RoundedRectangle|*
%AMROUNDEDRECTD20*
21,1,1.1000,0.4980,0,0,90.0*
21,1,0.9980,0.6000,0,0,90.0*
1,1,0.1020,0.2490,0.4990*
1,1,0.1020,0.2490,-0.4990*
1,1,0.1020,-0.2490,-0.4990*
1,1,0.1020,-0.2490,0.4990*
%
%ADD20ROUNDEDRECTD20*%
%ADD21R,1.3500X1.1000*%
%ADD22R,0.6500X1.0500*%
%ADD23R,0.6300X0.8300*%
%ADD24R,1.0000X1.4000*%
G04:AMPARAMS|DCode=25|XSize=1.1mm|YSize=0.6mm|CornerRadius=0.051mm|HoleSize=0mm|Usage=FLASHONLY|Rotation=180.000|XOffset=0mm|YOffset=0mm|HoleType=Round|Shape=RoundedRectangle|*
%AMROUNDEDRECTD25*
21,1,1.1000,0.4980,0,0,180.0*
21,1,0.9980,0.6000,0,0,180.0*
1,1,0.1020,-0.4990,0.2490*
1,1,0.1020,0.4990,0.2490*
1,1,0.1020,0.4990,-0.2490*
1,1,0.1020,-0.4990,-0.2490*
%
%ADD25ROUNDEDRECTD25*%
%ADD26R,1.1000X1.3500*%
%ADD27R,1.5500X1.3000*%
%ADD28R,3.5000X1.6000*%
%ADD29R,3.5000X1.5000*%
%ADD30R,1.4000X1.9500*%
%ADD31R,3.1000X1.4000*%
%ADD32R,1.6000X0.8000*%
%ADD33R,1.3300X1.3300*%
%ADD34R,0.9000X2.0000*%
%ADD35R,2.0000X0.9000*%
%ADD62C,0.6350*%
%ADD63C,0.3810*%
%ADD64C,0.8890*%
%ADD65C,0.5080*%
%ADD66C,1.0160*%
%ADD67R,2.1000X2.1000*%
%ADD68C,2.1000*%
%ADD69R,1.5500X1.5500*%
%ADD70C,1.5500*%
%ADD71C,1.6000*%
G04:AMPARAMS|DCode=72|XSize=1.6mm|YSize=1.6mm|CornerRadius=0.4mm|HoleSize=0mm|Usage=FLASHONLY|Rotation=180.000|XOffset=0mm|YOffset=0mm|HoleType=Round|Shape=RoundedRectangle|*
%AMROUNDEDRECTD72*
21,1,1.6000,0.8000,0,0,180.0*
21,1,0.8000,1.6000,0,0,180.0*
1,1,0.8000,-0.4000,0.4000*
1,1,0.8000,0.4000,0.4000*
1,1,0.8000,0.4000,-0.4000*
1,1,0.8000,-0.4000,-0.4000*
%
%ADD72ROUNDEDRECTD72*%
G04:AMPARAMS|DCode=73|XSize=1.6mm|YSize=1.6mm|CornerRadius=0.4mm|HoleSize=0mm|Usage=FLASHONLY|Rotation=90.000|XOffset=0mm|YOffset=0mm|HoleType=Round|Shape=RoundedRectangle|*
%AMROUNDEDRECTD73*
21,1,1.6000,0.8000,0,0,90.0*
21,1,0.8000,1.6000,0,0,90.0*
1,1,0.8000,0.4000,0.4000*
1,1,0.8000,0.4000,-0.4000*
1,1,0.8000,-0.4000,-0.4000*
1,1,0.8000,-0.4000,0.4000*
%
%ADD73ROUNDEDRECTD73*%
%ADD74C,1.2500*%
%ADD75R,1.2500X1.2500*%
%ADD76C,0.3000*%
%ADD77C,5.0000*%
%ADD78C,0.5000*%
G36*
X1246049Y1145286D02*
X1245880Y989939D01*
X1245882Y989928D01*
X1245880Y989917D01*
X1246030Y989184D01*
X1246174Y988452D01*
X1246181Y988443D01*
X1246183Y988431D01*
X1246602Y987811D01*
X1247015Y987191D01*
X1247025Y987185D01*
X1247031Y987175D01*
X1247655Y986762D01*
X1248275Y986348D01*
X1248286Y986345D01*
X1248295Y986339D01*
X1249028Y986197D01*
X1249761Y986050D01*
X1249772Y986052D01*
X1249783Y986050D01*
X1360097Y986570D01*
X1360830Y986719D01*
X1361569Y986867D01*
X1361575Y986871D01*
X1361582Y986872D01*
X1362204Y987292D01*
X1362829Y987710D01*
X1362833Y987716D01*
X1362839Y987720D01*
X1363252Y988345D01*
X1363669Y988972D01*
X1363671Y988979D01*
X1363675Y988985D01*
X1363817Y989718D01*
X1363963Y990459D01*
X1363796Y1144994D01*
X1364693Y1145893D01*
X1437358D01*
X1437663Y1144623D01*
X1435566Y1143554D01*
X1432059Y1141006D01*
X1428994Y1137941D01*
X1426446Y1134434D01*
X1424478Y1130572D01*
X1423138Y1126449D01*
X1422460Y1122168D01*
Y1117832D01*
X1423138Y1113551D01*
X1424478Y1109428D01*
X1426446Y1105566D01*
X1428994Y1102059D01*
X1432059Y1098994D01*
X1435566Y1096446D01*
X1439428Y1094478D01*
X1443551Y1093138D01*
X1447832Y1092460D01*
X1452168D01*
X1456449Y1093138D01*
X1460572Y1094478D01*
X1464434Y1096446D01*
X1467941Y1098994D01*
X1471006Y1102059D01*
X1473554Y1105566D01*
X1475522Y1109428D01*
X1476862Y1113551D01*
X1477540Y1117832D01*
Y1122168D01*
X1476862Y1126449D01*
X1475522Y1130572D01*
X1473554Y1134434D01*
X1471006Y1137941D01*
X1467941Y1141006D01*
X1464434Y1143554D01*
X1462337Y1144623D01*
X1462642Y1145893D01*
X1507358D01*
X1507663Y1144623D01*
X1505566Y1143554D01*
X1502059Y1141006D01*
X1498994Y1137941D01*
X1496446Y1134434D01*
X1494478Y1130572D01*
X1493138Y1126449D01*
X1492460Y1122168D01*
Y1117832D01*
X1493138Y1113551D01*
X1494478Y1109428D01*
X1496446Y1105566D01*
X1498994Y1102059D01*
X1502059Y1098994D01*
X1505566Y1096446D01*
X1509428Y1094478D01*
X1513551Y1093138D01*
X1517832Y1092460D01*
X1522168D01*
X1526449Y1093138D01*
X1530572Y1094478D01*
X1534434Y1096446D01*
X1537941Y1098994D01*
X1541006Y1102059D01*
X1543554Y1105566D01*
X1544889Y1108184D01*
X1546158Y1107879D01*
X1546008Y542416D01*
X1544738Y542112D01*
X1543554Y544434D01*
X1541006Y547941D01*
X1537941Y551006D01*
X1534434Y553554D01*
X1530572Y555522D01*
X1526449Y556862D01*
X1522168Y557540D01*
X1517832D01*
X1513551Y556862D01*
X1509428Y555522D01*
X1505566Y553554D01*
X1502059Y551006D01*
X1498994Y547941D01*
X1496446Y544434D01*
X1494478Y540572D01*
X1493138Y536449D01*
X1492460Y532168D01*
Y527832D01*
X1493138Y523551D01*
X1494478Y519428D01*
X1496446Y515566D01*
X1498994Y512059D01*
X1502059Y508994D01*
X1505566Y506446D01*
X1508038Y505186D01*
X1507733Y503916D01*
X642884Y504231D01*
X642580Y505501D01*
X644434Y506446D01*
X647941Y508994D01*
X651006Y512059D01*
X653554Y515566D01*
X655522Y519428D01*
X656862Y523551D01*
X657540Y527832D01*
Y532168D01*
X656862Y536449D01*
X655522Y540572D01*
X653554Y544434D01*
X651006Y547941D01*
X647941Y551006D01*
X644434Y553554D01*
X640572Y555522D01*
X636449Y556862D01*
X632168Y557540D01*
X627833D01*
X623551Y556862D01*
X619428Y555522D01*
X615566Y553554D01*
X612059Y551006D01*
X608994Y547941D01*
X606446Y544434D01*
X604996Y541590D01*
X603726Y541895D01*
X603818Y884651D01*
X604960Y884960D01*
X605088Y884960D01*
X664040D01*
Y909540D01*
X644960D01*
Y905040D01*
X605093D01*
X603823Y905362D01*
X603858Y1034055D01*
X604960Y1034460D01*
X605128Y1034460D01*
X645040D01*
Y1054540D01*
X605133D01*
X603863Y1054958D01*
X603877Y1107809D01*
X605148Y1108114D01*
X606446Y1105566D01*
X608994Y1102059D01*
X612059Y1098994D01*
X615566Y1096446D01*
X619428Y1094478D01*
X623551Y1093138D01*
X627833Y1092460D01*
X632168D01*
X636449Y1093138D01*
X640572Y1094478D01*
X644434Y1096446D01*
X647941Y1098994D01*
X651006Y1102059D01*
X653554Y1105566D01*
X655522Y1109428D01*
X656862Y1113551D01*
X657540Y1117832D01*
Y1122168D01*
X656862Y1126449D01*
X655522Y1130572D01*
X653554Y1134434D01*
X651006Y1137941D01*
X647941Y1141006D01*
X644434Y1143554D01*
X641765Y1144914D01*
X642070Y1146184D01*
X687930D01*
X688235Y1144914D01*
X685566Y1143554D01*
X682059Y1141006D01*
X678994Y1137941D01*
X676446Y1134434D01*
X674478Y1130572D01*
X673138Y1126449D01*
X672460Y1122168D01*
Y1117832D01*
X673138Y1113551D01*
X674478Y1109428D01*
X676446Y1105566D01*
X678994Y1102059D01*
X682059Y1098994D01*
X685566Y1096446D01*
X689428Y1094478D01*
X693551Y1093138D01*
X697832Y1092460D01*
X702168D01*
X706449Y1093138D01*
X710572Y1094478D01*
X714434Y1096446D01*
X717941Y1098994D01*
X721006Y1102059D01*
X723554Y1105566D01*
X725522Y1109428D01*
X726862Y1113551D01*
X727540Y1117832D01*
Y1122168D01*
X726862Y1126449D01*
X725522Y1130572D01*
X723554Y1134434D01*
X722203Y1136295D01*
X723171Y1137122D01*
X724304Y1135989D01*
X725889Y1135333D01*
Y1140262D01*
X727159D01*
Y1141532D01*
X732088D01*
X731432Y1143117D01*
X730014Y1144535D01*
X729097Y1144914D01*
X729350Y1146184D01*
X783516D01*
X784002Y1145011D01*
X778951Y1139960D01*
X776788Y1140540D01*
X774012D01*
X771332Y1139822D01*
X768928Y1138434D01*
X766966Y1136472D01*
X765578Y1134068D01*
X764860Y1131388D01*
Y1128612D01*
X765578Y1125932D01*
X766966Y1123528D01*
X768928Y1121566D01*
X771332Y1120178D01*
X774012Y1119460D01*
X776788D01*
X779468Y1120178D01*
X781872Y1121566D01*
X783834Y1123528D01*
X785222Y1125932D01*
X785940Y1128612D01*
Y1131388D01*
X785360Y1133551D01*
X791277Y1139468D01*
X793758D01*
X794092Y1138198D01*
X792366Y1136472D01*
X790978Y1134068D01*
X790260Y1131388D01*
Y1128612D01*
X790978Y1125932D01*
X792366Y1123528D01*
X794328Y1121566D01*
X796732Y1120178D01*
X799412Y1119460D01*
X802188D01*
X802379Y1119511D01*
X816653Y1105237D01*
X815978Y1104068D01*
X815260Y1101388D01*
Y1098612D01*
X815978Y1095932D01*
X817366Y1093528D01*
X819328Y1091566D01*
X821732Y1090178D01*
X824412Y1089460D01*
X827188D01*
X829351Y1090040D01*
X841685Y1077705D01*
X841199Y1076532D01*
X830277D01*
X810360Y1096449D01*
X810940Y1098612D01*
Y1101388D01*
X810222Y1104068D01*
X808834Y1106472D01*
X806872Y1108434D01*
X804468Y1109822D01*
X801788Y1110540D01*
X799012D01*
X796332Y1109822D01*
X793928Y1108434D01*
X791966Y1106472D01*
X790578Y1104068D01*
X789860Y1101388D01*
Y1098612D01*
X790578Y1095932D01*
X791966Y1093528D01*
X793928Y1091566D01*
X796332Y1090178D01*
X799012Y1089460D01*
X801788D01*
X803951Y1090040D01*
X823285Y1070705D01*
X822799Y1069532D01*
X811877D01*
X784960Y1096449D01*
X785540Y1098612D01*
Y1101388D01*
X784822Y1104068D01*
X783434Y1106472D01*
X781472Y1108434D01*
X779068Y1109822D01*
X776388Y1110540D01*
X773612D01*
X770932Y1109822D01*
X768528Y1108434D01*
X766566Y1106472D01*
X765178Y1104068D01*
X764460Y1101388D01*
Y1098612D01*
X765040Y1096449D01*
X759664Y1091073D01*
X758707Y1091912D01*
X759313Y1092702D01*
X759972Y1094293D01*
X760196Y1096000D01*
Y1098730D01*
X750870D01*
Y1089404D01*
X753600D01*
X755307Y1089628D01*
X756898Y1090287D01*
X757688Y1090893D01*
X758527Y1089936D01*
X745956Y1077366D01*
X728834D01*
X728834Y1077366D01*
X727099Y1077021D01*
X725629Y1076038D01*
X725629Y1076038D01*
X698795Y1049205D01*
X697813Y1047734D01*
X697468Y1046000D01*
Y1020000D01*
X697813Y1018266D01*
X698795Y1016795D01*
X731591Y984000D01*
X670795Y923205D01*
X669813Y921734D01*
X669468Y920000D01*
Y885877D01*
X608795Y825205D01*
X607813Y823734D01*
X607468Y822000D01*
Y649000D01*
X607813Y647266D01*
X608795Y645795D01*
X623040Y631551D01*
X622460Y629388D01*
Y626612D01*
X623178Y623932D01*
X624566Y621528D01*
X626528Y619566D01*
X628932Y618178D01*
X631612Y617460D01*
X634388D01*
X637068Y618178D01*
X639472Y619566D01*
X641434Y621528D01*
X642822Y623932D01*
X643540Y626612D01*
Y629388D01*
X642822Y632068D01*
X641434Y634472D01*
X639472Y636434D01*
X637068Y637822D01*
X634388Y638540D01*
X631612D01*
X629449Y637960D01*
X616532Y650877D01*
Y661663D01*
X617802Y662189D01*
X623040Y656951D01*
X622460Y654788D01*
Y652012D01*
X623178Y649332D01*
X624566Y646928D01*
X626528Y644966D01*
X628932Y643578D01*
X631612Y642860D01*
X634388D01*
X637068Y643578D01*
X639472Y644966D01*
X641434Y646928D01*
X642822Y649332D01*
X643540Y652012D01*
Y654788D01*
X642822Y657468D01*
X641434Y659872D01*
X639472Y661834D01*
X637068Y663222D01*
X634388Y663940D01*
X631612D01*
X629449Y663360D01*
X625087Y667722D01*
Y670148D01*
X626260Y670634D01*
X626528Y670366D01*
X628932Y668978D01*
X631612Y668260D01*
X634388D01*
X637068Y668978D01*
X639472Y670366D01*
X641434Y672328D01*
X641806Y672973D01*
X710478D01*
X712708Y673417D01*
X714598Y674680D01*
X715861Y676570D01*
X715902Y676774D01*
X717273Y678145D01*
X718040Y679997D01*
Y682002D01*
X717273Y683855D01*
X715855Y685273D01*
X714003Y686040D01*
X711998D01*
X710145Y685273D01*
X709499Y684627D01*
X641806D01*
X641434Y685272D01*
X639472Y687234D01*
X637068Y688622D01*
X634388Y689340D01*
X631612D01*
X628932Y688622D01*
X626528Y687234D01*
X626260Y686966D01*
X625087Y687452D01*
Y695548D01*
X626260Y696034D01*
X626528Y695766D01*
X628932Y694378D01*
X631612Y693660D01*
X631730D01*
Y704200D01*
Y714740D01*
X631612D01*
X628932Y714022D01*
X626528Y712634D01*
X626260Y712366D01*
X625087Y712852D01*
Y814678D01*
X679787Y869377D01*
X680960Y868891D01*
Y860210D01*
X699040D01*
Y873790D01*
X694532D01*
Y880599D01*
X695802Y881125D01*
X696200Y880727D01*
X697426Y880219D01*
X714798Y862848D01*
X716268Y861865D01*
X718003Y861520D01*
X752170D01*
X758627Y855064D01*
X757788Y854107D01*
X756998Y854713D01*
X755407Y855372D01*
X753700Y855596D01*
X745700D01*
X743993Y855372D01*
X742402Y854713D01*
X741036Y853664D01*
X739987Y852298D01*
X739328Y850707D01*
X739174Y849532D01*
X699127D01*
X699040Y849619D01*
Y856790D01*
X680960D01*
Y843210D01*
X692631D01*
X694045Y841795D01*
X695516Y840813D01*
X697250Y840468D01*
X697250Y840468D01*
X737099D01*
X737585Y839295D01*
X731795Y833505D01*
X730813Y832034D01*
X730468Y830300D01*
Y781790D01*
X721960D01*
Y768210D01*
X740040D01*
Y781790D01*
X739532D01*
Y828423D01*
X745535Y834425D01*
X745700Y834404D01*
X753700D01*
X755407Y834628D01*
X756998Y835287D01*
X758364Y836336D01*
X759413Y837702D01*
X760072Y839293D01*
X760296Y841000D01*
Y849000D01*
X760072Y850707D01*
X759413Y852298D01*
X758807Y853088D01*
X759764Y853927D01*
X765140Y848551D01*
X764560Y846388D01*
Y843612D01*
X765278Y840932D01*
X766666Y838528D01*
X768468Y836726D01*
Y791877D01*
X756131Y779540D01*
X741960D01*
Y767869D01*
X738968Y764877D01*
X733345D01*
X732907Y764790D01*
X721960D01*
Y751210D01*
X740040D01*
Y755813D01*
X740845D01*
X742579Y756158D01*
X744050Y757140D01*
X748369Y761460D01*
X762540D01*
Y773131D01*
X776205Y786795D01*
X777187Y788266D01*
X777532Y790000D01*
Y834740D01*
X779168Y835178D01*
X781572Y836566D01*
X783534Y838528D01*
X784922Y840932D01*
X785640Y843612D01*
Y846388D01*
X785060Y848551D01*
X789977Y853468D01*
X792266D01*
X792792Y852198D01*
X792066Y851472D01*
X790678Y849068D01*
X789960Y846388D01*
Y843612D01*
X790678Y840932D01*
X792066Y838528D01*
X794028Y836566D01*
X796432Y835178D01*
X799112Y834460D01*
X801888D01*
X804568Y835178D01*
X806972Y836566D01*
X808934Y838528D01*
X810322Y840932D01*
X811040Y843612D01*
Y846388D01*
X810322Y849068D01*
X808934Y851472D01*
X808208Y852198D01*
X808734Y853468D01*
X817666D01*
X818192Y852198D01*
X817466Y851472D01*
X816078Y849068D01*
X815360Y846388D01*
Y843612D01*
X816078Y840932D01*
X817466Y838528D01*
X819428Y836566D01*
X821832Y835178D01*
X824512Y834460D01*
X827288D01*
X829968Y835178D01*
X832372Y836566D01*
X834334Y838528D01*
X835722Y840932D01*
X836440Y843612D01*
Y846388D01*
X835722Y849068D01*
X834334Y851472D01*
X833608Y852198D01*
X834134Y853468D01*
X843066D01*
X843592Y852198D01*
X842866Y851472D01*
X841478Y849068D01*
X840760Y846388D01*
Y843612D01*
X841478Y840932D01*
X842866Y838528D01*
X844828Y836566D01*
X847232Y835178D01*
X849912Y834460D01*
X852688D01*
X855368Y835178D01*
X857772Y836566D01*
X859734Y838528D01*
X861122Y840932D01*
X861840Y843612D01*
Y846388D01*
X861122Y849068D01*
X859734Y851472D01*
X859008Y852198D01*
X859534Y853468D01*
X868466D01*
X868992Y852198D01*
X868266Y851472D01*
X866878Y849068D01*
X866160Y846388D01*
Y843612D01*
X866878Y840932D01*
X868266Y838528D01*
X870228Y836566D01*
X872632Y835178D01*
X875312Y834460D01*
X878088D01*
X880251Y835040D01*
X899168Y816123D01*
Y810040D01*
X898210D01*
Y791960D01*
X911790D01*
Y796468D01*
X916873D01*
X917960Y795381D01*
Y788210D01*
X936040D01*
Y801396D01*
X937083Y802339D01*
X937998Y801960D01*
X940003D01*
X941855Y802727D01*
X943273Y804145D01*
X944040Y805997D01*
Y808002D01*
X943273Y809855D01*
X941855Y811273D01*
X940629Y811781D01*
X932032Y820377D01*
Y835446D01*
X933972Y836566D01*
X935934Y838528D01*
X937322Y840932D01*
X938040Y843612D01*
Y846388D01*
X937460Y848551D01*
X944377Y855468D01*
X947411D01*
X947751Y854198D01*
X946428Y853434D01*
X944466Y851472D01*
X943078Y849068D01*
X942360Y846388D01*
Y843612D01*
X943078Y840932D01*
X944466Y838528D01*
X946428Y836566D01*
X948368Y835446D01*
Y815100D01*
X948713Y813366D01*
X949695Y811895D01*
X963219Y798371D01*
X963727Y797145D01*
X965145Y795727D01*
X966998Y794960D01*
X969003D01*
X970855Y795727D01*
X972273Y797145D01*
X972278Y797157D01*
X972564Y797243D01*
X974035Y796359D01*
X974113Y795966D01*
X975095Y794495D01*
X981219Y788371D01*
X981727Y787145D01*
X983145Y785727D01*
X984997Y784960D01*
X987002D01*
X988855Y785727D01*
X990273Y787145D01*
X991040Y788997D01*
Y791003D01*
X990273Y792855D01*
X988855Y794273D01*
X987629Y794781D01*
X982832Y799577D01*
Y835446D01*
X984772Y836566D01*
X986734Y838528D01*
X988122Y840932D01*
X988840Y843612D01*
Y846388D01*
X988122Y849068D01*
X986734Y851472D01*
X985287Y852919D01*
X986187Y854266D01*
X986532Y856000D01*
X986532Y856000D01*
Y867460D01*
X991782D01*
Y864285D01*
X992127Y862551D01*
X993110Y861080D01*
X997352Y856838D01*
Y853506D01*
X997228Y853434D01*
X995266Y851472D01*
X993878Y849068D01*
X993160Y846388D01*
Y843612D01*
X993878Y840932D01*
X995266Y838528D01*
X997228Y836566D01*
X999168Y835446D01*
Y790997D01*
X998795Y790625D01*
X997813Y789154D01*
X997468Y787420D01*
Y764229D01*
X996960Y763002D01*
Y760997D01*
X997727Y759145D01*
X999145Y757727D01*
X1000997Y756960D01*
X1003002D01*
X1004855Y757727D01*
X1006273Y759145D01*
X1007040Y760997D01*
Y763002D01*
X1006532Y764229D01*
Y785543D01*
X1006905Y785915D01*
X1006905Y785915D01*
X1007887Y787386D01*
X1008232Y789120D01*
Y835446D01*
X1010172Y836566D01*
X1012134Y838528D01*
X1013522Y840932D01*
X1014240Y843612D01*
Y846388D01*
X1013522Y849068D01*
X1012134Y851472D01*
X1010172Y853434D01*
X1007768Y854822D01*
X1006416Y855184D01*
Y858715D01*
X1006416Y858715D01*
X1006227Y859668D01*
X1007397Y860293D01*
X1019140Y848551D01*
X1018560Y846388D01*
Y843612D01*
X1019278Y840932D01*
X1020666Y838528D01*
X1022628Y836566D01*
X1024568Y835446D01*
Y828977D01*
X1017371Y821781D01*
X1016145Y821273D01*
X1014727Y819855D01*
X1013960Y818002D01*
Y815997D01*
X1014727Y814145D01*
X1016145Y812727D01*
X1017998Y811960D01*
X1020003D01*
X1021855Y812727D01*
X1023273Y814145D01*
X1023781Y815371D01*
X1032305Y823895D01*
X1032305Y823895D01*
X1033287Y825366D01*
X1033632Y827100D01*
X1033632Y827100D01*
Y835446D01*
X1035572Y836566D01*
X1037534Y838528D01*
X1038922Y840932D01*
X1039640Y843612D01*
Y846388D01*
X1038922Y849068D01*
X1037534Y851472D01*
X1035572Y853434D01*
X1033168Y854822D01*
X1030488Y855540D01*
X1027712D01*
X1025549Y854960D01*
X1014347Y866162D01*
Y867460D01*
X1027140D01*
Y892540D01*
X873527D01*
Y894286D01*
X878120Y898880D01*
X879383Y900770D01*
X879827Y903000D01*
X879383Y905230D01*
X878120Y907120D01*
X876230Y908383D01*
X874000Y908827D01*
X871770Y908383D01*
X869880Y907120D01*
X863580Y900820D01*
X862317Y898930D01*
X861873Y896700D01*
Y892540D01*
X856270D01*
Y880000D01*
Y867460D01*
X873391D01*
X873877Y866287D01*
X870123Y862532D01*
X788100D01*
X786366Y862187D01*
X784895Y861205D01*
X778651Y854960D01*
X776488Y855540D01*
X773712D01*
X771549Y854960D01*
X757252Y869257D01*
X755782Y870239D01*
X754048Y870584D01*
X719880D01*
X703836Y886629D01*
X703328Y887855D01*
X701910Y889273D01*
X700058Y890040D01*
X698053D01*
X696200Y889273D01*
X695802Y888875D01*
X694532Y889401D01*
Y898123D01*
X709205Y912795D01*
X709205Y912795D01*
X710187Y914266D01*
X710532Y916000D01*
Y924343D01*
X745960D01*
Y912245D01*
X744690Y911719D01*
X743781Y912629D01*
X743273Y913855D01*
X741855Y915273D01*
X740003Y916040D01*
X737998D01*
X736145Y915273D01*
X734727Y913855D01*
X733960Y912002D01*
Y909997D01*
X734727Y908145D01*
X736145Y906727D01*
X737371Y906219D01*
X740045Y903545D01*
X740045Y903545D01*
X740398Y903310D01*
X740012Y902040D01*
X721960D01*
Y882960D01*
X758040D01*
Y900210D01*
X767040D01*
Y911210D01*
Y922210D01*
Y933210D01*
Y938480D01*
X745960D01*
Y933407D01*
X708531D01*
X707002Y934040D01*
X704997D01*
X703771Y933532D01*
X696000D01*
X695672Y933467D01*
X695047Y934637D01*
X709826Y949417D01*
X711324Y949119D01*
X711727Y948145D01*
X713145Y946727D01*
X714997Y945960D01*
X717002D01*
X717927Y946343D01*
X745960D01*
Y941020D01*
X767040D01*
Y944210D01*
Y955210D01*
Y966210D01*
Y971480D01*
X745960D01*
Y967055D01*
X741228D01*
X738998Y966611D01*
X737107Y965348D01*
X735844Y963458D01*
X735401Y961228D01*
X735844Y958998D01*
X737107Y957107D01*
X737751Y956677D01*
X737366Y955407D01*
X718531D01*
X717881Y955676D01*
X717583Y957174D01*
X737532Y977123D01*
X745960D01*
Y974020D01*
X767040D01*
Y977210D01*
Y988210D01*
Y1001290D01*
X745960D01*
Y999282D01*
X741127D01*
X723781Y1016629D01*
X723273Y1017855D01*
X721855Y1019273D01*
X720003Y1020040D01*
X717998D01*
X716145Y1019273D01*
X714727Y1017855D01*
X714031Y1016174D01*
X712787Y1015623D01*
X706532Y1021877D01*
Y1044123D01*
X713787Y1051377D01*
X714960Y1050891D01*
Y1032960D01*
X755040D01*
Y1054040D01*
X718109D01*
X717623Y1055213D01*
X730711Y1068302D01*
X747834D01*
X749568Y1068647D01*
X751038Y1069629D01*
X771449Y1090040D01*
X773612Y1089460D01*
X776388D01*
X778551Y1090040D01*
X806795Y1061795D01*
X808266Y1060813D01*
X810000Y1060468D01*
X810000Y1060468D01*
X847960D01*
Y1051270D01*
X855000D01*
Y1050000D01*
X856270D01*
Y1037460D01*
X875868D01*
Y1034995D01*
X875727Y1034855D01*
X874960Y1033002D01*
Y1030997D01*
X875727Y1029145D01*
X877145Y1027727D01*
X878997Y1026960D01*
X881003D01*
X882855Y1027727D01*
X884273Y1029145D01*
X885040Y1030997D01*
Y1033002D01*
X884932Y1033263D01*
Y1037460D01*
X913968D01*
Y1035500D01*
X914313Y1033766D01*
X915295Y1032295D01*
X918219Y1029371D01*
X918727Y1028145D01*
X920145Y1026727D01*
X921998Y1025960D01*
X924003D01*
X925855Y1026727D01*
X927273Y1028145D01*
X928040Y1029997D01*
Y1032002D01*
X927273Y1033855D01*
X925855Y1035273D01*
X924629Y1035781D01*
X924219Y1036190D01*
X924745Y1037460D01*
X979240D01*
Y1035679D01*
X978960Y1035003D01*
Y1032998D01*
X979727Y1031145D01*
X981145Y1029727D01*
X982998Y1028960D01*
X985003D01*
X986855Y1029727D01*
X988273Y1031145D01*
X989040Y1032998D01*
Y1035003D01*
X988548Y1036190D01*
X989282Y1037460D01*
X1027140D01*
Y1062540D01*
X1026282D01*
Y1067873D01*
X1032877Y1074468D01*
X1058800D01*
X1060534Y1074813D01*
X1062005Y1075795D01*
X1076249Y1090040D01*
X1078412Y1089460D01*
X1081188D01*
X1083868Y1090178D01*
X1086272Y1091566D01*
X1086540Y1091834D01*
X1087713Y1091348D01*
Y1085755D01*
X1088058Y1084021D01*
X1089040Y1082550D01*
X1179916Y991675D01*
X1179430Y990502D01*
X1179216D01*
X1177364Y989734D01*
X1175946Y988317D01*
X1175290Y986732D01*
X1180219D01*
Y985462D01*
X1181489D01*
Y980533D01*
X1183074Y981189D01*
X1184492Y982607D01*
X1185259Y984459D01*
Y984672D01*
X1186432Y985158D01*
X1227795Y943795D01*
X1227795Y943795D01*
X1229266Y942813D01*
X1231000Y942468D01*
X1231000Y942468D01*
X1304123D01*
X1331295Y915295D01*
X1331295Y915295D01*
X1332766Y914313D01*
X1334500Y913968D01*
X1353960D01*
Y911710D01*
X1358468D01*
Y909000D01*
X1358813Y907266D01*
X1359795Y905795D01*
X1367627Y897963D01*
X1367141Y896790D01*
X1363270D01*
Y891270D01*
X1371040D01*
Y892891D01*
X1372213Y893377D01*
X1378795Y886795D01*
X1380266Y885813D01*
X1382000Y885468D01*
X1399123D01*
X1404468Y880123D01*
Y868177D01*
X1394165Y857875D01*
X1394000Y857896D01*
X1386000D01*
X1384293Y857672D01*
X1382702Y857013D01*
X1381336Y855964D01*
X1380287Y854598D01*
X1379628Y853007D01*
X1379404Y851300D01*
Y843300D01*
X1379628Y841593D01*
X1380287Y840002D01*
X1381336Y838636D01*
X1382702Y837587D01*
X1384293Y836928D01*
X1386000Y836704D01*
X1394000D01*
X1395707Y836928D01*
X1397298Y837587D01*
X1398664Y838636D01*
X1399713Y840002D01*
X1400372Y841593D01*
X1400596Y843300D01*
Y851300D01*
X1400575Y851465D01*
X1412205Y863095D01*
X1413187Y864566D01*
X1413532Y866300D01*
Y882000D01*
X1413187Y883734D01*
X1412205Y885205D01*
X1404205Y893205D01*
X1402734Y894187D01*
X1401000Y894532D01*
X1383877D01*
X1367969Y910440D01*
X1368495Y911710D01*
X1372040D01*
Y925290D01*
X1353960D01*
Y923032D01*
X1336377D01*
X1309205Y950205D01*
X1307734Y951187D01*
X1306000Y951532D01*
X1232877D01*
X1096777Y1087632D01*
Y1091858D01*
X1097950Y1092344D01*
X1098728Y1091566D01*
X1101132Y1090178D01*
X1103812Y1089460D01*
X1106588D01*
X1109268Y1090178D01*
X1111672Y1091566D01*
X1113634Y1093528D01*
X1115022Y1095932D01*
X1115740Y1098612D01*
Y1101388D01*
X1115022Y1104068D01*
X1113634Y1106472D01*
X1111672Y1108434D01*
X1109268Y1109822D01*
X1106588Y1110540D01*
X1103812D01*
X1101132Y1109822D01*
X1098728Y1108434D01*
X1097950Y1107656D01*
X1096777Y1108142D01*
Y1111755D01*
X1096432Y1113489D01*
X1095450Y1114960D01*
X1077205Y1133205D01*
X1075734Y1134187D01*
X1074000Y1134532D01*
X912926D01*
X912772Y1135707D01*
X912113Y1137298D01*
X911064Y1138664D01*
X909698Y1139713D01*
X908107Y1140372D01*
X906400Y1140596D01*
X898400D01*
X898235Y1140575D01*
X893798Y1145011D01*
X894284Y1146184D01*
X1245151D01*
X1246049Y1145286D01*
D02*
G37*
G36*
X870292Y1138198D02*
X868566Y1136472D01*
X867178Y1134068D01*
X866460Y1131388D01*
Y1128612D01*
X867178Y1125932D01*
X868566Y1123528D01*
X870528Y1121566D01*
X872932Y1120178D01*
X875612Y1119460D01*
X878388D01*
X880551Y1120040D01*
X886795Y1113795D01*
X888266Y1112813D01*
X890000Y1112468D01*
X908487D01*
X909013Y1111198D01*
X908755Y1110940D01*
X908353Y1109969D01*
X906815Y1109391D01*
X906068Y1109822D01*
X903388Y1110540D01*
X903270D01*
Y1101270D01*
X912540D01*
Y1101388D01*
X912366Y1102038D01*
X913139Y1103045D01*
X914031D01*
X915883Y1103813D01*
X916309Y1104239D01*
X917448Y1103582D01*
X916860Y1101388D01*
Y1098612D01*
X917578Y1095932D01*
X918966Y1093528D01*
X920928Y1091566D01*
X923332Y1090178D01*
X924259Y1089930D01*
Y1086285D01*
X924604Y1084551D01*
X925586Y1083080D01*
X939829Y1068838D01*
Y1062540D01*
X922087D01*
Y1064445D01*
X922087Y1064445D01*
X921742Y1066179D01*
X920760Y1067650D01*
X920760Y1067650D01*
X900004Y1088406D01*
X900283Y1088889D01*
X900730Y1089441D01*
Y1098730D01*
X891441D01*
X890889Y1098283D01*
X890406Y1098004D01*
X888393Y1100017D01*
X887639Y1100520D01*
X887287Y1100872D01*
X887140Y1100971D01*
Y1101388D01*
X886422Y1104068D01*
X885034Y1106472D01*
X883072Y1108434D01*
X880668Y1109822D01*
X877988Y1110540D01*
X875212D01*
X872532Y1109822D01*
X870128Y1108434D01*
X868166Y1106472D01*
X866778Y1104068D01*
X866060Y1101388D01*
Y1098612D01*
X866778Y1095932D01*
X868166Y1093528D01*
X869747Y1091947D01*
X869221Y1090677D01*
X866932D01*
X861160Y1096449D01*
X861740Y1098612D01*
Y1101388D01*
X861022Y1104068D01*
X859634Y1106472D01*
X857672Y1108434D01*
X855268Y1109822D01*
X852588Y1110540D01*
X849812D01*
X849621Y1110489D01*
X835347Y1124763D01*
X836022Y1125932D01*
X836740Y1128612D01*
Y1131388D01*
X836022Y1134068D01*
X834634Y1136472D01*
X832908Y1138198D01*
X833242Y1139468D01*
X844558D01*
X844892Y1138198D01*
X843166Y1136472D01*
X841778Y1134068D01*
X841060Y1131388D01*
Y1128612D01*
X841778Y1125932D01*
X843166Y1123528D01*
X845128Y1121566D01*
X847532Y1120178D01*
X850212Y1119460D01*
X852988D01*
X855668Y1120178D01*
X858072Y1121566D01*
X860034Y1123528D01*
X861422Y1125932D01*
X862140Y1128612D01*
Y1131388D01*
X861422Y1134068D01*
X860034Y1136472D01*
X858308Y1138198D01*
X858642Y1139468D01*
X869958D01*
X870292Y1138198D01*
D02*
G37*
G36*
X1087713Y1109878D02*
Y1108652D01*
X1086540Y1108166D01*
X1086272Y1108434D01*
X1083868Y1109822D01*
X1081188Y1110540D01*
X1078412D01*
X1076249Y1109960D01*
X1066005Y1120205D01*
X1064534Y1121187D01*
X1062800Y1121532D01*
X912651D01*
X912480Y1121878D01*
X912154Y1122802D01*
X912772Y1124293D01*
X912926Y1125468D01*
X1072123D01*
X1087713Y1109878D01*
D02*
G37*
G36*
X1069840Y1103551D02*
X1069260Y1101388D01*
Y1098612D01*
X1069840Y1096449D01*
X1056923Y1083532D01*
X1046001D01*
X1045515Y1084705D01*
X1050849Y1090040D01*
X1053012Y1089460D01*
X1055788D01*
X1058468Y1090178D01*
X1060872Y1091566D01*
X1062834Y1093528D01*
X1064222Y1095932D01*
X1064940Y1098612D01*
Y1101388D01*
X1064222Y1104068D01*
X1062834Y1106472D01*
X1060872Y1108434D01*
X1058468Y1109822D01*
X1055788Y1110540D01*
X1053012D01*
X1050332Y1109822D01*
X1047928Y1108434D01*
X1045966Y1106472D01*
X1044578Y1104068D01*
X1043860Y1101388D01*
Y1098612D01*
X1044440Y1096449D01*
X1038523Y1090532D01*
X1036042D01*
X1035708Y1091802D01*
X1037434Y1093528D01*
X1038822Y1095932D01*
X1039540Y1098612D01*
Y1101388D01*
X1038822Y1104068D01*
X1037434Y1106472D01*
X1035472Y1108434D01*
X1033068Y1109822D01*
X1030388Y1110540D01*
X1027612D01*
X1024932Y1109822D01*
X1022528Y1108434D01*
X1020566Y1106472D01*
X1019178Y1104068D01*
X1018460Y1101388D01*
Y1098612D01*
X1019040Y1096449D01*
X993145Y1070555D01*
X992163Y1069084D01*
X991818Y1067350D01*
Y1062540D01*
X988182D01*
Y1078173D01*
X1000049Y1090040D01*
X1002212Y1089460D01*
X1004988D01*
X1007668Y1090178D01*
X1010072Y1091566D01*
X1012034Y1093528D01*
X1013422Y1095932D01*
X1014140Y1098612D01*
Y1101388D01*
X1013422Y1104068D01*
X1012034Y1106472D01*
X1010072Y1108434D01*
X1007668Y1109822D01*
X1004988Y1110540D01*
X1002212D01*
X999532Y1109822D01*
X997128Y1108434D01*
X995166Y1106472D01*
X993778Y1104068D01*
X993060Y1101388D01*
Y1098612D01*
X993640Y1096449D01*
X980445Y1083255D01*
X979463Y1081784D01*
X979118Y1080050D01*
Y1062540D01*
X975532D01*
Y1087624D01*
X977368Y1089460D01*
X979588D01*
X982268Y1090178D01*
X984672Y1091566D01*
X986634Y1093528D01*
X988022Y1095932D01*
X988740Y1098612D01*
Y1101388D01*
X988022Y1104068D01*
X986634Y1106472D01*
X984672Y1108434D01*
X982268Y1109822D01*
X979588Y1110540D01*
X976812D01*
X974132Y1109822D01*
X971728Y1108434D01*
X969766Y1106472D01*
X968378Y1104068D01*
X967660Y1101388D01*
Y1098612D01*
X968378Y1095932D01*
X969346Y1094256D01*
X967795Y1092706D01*
X966813Y1091236D01*
X966468Y1089501D01*
Y1062540D01*
X962782D01*
Y1091251D01*
X962782Y1091251D01*
X962437Y1092986D01*
X961624Y1094203D01*
X962622Y1095932D01*
X963340Y1098612D01*
Y1101388D01*
X962622Y1104068D01*
X961234Y1106472D01*
X959272Y1108434D01*
X956868Y1109822D01*
X954188Y1110540D01*
X951412D01*
X948732Y1109822D01*
X946328Y1108434D01*
X944366Y1106472D01*
X942978Y1104068D01*
X942260Y1101388D01*
Y1098612D01*
X942978Y1095932D01*
X944366Y1093528D01*
X946328Y1091566D01*
X948732Y1090178D01*
X951412Y1089460D01*
X953632D01*
X953718Y1089374D01*
Y1062540D01*
X948893D01*
Y1070715D01*
X948548Y1072449D01*
X947565Y1073920D01*
X933323Y1088162D01*
Y1091249D01*
X933872Y1091566D01*
X935834Y1093528D01*
X937222Y1095932D01*
X937940Y1098612D01*
Y1101388D01*
X937222Y1104068D01*
X935834Y1106472D01*
X933872Y1108434D01*
X931468Y1109822D01*
X928788Y1110540D01*
X926012D01*
X923332Y1109822D01*
X920928Y1108434D01*
X919241Y1106747D01*
X919003Y1106815D01*
X913028D01*
Y1109355D01*
X917957D01*
X917301Y1110940D01*
X917043Y1111198D01*
X917569Y1112468D01*
X1060923D01*
X1069840Y1103551D01*
D02*
G37*
G36*
X819492Y1138198D02*
X817766Y1136472D01*
X816378Y1134068D01*
X815660Y1131388D01*
Y1128612D01*
X816378Y1125932D01*
X817766Y1123528D01*
X819728Y1121566D01*
X822132Y1120178D01*
X824812Y1119460D01*
X827588D01*
X827779Y1119511D01*
X842053Y1105237D01*
X841378Y1104068D01*
X840660Y1101388D01*
Y1098612D01*
X841378Y1095932D01*
X842766Y1093528D01*
X844728Y1091566D01*
X847132Y1090178D01*
X849812Y1089460D01*
X852588D01*
X854751Y1090040D01*
X859435Y1085355D01*
X858949Y1084182D01*
X848027D01*
X835760Y1096449D01*
X836340Y1098612D01*
Y1101388D01*
X835622Y1104068D01*
X834234Y1106472D01*
X832272Y1108434D01*
X829868Y1109822D01*
X827188Y1110540D01*
X824412D01*
X824221Y1110489D01*
X809947Y1124763D01*
X810622Y1125932D01*
X811340Y1128612D01*
Y1131388D01*
X810622Y1134068D01*
X809234Y1136472D01*
X807508Y1138198D01*
X807842Y1139468D01*
X819158D01*
X819492Y1138198D01*
D02*
G37*
G36*
X924836Y855198D02*
X923432Y854822D01*
X921028Y853434D01*
X919066Y851472D01*
X917678Y849068D01*
X916960Y846388D01*
Y843612D01*
X917678Y840932D01*
X919066Y838528D01*
X921028Y836566D01*
X922968Y835446D01*
Y818500D01*
X923313Y816766D01*
X924295Y815295D01*
X934219Y805371D01*
X934727Y804145D01*
X935812Y803060D01*
X935342Y801790D01*
X924369D01*
X921955Y804205D01*
X920484Y805187D01*
X918750Y805532D01*
X911790D01*
Y810040D01*
X908232D01*
Y818000D01*
X907887Y819734D01*
X906905Y821205D01*
X886660Y841449D01*
X887240Y843612D01*
Y846388D01*
X886660Y848551D01*
X894577Y856468D01*
X899268D01*
X899436Y855198D01*
X898032Y854822D01*
X895628Y853434D01*
X893666Y851472D01*
X892278Y849068D01*
X891560Y846388D01*
Y843612D01*
X892278Y840932D01*
X893666Y838528D01*
X895628Y836566D01*
X898032Y835178D01*
X900712Y834460D01*
X903488D01*
X906168Y835178D01*
X908572Y836566D01*
X910534Y838528D01*
X911922Y840932D01*
X912640Y843612D01*
Y846388D01*
X911922Y849068D01*
X910534Y851472D01*
X908572Y853434D01*
X906168Y854822D01*
X904764Y855198D01*
X904931Y856468D01*
X924669D01*
X924836Y855198D01*
D02*
G37*
G36*
X977468Y857877D02*
X977428Y857837D01*
X976445Y856367D01*
X976245Y855361D01*
X974232Y854822D01*
X971828Y853434D01*
X969866Y851472D01*
X968478Y849068D01*
X967760Y846388D01*
Y843612D01*
X968478Y840932D01*
X969866Y838528D01*
X971828Y836566D01*
X973768Y835446D01*
Y802564D01*
X972498Y802311D01*
X972273Y802855D01*
X970855Y804273D01*
X969629Y804781D01*
X957432Y816977D01*
Y835446D01*
X959372Y836566D01*
X961334Y838528D01*
X962722Y840932D01*
X963440Y843612D01*
Y846388D01*
X962860Y848551D01*
X972505Y858195D01*
X972505Y858195D01*
X973487Y859666D01*
X973832Y861400D01*
Y867460D01*
X977468D01*
Y857877D01*
D02*
G37*
%LPC*%
G36*
X732088Y1138992D02*
X728429D01*
Y1135333D01*
X730014Y1135989D01*
X731432Y1137407D01*
X732088Y1138992D01*
D02*
G37*
G36*
X751388Y1140540D02*
X751270D01*
Y1131270D01*
X760540D01*
Y1131388D01*
X759822Y1134068D01*
X758434Y1136472D01*
X756472Y1138434D01*
X754068Y1139822D01*
X751388Y1140540D01*
D02*
G37*
G36*
X748730D02*
X748612D01*
X745932Y1139822D01*
X743528Y1138434D01*
X741566Y1136472D01*
X740178Y1134068D01*
X739460Y1131388D01*
Y1131270D01*
X748730D01*
Y1140540D01*
D02*
G37*
G36*
X760540Y1128730D02*
X751270D01*
Y1119460D01*
X751388D01*
X754068Y1120178D01*
X756472Y1121566D01*
X758434Y1123528D01*
X759822Y1125932D01*
X760540Y1128612D01*
Y1128730D01*
D02*
G37*
G36*
X748730D02*
X739460D01*
Y1128612D01*
X740178Y1125932D01*
X741566Y1123528D01*
X743528Y1121566D01*
X745932Y1120178D01*
X748612Y1119460D01*
X748730D01*
Y1128730D01*
D02*
G37*
G36*
X753600Y1110596D02*
X750870D01*
Y1101270D01*
X760196D01*
Y1104000D01*
X759972Y1105707D01*
X759313Y1107298D01*
X758264Y1108664D01*
X756898Y1109713D01*
X755307Y1110372D01*
X753600Y1110596D01*
D02*
G37*
G36*
X748330D02*
X745600D01*
X743893Y1110372D01*
X742302Y1109713D01*
X740936Y1108664D01*
X739887Y1107298D01*
X739228Y1105707D01*
X739004Y1104000D01*
Y1101270D01*
X748330D01*
Y1110596D01*
D02*
G37*
G36*
X1211555Y1110290D02*
X1208845D01*
X1206228Y1109589D01*
X1203882Y1108234D01*
X1201966Y1106318D01*
X1200611Y1103972D01*
X1199910Y1101355D01*
Y1098645D01*
X1200611Y1096028D01*
X1201966Y1093682D01*
X1203882Y1091766D01*
X1206228Y1090411D01*
X1208845Y1089710D01*
X1211555D01*
X1214172Y1090411D01*
X1216518Y1091766D01*
X1218434Y1093682D01*
X1219789Y1096028D01*
X1220490Y1098645D01*
Y1101355D01*
X1219789Y1103972D01*
X1218434Y1106318D01*
X1216518Y1108234D01*
X1214172Y1109589D01*
X1211555Y1110290D01*
D02*
G37*
G36*
X1186155D02*
X1183445D01*
X1180828Y1109589D01*
X1178482Y1108234D01*
X1176566Y1106318D01*
X1175211Y1103972D01*
X1174510Y1101355D01*
Y1098645D01*
X1175211Y1096028D01*
X1176566Y1093682D01*
X1178482Y1091766D01*
X1180828Y1090411D01*
X1183445Y1089710D01*
X1186155D01*
X1188772Y1090411D01*
X1191118Y1091766D01*
X1193034Y1093682D01*
X1194389Y1096028D01*
X1195090Y1098645D01*
Y1101355D01*
X1194389Y1103972D01*
X1193034Y1106318D01*
X1191118Y1108234D01*
X1188772Y1109589D01*
X1186155Y1110290D01*
D02*
G37*
G36*
X1169690D02*
X1149110D01*
Y1089710D01*
X1169690D01*
Y1110290D01*
D02*
G37*
G36*
X1131988Y1110540D02*
X1129212D01*
X1126532Y1109822D01*
X1124128Y1108434D01*
X1122166Y1106472D01*
X1120778Y1104068D01*
X1120060Y1101388D01*
Y1098612D01*
X1120778Y1095932D01*
X1122166Y1093528D01*
X1124128Y1091566D01*
X1126532Y1090178D01*
X1129212Y1089460D01*
X1131988D01*
X1134668Y1090178D01*
X1137072Y1091566D01*
X1139034Y1093528D01*
X1140422Y1095932D01*
X1141140Y1098612D01*
Y1101388D01*
X1140422Y1104068D01*
X1139034Y1106472D01*
X1137072Y1108434D01*
X1134668Y1109822D01*
X1131988Y1110540D01*
D02*
G37*
G36*
X748330Y1098730D02*
X739004D01*
Y1096000D01*
X739228Y1094293D01*
X739887Y1092702D01*
X740936Y1091336D01*
X742302Y1090287D01*
X743893Y1089628D01*
X745600Y1089404D01*
X748330D01*
Y1098730D01*
D02*
G37*
G36*
X1483786Y1086092D02*
Y1082433D01*
X1487445D01*
X1486789Y1084018D01*
X1485371Y1085436D01*
X1483786Y1086092D01*
D02*
G37*
G36*
X1481246D02*
X1479661Y1085436D01*
X1478244Y1084018D01*
X1477587Y1082433D01*
X1481246D01*
Y1086092D01*
D02*
G37*
G36*
X1487445Y1079893D02*
X1483786D01*
Y1076234D01*
X1485371Y1076890D01*
X1486789Y1078308D01*
X1487445Y1079893D01*
D02*
G37*
G36*
X1481246D02*
X1477587D01*
X1478244Y1078308D01*
X1479661Y1076890D01*
X1481246Y1076234D01*
Y1079893D01*
D02*
G37*
G36*
X664405Y1079321D02*
Y1075661D01*
X668064D01*
X667408Y1077246D01*
X665990Y1078664D01*
X664405Y1079321D01*
D02*
G37*
G36*
X661865D02*
X660280Y1078664D01*
X658862Y1077246D01*
X658206Y1075661D01*
X661865D01*
Y1079321D01*
D02*
G37*
G36*
X1391388Y1080540D02*
X1391270D01*
Y1071270D01*
X1400540D01*
Y1071388D01*
X1399822Y1074068D01*
X1398434Y1076472D01*
X1396472Y1078434D01*
X1394068Y1079822D01*
X1391388Y1080540D01*
D02*
G37*
G36*
X1388730D02*
X1388612D01*
X1385932Y1079822D01*
X1383528Y1078434D01*
X1381566Y1076472D01*
X1380178Y1074068D01*
X1379460Y1071388D01*
Y1071270D01*
X1388730D01*
Y1080540D01*
D02*
G37*
G36*
X668064Y1073121D02*
X664405D01*
Y1069462D01*
X665990Y1070119D01*
X667408Y1071536D01*
X668064Y1073121D01*
D02*
G37*
G36*
X661865D02*
X658206D01*
X658862Y1071536D01*
X660280Y1070119D01*
X661865Y1069462D01*
Y1073121D01*
D02*
G37*
G36*
X1197555Y1068119D02*
Y1064460D01*
X1201214D01*
X1200558Y1066045D01*
X1199140Y1067463D01*
X1197555Y1068119D01*
D02*
G37*
G36*
X1195015D02*
X1193430Y1067463D01*
X1192012Y1066045D01*
X1191356Y1064460D01*
X1195015D01*
Y1068119D01*
D02*
G37*
G36*
X1400540Y1068730D02*
X1391270D01*
Y1059460D01*
X1391388D01*
X1394068Y1060178D01*
X1396472Y1061566D01*
X1398434Y1063528D01*
X1399822Y1065932D01*
X1400540Y1068612D01*
Y1068730D01*
D02*
G37*
G36*
X1388730D02*
X1379460D01*
Y1068612D01*
X1380178Y1065932D01*
X1381566Y1063528D01*
X1383528Y1061566D01*
X1385932Y1060178D01*
X1388612Y1059460D01*
X1388730D01*
Y1068730D01*
D02*
G37*
G36*
X1201214Y1061920D02*
X1197555D01*
Y1058261D01*
X1199140Y1058917D01*
X1200558Y1060335D01*
X1201214Y1061920D01*
D02*
G37*
G36*
X1195015D02*
X1191356D01*
X1192012Y1060335D01*
X1193430Y1058917D01*
X1195015Y1058261D01*
Y1061920D01*
D02*
G37*
G36*
X853730Y1048730D02*
X847960D01*
Y1037460D01*
X853730D01*
Y1048730D01*
D02*
G37*
G36*
X1446849Y1031303D02*
Y1027644D01*
X1450509D01*
X1449852Y1029228D01*
X1448434Y1030646D01*
X1446849Y1031303D01*
D02*
G37*
G36*
X1444309D02*
X1442724Y1030646D01*
X1441307Y1029228D01*
X1440650Y1027644D01*
X1444309D01*
Y1031303D01*
D02*
G37*
G36*
X1511040Y1028790D02*
X1503270D01*
Y1023270D01*
X1511040D01*
Y1028790D01*
D02*
G37*
G36*
X1500730D02*
X1492960D01*
Y1023270D01*
X1500730D01*
Y1028790D01*
D02*
G37*
G36*
X1450509Y1025104D02*
X1446849D01*
Y1021444D01*
X1448434Y1022101D01*
X1449852Y1023519D01*
X1450509Y1025104D01*
D02*
G37*
G36*
X1444309D02*
X1440650D01*
X1441307Y1023519D01*
X1442724Y1022101D01*
X1444309Y1021444D01*
Y1025104D01*
D02*
G37*
G36*
X760441Y1024531D02*
Y1020872D01*
X764100D01*
X763443Y1022457D01*
X762026Y1023875D01*
X760441Y1024531D01*
D02*
G37*
G36*
X757901D02*
X756316Y1023875D01*
X754898Y1022457D01*
X754241Y1020872D01*
X757901D01*
Y1024531D01*
D02*
G37*
G36*
X1511040Y1020730D02*
X1503270D01*
Y1015210D01*
X1511040D01*
Y1020730D01*
D02*
G37*
G36*
X1500730D02*
X1492960D01*
Y1015210D01*
X1500730D01*
Y1020730D01*
D02*
G37*
G36*
X764100Y1018332D02*
X760441D01*
Y1014673D01*
X762026Y1015329D01*
X763443Y1016747D01*
X764100Y1018332D01*
D02*
G37*
G36*
X757901D02*
X754241D01*
X754898Y1016747D01*
X756316Y1015329D01*
X757901Y1014673D01*
Y1018332D01*
D02*
G37*
G36*
X1391388Y1029740D02*
X1388612D01*
X1385932Y1029022D01*
X1383528Y1027634D01*
X1381566Y1025672D01*
X1380178Y1023268D01*
X1379460Y1020588D01*
Y1017812D01*
X1380178Y1015132D01*
X1381566Y1012728D01*
X1383528Y1010766D01*
X1385932Y1009378D01*
X1388612Y1008660D01*
X1391388D01*
X1394068Y1009378D01*
X1396472Y1010766D01*
X1398434Y1012728D01*
X1399822Y1015132D01*
X1400540Y1017812D01*
Y1020588D01*
X1399822Y1023268D01*
X1398434Y1025672D01*
X1396472Y1027634D01*
X1394068Y1029022D01*
X1391388Y1029740D01*
D02*
G37*
G36*
X1535498Y991288D02*
Y987629D01*
X1539157D01*
X1538500Y989213D01*
X1537083Y990631D01*
X1535498Y991288D01*
D02*
G37*
G36*
X1532958D02*
X1531373Y990631D01*
X1529955Y989213D01*
X1529298Y987629D01*
X1532958D01*
Y991288D01*
D02*
G37*
G36*
X1394000Y1004396D02*
X1386000D01*
X1384293Y1004172D01*
X1382702Y1003513D01*
X1381336Y1002464D01*
X1380287Y1001098D01*
X1379628Y999507D01*
X1379404Y997800D01*
Y989800D01*
X1379628Y988093D01*
X1380287Y986502D01*
X1381336Y985136D01*
X1382702Y984087D01*
X1384293Y983428D01*
X1386000Y983204D01*
X1394000D01*
X1395707Y983428D01*
X1397298Y984087D01*
X1398664Y985136D01*
X1399713Y986502D01*
X1400372Y988093D01*
X1400596Y989800D01*
Y997800D01*
X1400372Y999507D01*
X1399713Y1001098D01*
X1398664Y1002464D01*
X1397298Y1003513D01*
X1395707Y1004172D01*
X1394000Y1004396D01*
D02*
G37*
G36*
X1539157Y985089D02*
X1535498D01*
Y981429D01*
X1537083Y982086D01*
X1538500Y983504D01*
X1539157Y985089D01*
D02*
G37*
G36*
X1532958D02*
X1529298D01*
X1529955Y983504D01*
X1531373Y982086D01*
X1532958Y981429D01*
Y985089D01*
D02*
G37*
G36*
X1178949Y984192D02*
X1175290D01*
X1175946Y982607D01*
X1177364Y981189D01*
X1178949Y980533D01*
Y984192D01*
D02*
G37*
G36*
X1082405Y981438D02*
Y977779D01*
X1086064D01*
X1085408Y979364D01*
X1083990Y980782D01*
X1082405Y981438D01*
D02*
G37*
G36*
X1079865D02*
X1078280Y980782D01*
X1076862Y979364D01*
X1076206Y977779D01*
X1079865D01*
Y981438D01*
D02*
G37*
G36*
X910380Y982540D02*
X902460D01*
Y974620D01*
X910380D01*
Y982540D01*
D02*
G37*
G36*
X957540D02*
X949620D01*
Y974620D01*
X957540D01*
Y982540D01*
D02*
G37*
G36*
X947080D02*
X931270D01*
Y973350D01*
X928730D01*
Y982540D01*
X912920D01*
Y973350D01*
X911650D01*
Y972080D01*
X902460D01*
Y964160D01*
Y956270D01*
X911650D01*
Y953730D01*
X902460D01*
Y945810D01*
Y937920D01*
X911650D01*
Y936650D01*
X912920D01*
Y927460D01*
X928730D01*
Y936650D01*
X931270D01*
Y927460D01*
X947080D01*
Y936650D01*
X948350D01*
Y937920D01*
X957540D01*
Y945810D01*
Y953730D01*
X948350D01*
Y956270D01*
X957540D01*
Y964160D01*
Y972080D01*
X948350D01*
Y973350D01*
X947080D01*
Y982540D01*
D02*
G37*
G36*
X1086064Y975239D02*
X1082405D01*
Y971580D01*
X1083990Y972236D01*
X1085408Y973654D01*
X1086064Y975239D01*
D02*
G37*
G36*
X1079865D02*
X1076206D01*
X1076862Y973654D01*
X1078280Y972236D01*
X1079865Y971580D01*
Y975239D01*
D02*
G37*
G36*
X1416790Y976390D02*
X1412270D01*
Y969870D01*
X1416790D01*
Y976390D01*
D02*
G37*
G36*
X1409730D02*
X1405210D01*
Y969870D01*
X1409730D01*
Y976390D01*
D02*
G37*
G36*
X1391388Y970940D02*
X1391270D01*
Y961670D01*
X1400540D01*
Y961788D01*
X1399822Y964468D01*
X1398434Y966872D01*
X1396472Y968834D01*
X1394068Y970222D01*
X1391388Y970940D01*
D02*
G37*
G36*
X1388730D02*
X1388612D01*
X1385932Y970222D01*
X1383528Y968834D01*
X1381566Y966872D01*
X1380178Y964468D01*
X1379460Y961788D01*
Y961670D01*
X1388730D01*
Y970940D01*
D02*
G37*
G36*
X1416790Y967330D02*
X1412270D01*
Y960810D01*
X1416790D01*
Y967330D01*
D02*
G37*
G36*
X1409730D02*
X1405210D01*
Y960810D01*
X1409730D01*
Y967330D01*
D02*
G37*
G36*
X1416790Y957390D02*
X1412270D01*
Y950870D01*
X1416790D01*
Y957390D01*
D02*
G37*
G36*
X1409730D02*
X1405210D01*
Y950870D01*
X1409730D01*
Y957390D01*
D02*
G37*
G36*
X1400540Y959130D02*
X1391270D01*
Y949860D01*
X1391388D01*
X1394068Y950578D01*
X1396472Y951966D01*
X1398434Y953928D01*
X1399822Y956332D01*
X1400540Y959012D01*
Y959130D01*
D02*
G37*
G36*
X1388730D02*
X1379460D01*
Y959012D01*
X1380178Y956332D01*
X1381566Y953928D01*
X1383528Y951966D01*
X1385932Y950578D01*
X1388612Y949860D01*
X1388730D01*
Y959130D01*
D02*
G37*
G36*
X1507003Y972040D02*
X1504998D01*
X1503145Y971273D01*
X1501727Y969855D01*
X1500960Y968002D01*
Y965997D01*
X1501468Y964771D01*
Y958790D01*
X1496960D01*
Y945210D01*
X1515040D01*
Y958790D01*
X1510532D01*
Y964771D01*
X1511040Y965997D01*
Y968002D01*
X1510273Y969855D01*
X1508855Y971273D01*
X1507003Y972040D01*
D02*
G37*
G36*
X1391388Y1055140D02*
X1388612D01*
X1385932Y1054422D01*
X1383528Y1053034D01*
X1381566Y1051072D01*
X1380178Y1048668D01*
X1379460Y1045988D01*
Y1043212D01*
X1380178Y1040532D01*
X1381566Y1038128D01*
X1383528Y1036166D01*
X1385932Y1034778D01*
X1388612Y1034060D01*
X1391388D01*
X1393014Y1034496D01*
X1441635Y985875D01*
X1432150Y976390D01*
X1422210D01*
Y964186D01*
X1422173Y964000D01*
Y937756D01*
X1400990Y916573D01*
X1400006Y916769D01*
X1399629Y917008D01*
X1398664Y918264D01*
X1397298Y919313D01*
X1395707Y919972D01*
X1394000Y920196D01*
X1386000D01*
X1384293Y919972D01*
X1382702Y919313D01*
X1381336Y918264D01*
X1380287Y916898D01*
X1379628Y915307D01*
X1379404Y913600D01*
Y905600D01*
X1379628Y903893D01*
X1380287Y902302D01*
X1381336Y900936D01*
X1382702Y899887D01*
X1384293Y899228D01*
X1386000Y899004D01*
X1394000D01*
X1395707Y899228D01*
X1397298Y899887D01*
X1398664Y900936D01*
X1400127Y900956D01*
X1422491Y878593D01*
X1424381Y877330D01*
X1426611Y876886D01*
X1429876D01*
Y855438D01*
X1426611D01*
X1424381Y854994D01*
X1422491Y853731D01*
X1399700Y830941D01*
X1231900D01*
X1219890Y842951D01*
Y855290D01*
X1199310D01*
Y842951D01*
X1063186Y706827D01*
X916000D01*
X913770Y706383D01*
X912097Y705265D01*
X910827Y705657D01*
Y770960D01*
X911790D01*
Y789040D01*
X898210D01*
Y770960D01*
X899173D01*
Y626000D01*
X899617Y623770D01*
X900880Y621880D01*
X961880Y560880D01*
X963770Y559617D01*
X966000Y559173D01*
X1047586D01*
X1089880Y516880D01*
X1091770Y515617D01*
X1094000Y515173D01*
X1191396D01*
X1192603Y513966D01*
X1194607Y512809D01*
X1196843Y512210D01*
X1199157D01*
X1201393Y512809D01*
X1203397Y513966D01*
X1205034Y515603D01*
X1206191Y517607D01*
X1206790Y519843D01*
Y522157D01*
X1206191Y524393D01*
X1205045Y526377D01*
Y544082D01*
X1213437Y552473D01*
X1214610Y551987D01*
Y537610D01*
X1221321D01*
X1237365Y521565D01*
X1238957Y520344D01*
X1240811Y519576D01*
X1242800Y519314D01*
X1250585D01*
X1251336Y518336D01*
X1252702Y517287D01*
X1254293Y516628D01*
X1256000Y516404D01*
X1264000D01*
X1265707Y516628D01*
X1267298Y517287D01*
X1268664Y518336D01*
X1269713Y519702D01*
X1270372Y521293D01*
X1270596Y523000D01*
Y531000D01*
X1270372Y532707D01*
X1269713Y534298D01*
X1268664Y535664D01*
X1267298Y536713D01*
X1265707Y537372D01*
X1264000Y537596D01*
X1256000D01*
X1254293Y537372D01*
X1252702Y536713D01*
X1251336Y535664D01*
X1250585Y534686D01*
X1245984D01*
X1232190Y548479D01*
Y555190D01*
X1217813D01*
X1217327Y556363D01*
X1229918Y568955D01*
X1365624D01*
X1367447Y569195D01*
X1369146Y569899D01*
X1370605Y571018D01*
X1464787Y665199D01*
X1465960Y664713D01*
Y641960D01*
X1492040D01*
Y668040D01*
X1469287D01*
X1468801Y669213D01*
X1469104Y669517D01*
X1470224Y670976D01*
X1470928Y672675D01*
X1471168Y674499D01*
Y704380D01*
X1472438Y704463D01*
X1472576Y703411D01*
X1473344Y701557D01*
X1474565Y699965D01*
X1509460Y665071D01*
Y664012D01*
X1510178Y661332D01*
X1511566Y658928D01*
X1513528Y656966D01*
X1515932Y655578D01*
X1518612Y654860D01*
X1521388D01*
X1524068Y655578D01*
X1526472Y656966D01*
X1528434Y658928D01*
X1529822Y661332D01*
X1530540Y664012D01*
Y666788D01*
X1529822Y669468D01*
X1528434Y671872D01*
X1526472Y673834D01*
X1524068Y675222D01*
X1521388Y675940D01*
X1520329D01*
X1487686Y708584D01*
Y714000D01*
X1487540Y715107D01*
Y723540D01*
X1472460D01*
Y716208D01*
X1472438Y716187D01*
X1471168Y716725D01*
Y724704D01*
X1472923Y726460D01*
X1478040D01*
Y745540D01*
X1476002D01*
Y757675D01*
X1475677Y759309D01*
Y772436D01*
X1518381Y815141D01*
X1519644Y817031D01*
X1520088Y819261D01*
Y897739D01*
X1520051Y897925D01*
Y907509D01*
X1512732D01*
X1499946Y920295D01*
X1500432Y921468D01*
X1503768D01*
X1505502Y921813D01*
X1506973Y922795D01*
X1509205Y925027D01*
X1510187Y926497D01*
X1510528Y928210D01*
X1515040D01*
Y941790D01*
X1496960D01*
Y930532D01*
X1491600D01*
Y930990D01*
X1491363Y932180D01*
X1490689Y933189D01*
X1489680Y933863D01*
X1488490Y934100D01*
X1483510D01*
X1482320Y933863D01*
X1482283Y933838D01*
X1481250Y933225D01*
X1480217Y933838D01*
X1480180Y933863D01*
X1478990Y934100D01*
X1474010D01*
X1472820Y933863D01*
X1472783Y933838D01*
X1471750Y933225D01*
X1470717Y933838D01*
X1470680Y933863D01*
X1469490Y934100D01*
X1468270D01*
Y926000D01*
Y917900D01*
X1469490D01*
X1469691Y917940D01*
X1470673Y917135D01*
Y915067D01*
X1469403Y914025D01*
X1468875Y914130D01*
X1464802D01*
X1453904Y925028D01*
X1454290Y925960D01*
X1454290D01*
Y939960D01*
Y948468D01*
X1461400D01*
Y948010D01*
X1461637Y946820D01*
X1462311Y945811D01*
X1463320Y945137D01*
X1464510Y944900D01*
X1469490D01*
X1470680Y945137D01*
X1470717Y945162D01*
X1471750Y945775D01*
X1472783Y945162D01*
X1472820Y945137D01*
X1474010Y944900D01*
X1478990D01*
X1480180Y945137D01*
X1480217Y945162D01*
X1481250Y945775D01*
X1482283Y945162D01*
X1482320Y945137D01*
X1483510Y944900D01*
X1488490D01*
X1489680Y945137D01*
X1490689Y945811D01*
X1491363Y946820D01*
X1491600Y948010D01*
Y957990D01*
X1491363Y959180D01*
X1490689Y960189D01*
X1490282Y960461D01*
Y975964D01*
X1492289D01*
Y994044D01*
X1490032D01*
Y995960D01*
X1492290D01*
Y997217D01*
X1492960Y998210D01*
X1511040D01*
Y1011790D01*
X1492960D01*
X1492290Y1012783D01*
Y1014040D01*
X1478710D01*
Y995960D01*
X1480968D01*
Y994044D01*
X1478709D01*
Y975964D01*
X1481218D01*
Y969640D01*
X1479948Y969180D01*
X1478855Y970273D01*
X1477003Y971040D01*
X1474998D01*
X1473145Y970273D01*
X1471727Y968855D01*
X1470960Y967002D01*
Y964997D01*
X1471696Y963222D01*
Y961712D01*
X1471306Y961386D01*
X1470426Y960913D01*
X1469490Y961100D01*
X1464510D01*
X1463320Y960863D01*
X1462311Y960189D01*
X1461637Y959180D01*
X1461400Y957990D01*
Y957532D01*
X1451250D01*
X1449516Y957187D01*
X1448045Y956205D01*
X1448045Y956204D01*
X1447881Y956040D01*
X1435710D01*
Y939960D01*
Y925960D01*
X1442974D01*
Y925017D01*
X1443319Y923282D01*
X1444301Y921812D01*
X1459720Y906394D01*
X1459720Y906393D01*
X1461190Y905411D01*
X1462925Y905066D01*
X1466997D01*
X1470818Y901246D01*
X1471117Y899743D01*
X1472380Y897852D01*
X1472876Y897521D01*
Y840517D01*
X1497956D01*
Y904007D01*
X1499226Y904533D01*
X1508434Y895325D01*
Y875224D01*
X1507378Y874518D01*
X1507316Y874544D01*
Y869615D01*
Y864685D01*
X1507378Y864711D01*
X1508434Y864006D01*
Y821675D01*
X1465730Y778970D01*
X1464467Y777080D01*
X1464023Y774850D01*
Y758000D01*
X1464160Y757311D01*
Y754240D01*
X1462987Y753754D01*
X1461620Y755120D01*
X1459730Y756383D01*
X1457500Y756827D01*
X1432912D01*
X1432216Y758097D01*
X1432656Y759158D01*
X1422797D01*
X1423237Y758097D01*
X1422541Y756827D01*
X1392000D01*
X1391814Y756790D01*
X1384210D01*
Y756577D01*
X1380151D01*
Y766516D01*
X1380151Y766516D01*
X1379806Y768250D01*
X1378824Y769721D01*
X1364279Y784265D01*
Y795936D01*
X1350699D01*
Y777856D01*
X1357870D01*
X1371087Y764639D01*
Y756100D01*
X1367510D01*
X1366320Y755863D01*
X1365311Y755189D01*
X1364637Y754180D01*
X1364400Y752990D01*
Y748010D01*
X1364637Y746820D01*
X1364662Y746783D01*
X1365275Y745750D01*
X1364662Y744717D01*
X1364637Y744680D01*
X1364400Y743490D01*
Y738510D01*
X1364637Y737320D01*
X1364662Y737283D01*
X1365275Y736250D01*
X1364662Y735217D01*
X1364637Y735180D01*
X1364400Y733990D01*
Y732770D01*
X1372500D01*
Y731500D01*
X1373770D01*
Y725900D01*
X1376695D01*
X1377221Y724630D01*
X1369373Y716782D01*
X1368040D01*
Y720290D01*
X1350282D01*
Y725900D01*
X1350490D01*
X1351680Y726137D01*
X1352689Y726811D01*
X1353363Y727820D01*
X1353600Y729010D01*
Y733990D01*
X1353363Y735180D01*
X1353338Y735217D01*
X1352725Y736250D01*
X1353338Y737283D01*
X1353363Y737320D01*
X1353600Y738510D01*
Y743490D01*
X1353363Y744680D01*
X1353338Y744717D01*
X1352725Y745750D01*
X1353338Y746783D01*
X1353363Y746820D01*
X1353600Y748010D01*
Y752990D01*
X1353363Y754180D01*
X1352689Y755189D01*
X1351680Y755863D01*
X1350490Y756100D01*
X1340510D01*
X1339320Y755863D01*
X1338311Y755189D01*
X1338039Y754782D01*
X1322040D01*
Y756790D01*
X1303960D01*
Y756790D01*
X1303040Y756790D01*
Y756790D01*
X1298532D01*
Y761210D01*
X1303040D01*
Y774790D01*
X1284960D01*
Y761210D01*
X1289468D01*
Y756790D01*
X1284960D01*
Y743210D01*
X1303040D01*
Y743210D01*
X1303960Y743210D01*
Y743210D01*
X1322040D01*
Y745718D01*
X1324794D01*
X1325320Y744448D01*
X1324727Y743855D01*
X1323960Y742002D01*
Y739997D01*
X1324727Y738145D01*
X1326145Y736727D01*
X1327997Y735960D01*
X1330002D01*
X1331229Y736468D01*
X1336970D01*
X1337649Y735198D01*
X1337637Y735180D01*
X1337400Y733990D01*
Y729010D01*
X1337637Y727820D01*
X1338311Y726811D01*
X1339320Y726137D01*
X1340510Y725900D01*
X1341218D01*
Y720290D01*
X1337960D01*
Y702470D01*
X1337960Y701710D01*
X1336901Y701200D01*
X1336413D01*
X1336228Y701237D01*
X1334641D01*
X1327292Y708585D01*
X1325402Y709848D01*
X1323829Y710161D01*
X1318790Y715201D01*
Y725040D01*
X1318790D01*
X1319031Y726210D01*
X1322040D01*
Y739790D01*
X1303960D01*
Y739790D01*
X1303040Y739790D01*
Y739790D01*
X1284960D01*
Y726210D01*
X1287968D01*
X1288210Y725040D01*
X1288210D01*
Y706960D01*
X1295310D01*
X1295796Y705787D01*
X1200836Y610827D01*
X1199040D01*
Y618040D01*
X1181200D01*
X1161827Y637414D01*
Y698000D01*
X1161383Y700230D01*
X1160120Y702120D01*
X1142040Y720201D01*
Y738040D01*
X1115960D01*
Y711960D01*
X1133799D01*
X1150173Y695586D01*
Y635000D01*
X1150617Y632770D01*
X1151880Y630880D01*
X1170759Y612000D01*
X1170273Y610827D01*
X1144000D01*
X1141770Y610383D01*
X1139880Y609120D01*
X1133799Y603040D01*
X1115960D01*
Y595827D01*
X1068414D01*
X1005120Y659120D01*
X1003230Y660383D01*
X1001000Y660827D01*
X977040D01*
Y668040D01*
X950960D01*
Y641960D01*
X977040D01*
Y649173D01*
X998586D01*
X1061880Y585880D01*
X1063770Y584617D01*
X1066000Y584173D01*
X1115960D01*
Y576960D01*
X1142040D01*
Y594799D01*
X1146414Y599173D01*
X1172960D01*
Y591960D01*
X1199040D01*
Y599173D01*
X1203250D01*
X1205480Y599617D01*
X1207370Y600880D01*
X1312000Y705509D01*
X1317164Y700345D01*
X1319055Y699082D01*
X1320628Y698769D01*
X1326438Y692959D01*
Y689620D01*
X1332042D01*
X1332227Y689583D01*
X1335398D01*
X1336433Y689377D01*
X1385250D01*
Y676672D01*
X1411963D01*
Y663140D01*
X1412407Y660910D01*
X1413670Y659019D01*
X1417508Y655181D01*
X1419398Y653918D01*
X1421628Y653475D01*
X1423858Y653918D01*
X1425749Y655181D01*
X1427012Y657072D01*
X1427455Y659302D01*
X1427012Y661532D01*
X1425749Y663422D01*
X1423617Y665553D01*
Y676672D01*
X1450330D01*
Y701752D01*
X1385250D01*
Y701031D01*
X1369029D01*
X1368040Y701710D01*
X1368040Y702301D01*
Y707718D01*
X1371250D01*
X1372984Y708063D01*
X1374455Y709045D01*
X1384337Y718928D01*
X1385250Y719672D01*
Y719672D01*
X1385251Y719672D01*
X1450330D01*
Y744752D01*
X1451426Y745173D01*
X1455086D01*
X1462960Y737299D01*
Y736423D01*
X1459141Y732604D01*
X1458021Y731145D01*
X1457317Y729446D01*
X1457077Y727622D01*
Y677417D01*
X1362706Y583045D01*
X1227000D01*
X1225176Y582805D01*
X1223477Y582101D01*
X1222018Y580982D01*
X1193018Y551982D01*
X1191899Y550523D01*
X1191195Y548823D01*
X1190955Y547000D01*
Y526827D01*
X1134804D01*
X1134463Y528097D01*
X1137007Y529565D01*
X1139435Y531993D01*
X1141151Y534967D01*
X1142040Y538283D01*
Y541717D01*
X1141151Y545033D01*
X1139435Y548007D01*
X1137007Y550435D01*
X1134033Y552151D01*
X1130717Y553040D01*
X1127283D01*
X1123967Y552151D01*
X1120993Y550435D01*
X1118565Y548007D01*
X1116849Y545033D01*
X1115960Y541717D01*
Y538283D01*
X1116849Y534967D01*
X1118565Y531993D01*
X1120993Y529565D01*
X1123537Y528097D01*
X1123196Y526827D01*
X1096414D01*
X1054120Y569120D01*
X1052230Y570383D01*
X1050000Y570827D01*
X968414D01*
X910827Y628414D01*
Y696343D01*
X912097Y696734D01*
X913770Y695617D01*
X916000Y695173D01*
X1065600D01*
X1067830Y695617D01*
X1069720Y696880D01*
X1207551Y834710D01*
X1211649D01*
X1225366Y820993D01*
X1227256Y819730D01*
X1229486Y819287D01*
X1402114D01*
X1404344Y819730D01*
X1406234Y820993D01*
X1428606Y843365D01*
X1429876Y842839D01*
Y840517D01*
X1454956D01*
Y905596D01*
X1429876D01*
Y889484D01*
X1428606Y888958D01*
X1409232Y908333D01*
X1432120Y931222D01*
X1433383Y933112D01*
X1433827Y935342D01*
Y961586D01*
X1452451Y980210D01*
X1460040D01*
Y993790D01*
X1450201D01*
X1447954Y996037D01*
X1448440Y997210D01*
X1460040D01*
Y999468D01*
X1461710D01*
Y995960D01*
X1463968D01*
Y994044D01*
X1461709D01*
Y975964D01*
X1475289D01*
Y994044D01*
X1473032D01*
Y995960D01*
X1475290D01*
Y1014040D01*
X1461710D01*
Y1008532D01*
X1460040D01*
Y1010790D01*
X1441960D01*
Y1003690D01*
X1440787Y1003204D01*
X1400540Y1043451D01*
Y1045988D01*
X1399822Y1048668D01*
X1398434Y1051072D01*
X1396472Y1053034D01*
X1394068Y1054422D01*
X1391388Y1055140D01*
D02*
G37*
G36*
X1416790Y948330D02*
X1412270D01*
Y941810D01*
X1416790D01*
Y948330D01*
D02*
G37*
G36*
X1409730D02*
X1405210D01*
Y941810D01*
X1409730D01*
Y948330D01*
D02*
G37*
G36*
X1182134Y932189D02*
Y928530D01*
X1185794D01*
X1185137Y930115D01*
X1183719Y931533D01*
X1182134Y932189D01*
D02*
G37*
G36*
X1179594D02*
X1178009Y931533D01*
X1176592Y930115D01*
X1175935Y928530D01*
X1179594D01*
Y932189D01*
D02*
G37*
G36*
X957540Y935380D02*
X949620D01*
Y927460D01*
X957540D01*
Y935380D01*
D02*
G37*
G36*
X910380Y935380D02*
X902460D01*
Y927460D01*
X910380D01*
Y935380D01*
D02*
G37*
G36*
X1080558Y930958D02*
Y927299D01*
X1084218D01*
X1083561Y928884D01*
X1082143Y930302D01*
X1080558Y930958D01*
D02*
G37*
G36*
X1078018D02*
X1076433Y930302D01*
X1075016Y928884D01*
X1074359Y927299D01*
X1078018D01*
Y930958D01*
D02*
G37*
G36*
X1465730Y934100D02*
X1464510D01*
X1463320Y933863D01*
X1462311Y933189D01*
X1461637Y932180D01*
X1461400Y930990D01*
Y927270D01*
X1465730D01*
Y934100D01*
D02*
G37*
G36*
X1178002Y1036040D02*
X1175997D01*
X1174145Y1035273D01*
X1172727Y1033855D01*
X1171960Y1032002D01*
Y1029997D01*
X1172727Y1028145D01*
X1174145Y1026727D01*
X1175371Y1026219D01*
X1234795Y966795D01*
X1236266Y965813D01*
X1238000Y965468D01*
X1238000Y965468D01*
X1306123D01*
X1338795Y932795D01*
X1340266Y931813D01*
X1342000Y931468D01*
X1342000Y931468D01*
X1353960D01*
Y928710D01*
X1372040D01*
Y930968D01*
X1380169D01*
X1380178Y930932D01*
X1381566Y928528D01*
X1383528Y926566D01*
X1385932Y925178D01*
X1388612Y924460D01*
X1391388D01*
X1394068Y925178D01*
X1396472Y926566D01*
X1398434Y928528D01*
X1399822Y930932D01*
X1400540Y933612D01*
Y936388D01*
X1399822Y939068D01*
X1398434Y941472D01*
X1396472Y943434D01*
X1394068Y944822D01*
X1391388Y945540D01*
X1388612D01*
X1385932Y944822D01*
X1383528Y943434D01*
X1381566Y941472D01*
X1380735Y940032D01*
X1372040D01*
Y942290D01*
X1353960D01*
Y940532D01*
X1343877D01*
X1311205Y973205D01*
X1309734Y974187D01*
X1308000Y974532D01*
X1239877D01*
X1181781Y1032629D01*
X1181273Y1033855D01*
X1179855Y1035273D01*
X1178002Y1036040D01*
D02*
G37*
G36*
X1185794Y925990D02*
X1182134D01*
Y922331D01*
X1183719Y922988D01*
X1185137Y924405D01*
X1185794Y925990D01*
D02*
G37*
G36*
X1179594D02*
X1175935D01*
X1176592Y924405D01*
X1178009Y922988D01*
X1179594Y922331D01*
Y925990D01*
D02*
G37*
G36*
X1084218Y924759D02*
X1080558D01*
Y921100D01*
X1082143Y921756D01*
X1083561Y923174D01*
X1084218Y924759D01*
D02*
G37*
G36*
X1078018D02*
X1074359D01*
X1075016Y923174D01*
X1076433Y921756D01*
X1078018Y921100D01*
Y924759D01*
D02*
G37*
G36*
X1465730Y924730D02*
X1461400D01*
Y921010D01*
X1461637Y919820D01*
X1462311Y918811D01*
X1463320Y918137D01*
X1464510Y917900D01*
X1465730D01*
Y924730D01*
D02*
G37*
G36*
X1537051Y907509D02*
X1532531D01*
Y900989D01*
X1537051D01*
Y907509D01*
D02*
G37*
G36*
X1529991D02*
X1525471D01*
Y900989D01*
X1529991D01*
Y907509D01*
D02*
G37*
G36*
X1042640Y906580D02*
X1031370D01*
Y900810D01*
X1042640D01*
Y906580D01*
D02*
G37*
G36*
X1028830D02*
X1017560D01*
Y900810D01*
X1028830D01*
Y906580D01*
D02*
G37*
G36*
X1537051Y898449D02*
X1532531D01*
Y891929D01*
X1537051D01*
Y898449D01*
D02*
G37*
G36*
X1529991D02*
X1525471D01*
Y891929D01*
X1529991D01*
Y898449D01*
D02*
G37*
G36*
X1360730Y896790D02*
X1352960D01*
Y891270D01*
X1360730D01*
Y896790D01*
D02*
G37*
G36*
X1371040Y888730D02*
X1363270D01*
Y883210D01*
X1371040D01*
Y888730D01*
D02*
G37*
G36*
X1360730D02*
X1352960D01*
Y883210D01*
X1360730D01*
Y888730D01*
D02*
G37*
G36*
X853730Y892540D02*
X847960D01*
Y881270D01*
X853730D01*
Y892540D01*
D02*
G37*
G36*
X843100Y1057590D02*
X780100D01*
X779109Y1057393D01*
X778269Y1056831D01*
X777707Y1055991D01*
X777510Y1055000D01*
Y875000D01*
X777707Y874009D01*
X778269Y873169D01*
X779109Y872607D01*
X780100Y872410D01*
X843100D01*
X844091Y872607D01*
X844931Y873169D01*
X845493Y874009D01*
X845690Y875000D01*
Y1055000D01*
X845493Y1055991D01*
X844931Y1056831D01*
X844091Y1057393D01*
X843100Y1057590D01*
D02*
G37*
G36*
X1504776Y874544D02*
X1503191Y873887D01*
X1501773Y872470D01*
X1501117Y870885D01*
X1504776D01*
Y874544D01*
D02*
G37*
G36*
X853730Y878730D02*
X847960D01*
Y867460D01*
X853730D01*
Y878730D01*
D02*
G37*
G36*
X1504776Y868345D02*
X1501117D01*
X1501773Y866760D01*
X1503191Y865342D01*
X1504776Y864685D01*
Y868345D01*
D02*
G37*
G36*
X1080003Y1079040D02*
X1077998D01*
X1076145Y1078273D01*
X1074727Y1076855D01*
X1073960Y1075003D01*
Y1072998D01*
X1074696Y1071222D01*
Y1070772D01*
X1075041Y1069038D01*
X1076023Y1067568D01*
X1216795Y926795D01*
X1216795Y926795D01*
X1218266Y925813D01*
X1220000Y925468D01*
X1290123D01*
X1345795Y869795D01*
X1347266Y868813D01*
X1349000Y868468D01*
X1352960D01*
Y866210D01*
X1371040D01*
Y868318D01*
X1380359D01*
X1381566Y866228D01*
X1383528Y864266D01*
X1385932Y862878D01*
X1388612Y862160D01*
X1391388D01*
X1394068Y862878D01*
X1396472Y864266D01*
X1398434Y866228D01*
X1399822Y868632D01*
X1400540Y871312D01*
Y874088D01*
X1399822Y876768D01*
X1398434Y879172D01*
X1396472Y881134D01*
X1394068Y882522D01*
X1391388Y883240D01*
X1388612D01*
X1385932Y882522D01*
X1383528Y881134D01*
X1381566Y879172D01*
X1380533Y877382D01*
X1371040D01*
Y879790D01*
X1352960D01*
Y877532D01*
X1350877D01*
X1295205Y933205D01*
X1293734Y934187D01*
X1292000Y934532D01*
X1221877D01*
X1083856Y1072553D01*
X1084040Y1072998D01*
Y1075003D01*
X1083273Y1076855D01*
X1081855Y1078273D01*
X1080003Y1079040D01*
D02*
G37*
G36*
X1081288Y855540D02*
X1081170D01*
Y846270D01*
X1090440D01*
Y846388D01*
X1089722Y849068D01*
X1088334Y851472D01*
X1086372Y853434D01*
X1083968Y854822D01*
X1081288Y855540D01*
D02*
G37*
G36*
X1078630D02*
X1078512D01*
X1075832Y854822D01*
X1073428Y853434D01*
X1071466Y851472D01*
X1070078Y849068D01*
X1069360Y846388D01*
Y846270D01*
X1078630D01*
Y855540D01*
D02*
G37*
G36*
X1185555Y855290D02*
X1182845D01*
X1180228Y854589D01*
X1177882Y853234D01*
X1175966Y851318D01*
X1174611Y848972D01*
X1173910Y846355D01*
Y843645D01*
X1174611Y841028D01*
X1175966Y838682D01*
X1177882Y836766D01*
X1180228Y835411D01*
X1182845Y834710D01*
X1185555D01*
X1188172Y835411D01*
X1190518Y836766D01*
X1192434Y838682D01*
X1193789Y841028D01*
X1194490Y843645D01*
Y846355D01*
X1193789Y848972D01*
X1192434Y851318D01*
X1190518Y853234D01*
X1188172Y854589D01*
X1185555Y855290D01*
D02*
G37*
G36*
X1160155D02*
X1157445D01*
X1154828Y854589D01*
X1152482Y853234D01*
X1150566Y851318D01*
X1149211Y848972D01*
X1148510Y846355D01*
Y843645D01*
X1149211Y841028D01*
X1150566Y838682D01*
X1152482Y836766D01*
X1154828Y835411D01*
X1157445Y834710D01*
X1160155D01*
X1162772Y835411D01*
X1165118Y836766D01*
X1167034Y838682D01*
X1168389Y841028D01*
X1169090Y843645D01*
Y846355D01*
X1168389Y848972D01*
X1167034Y851318D01*
X1165118Y853234D01*
X1162772Y854589D01*
X1160155Y855290D01*
D02*
G37*
G36*
X1132088Y855540D02*
X1129312D01*
X1126632Y854822D01*
X1124228Y853434D01*
X1122266Y851472D01*
X1120878Y849068D01*
X1120160Y846388D01*
Y843612D01*
X1120878Y840932D01*
X1122266Y838528D01*
X1124228Y836566D01*
X1126632Y835178D01*
X1129312Y834460D01*
X1132088D01*
X1134768Y835178D01*
X1137172Y836566D01*
X1139134Y838528D01*
X1140522Y840932D01*
X1141240Y843612D01*
Y846388D01*
X1140522Y849068D01*
X1139134Y851472D01*
X1137172Y853434D01*
X1134768Y854822D01*
X1132088Y855540D01*
D02*
G37*
G36*
X1042640Y1029190D02*
X1017560D01*
Y1015110D01*
Y1002410D01*
Y989710D01*
Y977010D01*
Y964310D01*
Y951610D01*
Y938910D01*
Y926210D01*
Y913510D01*
Y909120D01*
X1030100D01*
X1042640D01*
Y913423D01*
X1045168D01*
X1100768Y857823D01*
Y854554D01*
X1098828Y853434D01*
X1096866Y851472D01*
X1095478Y849068D01*
X1094760Y846388D01*
Y843612D01*
X1095478Y840932D01*
X1096866Y838528D01*
X1098828Y836566D01*
X1101232Y835178D01*
X1103912Y834460D01*
X1106688D01*
X1109368Y835178D01*
X1111772Y836566D01*
X1113734Y838528D01*
X1115122Y840932D01*
X1115840Y843612D01*
Y846388D01*
X1115122Y849068D01*
X1113734Y851472D01*
X1111772Y853434D01*
X1109832Y854554D01*
Y859700D01*
X1109832Y859700D01*
X1109487Y861434D01*
X1108505Y862905D01*
X1108505Y862905D01*
X1050250Y921160D01*
X1048779Y922142D01*
X1047045Y922487D01*
X1042640D01*
Y926210D01*
Y938910D01*
Y951610D01*
Y964310D01*
Y977010D01*
Y989710D01*
Y1002410D01*
Y1015110D01*
Y1029190D01*
D02*
G37*
G36*
X1090440Y843730D02*
X1081170D01*
Y834460D01*
X1081288D01*
X1083968Y835178D01*
X1086372Y836566D01*
X1088334Y838528D01*
X1089722Y840932D01*
X1090440Y843612D01*
Y843730D01*
D02*
G37*
G36*
X1078630D02*
X1069360D01*
Y843612D01*
X1070078Y840932D01*
X1071466Y838528D01*
X1073428Y836566D01*
X1075832Y835178D01*
X1078512Y834460D01*
X1078630D01*
Y843730D01*
D02*
G37*
G36*
X1055888Y855540D02*
X1053112D01*
X1050432Y854822D01*
X1048028Y853434D01*
X1046066Y851472D01*
X1044678Y849068D01*
X1043960Y846388D01*
Y843612D01*
X1044678Y840932D01*
X1046066Y838528D01*
X1048028Y836566D01*
X1050432Y835178D01*
X1053112Y834460D01*
X1055888D01*
X1058568Y835178D01*
X1060972Y836566D01*
X1062934Y838528D01*
X1064322Y840932D01*
X1065040Y843612D01*
Y846388D01*
X1064322Y849068D01*
X1062934Y851472D01*
X1060972Y853434D01*
X1058568Y854822D01*
X1055888Y855540D01*
D02*
G37*
G36*
X1488364Y824716D02*
Y821057D01*
X1492023D01*
X1491366Y822642D01*
X1489949Y824060D01*
X1488364Y824716D01*
D02*
G37*
G36*
X1485824D02*
X1484239Y824060D01*
X1482821Y822642D01*
X1482164Y821057D01*
X1485824D01*
Y824716D01*
D02*
G37*
G36*
X842040Y824540D02*
X833020D01*
Y816770D01*
X842040D01*
Y824540D01*
D02*
G37*
G36*
X830480D02*
X821460D01*
Y816770D01*
X830480D01*
Y824540D01*
D02*
G37*
G36*
X1492023Y818517D02*
X1488364D01*
Y814858D01*
X1489949Y815514D01*
X1491366Y816932D01*
X1492023Y818517D01*
D02*
G37*
G36*
X1485824D02*
X1482164D01*
X1482821Y816932D01*
X1484239Y815514D01*
X1485824Y814858D01*
Y818517D01*
D02*
G37*
G36*
X842040Y814230D02*
X833020D01*
Y806460D01*
X842040D01*
Y814230D01*
D02*
G37*
G36*
X830480D02*
X821460D01*
Y806460D01*
X830480D01*
Y814230D01*
D02*
G37*
G36*
X762540Y824540D02*
X741960D01*
Y806460D01*
X762540D01*
Y824540D01*
D02*
G37*
G36*
X865290Y809040D02*
X857270D01*
Y802270D01*
X865290D01*
Y809040D01*
D02*
G37*
G36*
X854730D02*
X846710D01*
Y802270D01*
X854730D01*
Y809040D01*
D02*
G37*
G36*
X1395196Y799647D02*
Y795988D01*
X1398855D01*
X1398198Y797573D01*
X1396781Y798991D01*
X1395196Y799647D01*
D02*
G37*
G36*
X1392656D02*
X1391071Y798991D01*
X1389653Y797573D01*
X1388996Y795988D01*
X1392656D01*
Y799647D01*
D02*
G37*
G36*
X1347279Y795936D02*
X1333699D01*
Y791428D01*
X1329403D01*
X1329403Y791428D01*
X1327669Y791083D01*
X1326198Y790100D01*
X1326198Y790100D01*
X1323062Y786964D01*
X1321286Y786228D01*
X1319868Y784810D01*
X1319100Y782958D01*
Y780953D01*
X1319868Y779100D01*
X1321286Y777682D01*
X1323138Y776915D01*
X1325143D01*
X1326995Y777682D01*
X1328413Y779100D01*
X1328693Y779777D01*
X1331280Y782364D01*
X1333699D01*
Y777856D01*
X1347279D01*
Y795936D01*
D02*
G37*
G36*
X1398855Y793448D02*
X1395196D01*
Y789789D01*
X1396781Y790446D01*
X1398198Y791863D01*
X1398855Y793448D01*
D02*
G37*
G36*
X1392656D02*
X1388996D01*
X1389653Y791863D01*
X1391071Y790446D01*
X1392656Y789789D01*
Y793448D01*
D02*
G37*
G36*
X1116879Y793061D02*
Y789402D01*
X1120539D01*
X1119882Y790987D01*
X1118464Y792404D01*
X1116879Y793061D01*
D02*
G37*
G36*
X1114339D02*
X1112754Y792404D01*
X1111337Y790987D01*
X1110680Y789402D01*
X1114339D01*
Y793061D01*
D02*
G37*
G36*
X1303040Y791790D02*
X1295270D01*
Y786270D01*
X1303040D01*
Y791790D01*
D02*
G37*
G36*
X1292730D02*
X1284960D01*
Y786270D01*
X1292730D01*
Y791790D01*
D02*
G37*
G36*
X1120539Y786862D02*
X1116879D01*
Y783203D01*
X1118464Y783859D01*
X1119882Y785277D01*
X1120539Y786862D01*
D02*
G37*
G36*
X1114339D02*
X1110680D01*
X1111337Y785277D01*
X1112754Y783859D01*
X1114339Y783203D01*
Y786862D01*
D02*
G37*
G36*
X1452168Y837540D02*
X1447832D01*
X1443551Y836862D01*
X1439428Y835522D01*
X1435566Y833554D01*
X1432059Y831006D01*
X1428994Y827941D01*
X1426446Y824434D01*
X1424478Y820572D01*
X1423138Y816449D01*
X1422460Y812168D01*
Y807832D01*
X1423138Y803551D01*
X1424478Y799428D01*
X1426446Y795566D01*
X1428994Y792059D01*
X1432059Y788994D01*
X1435566Y786446D01*
X1439428Y784478D01*
X1443551Y783138D01*
X1447832Y782460D01*
X1452168D01*
X1456449Y783138D01*
X1460572Y784478D01*
X1464434Y786446D01*
X1467941Y788994D01*
X1471006Y792059D01*
X1473554Y795566D01*
X1475522Y799428D01*
X1476862Y803551D01*
X1477540Y807832D01*
Y812168D01*
X1476862Y816449D01*
X1475522Y820572D01*
X1473554Y824434D01*
X1471006Y827941D01*
X1467941Y831006D01*
X1464434Y833554D01*
X1460572Y835522D01*
X1456449Y836862D01*
X1452168Y837540D01*
D02*
G37*
G36*
X702168D02*
X697832D01*
X693551Y836862D01*
X689428Y835522D01*
X685566Y833554D01*
X682059Y831006D01*
X678994Y827941D01*
X676446Y824434D01*
X674478Y820572D01*
X673138Y816449D01*
X672460Y812168D01*
Y807832D01*
X673138Y803551D01*
X674478Y799428D01*
X676446Y795566D01*
X678994Y792059D01*
X682059Y788994D01*
X685566Y786446D01*
X689428Y784478D01*
X693551Y783138D01*
X697832Y782460D01*
X702168D01*
X706449Y783138D01*
X710572Y784478D01*
X714434Y786446D01*
X717941Y788994D01*
X721006Y792059D01*
X723554Y795566D01*
X725522Y799428D01*
X726862Y803551D01*
X727540Y807832D01*
Y812168D01*
X726862Y816449D01*
X725522Y820572D01*
X723554Y824434D01*
X721006Y827941D01*
X717941Y831006D01*
X714434Y833554D01*
X710572Y835522D01*
X706449Y836862D01*
X702168Y837540D01*
D02*
G37*
G36*
X1523800Y785058D02*
Y781399D01*
X1527459D01*
X1526803Y782984D01*
X1525385Y784401D01*
X1523800Y785058D01*
D02*
G37*
G36*
X1521260D02*
X1519675Y784401D01*
X1518257Y782984D01*
X1517601Y781399D01*
X1521260D01*
Y785058D01*
D02*
G37*
G36*
X936040Y784790D02*
X928270D01*
Y779270D01*
X936040D01*
Y784790D01*
D02*
G37*
G36*
X925730D02*
X917960D01*
Y779270D01*
X925730D01*
Y784790D01*
D02*
G37*
G36*
X1303040Y783730D02*
X1295270D01*
Y778210D01*
X1303040D01*
Y783730D01*
D02*
G37*
G36*
X1292730D02*
X1284960D01*
Y778210D01*
X1292730D01*
Y783730D01*
D02*
G37*
G36*
X1527459Y778859D02*
X1523800D01*
Y775200D01*
X1525385Y775856D01*
X1526803Y777274D01*
X1527459Y778859D01*
D02*
G37*
G36*
X1521260D02*
X1517601D01*
X1518257Y777274D01*
X1519675Y775856D01*
X1521260Y775200D01*
Y778859D01*
D02*
G37*
G36*
X936040Y776730D02*
X928270D01*
Y771210D01*
X936040D01*
Y776730D01*
D02*
G37*
G36*
X925730D02*
X917960D01*
Y771210D01*
X925730D01*
Y776730D01*
D02*
G37*
G36*
X894790Y810040D02*
X881210D01*
Y791960D01*
X883468D01*
Y789040D01*
X881210D01*
Y770960D01*
X894790D01*
Y789040D01*
X892532D01*
Y791960D01*
X894790D01*
Y810040D01*
D02*
G37*
G36*
X1399790Y773790D02*
X1393270D01*
Y769270D01*
X1399790D01*
Y773790D01*
D02*
G37*
G36*
X1390730D02*
X1384210D01*
Y769270D01*
X1390730D01*
Y773790D01*
D02*
G37*
G36*
X1271918Y765998D02*
Y762339D01*
X1275578D01*
X1274921Y763924D01*
X1273503Y765342D01*
X1271918Y765998D01*
D02*
G37*
G36*
X1269378D02*
X1267794Y765342D01*
X1266376Y763924D01*
X1265719Y762339D01*
X1269378D01*
Y765998D01*
D02*
G37*
G36*
X1399790Y766730D02*
X1393270D01*
Y762210D01*
X1399790D01*
Y766730D01*
D02*
G37*
G36*
X1390730D02*
X1384210D01*
Y762210D01*
X1390730D01*
Y766730D01*
D02*
G37*
G36*
X1428997Y765357D02*
Y761698D01*
X1432656D01*
X1431999Y763283D01*
X1430582Y764701D01*
X1428997Y765357D01*
D02*
G37*
G36*
X1426457D02*
X1424872Y764701D01*
X1423454Y763283D01*
X1422797Y761698D01*
X1426457D01*
Y765357D01*
D02*
G37*
G36*
X865290Y799730D02*
X846710D01*
Y792960D01*
Y788810D01*
X845905Y787937D01*
X844171Y787592D01*
X842700Y786610D01*
X835631Y779540D01*
X821460D01*
Y761460D01*
X842040D01*
Y773131D01*
X847782Y778873D01*
X852405D01*
X852843Y778960D01*
X865290D01*
Y792960D01*
Y799730D01*
D02*
G37*
G36*
X891566Y761664D02*
Y758005D01*
X895225D01*
X894569Y759590D01*
X893151Y761008D01*
X891566Y761664D01*
D02*
G37*
G36*
X889026D02*
X887441Y761008D01*
X886023Y759590D01*
X885367Y758005D01*
X889026D01*
Y761664D01*
D02*
G37*
G36*
X1275578Y759799D02*
X1271918D01*
Y756140D01*
X1273503Y756796D01*
X1274921Y758214D01*
X1275578Y759799D01*
D02*
G37*
G36*
X1269378D02*
X1265719D01*
X1266376Y758214D01*
X1267794Y756796D01*
X1269378Y756140D01*
Y759799D01*
D02*
G37*
G36*
X756131Y757355D02*
Y753696D01*
X759791D01*
X759134Y755281D01*
X757716Y756699D01*
X756131Y757355D01*
D02*
G37*
G36*
X753591D02*
X752006Y756699D01*
X750589Y755281D01*
X749932Y753696D01*
X753591D01*
Y757355D01*
D02*
G37*
G36*
X895225Y755465D02*
X891566D01*
Y751806D01*
X893151Y752463D01*
X894569Y753880D01*
X895225Y755465D01*
D02*
G37*
G36*
X889026D02*
X885367D01*
X886023Y753880D01*
X887441Y752463D01*
X889026Y751806D01*
Y755465D01*
D02*
G37*
G36*
X759791Y751156D02*
X756131D01*
Y747497D01*
X757716Y748153D01*
X759134Y749571D01*
X759791Y751156D01*
D02*
G37*
G36*
X753591D02*
X749932D01*
X750589Y749571D01*
X752006Y748153D01*
X753591Y747497D01*
Y751156D01*
D02*
G37*
G36*
X1530790Y746040D02*
X1525270D01*
Y738270D01*
X1530790D01*
Y746040D01*
D02*
G37*
G36*
X1522730D02*
X1517210D01*
Y738270D01*
X1522730D01*
Y746040D01*
D02*
G37*
G36*
X1530790Y735730D02*
X1525270D01*
Y727960D01*
X1530790D01*
Y735730D01*
D02*
G37*
G36*
X1522730D02*
X1517210D01*
Y727960D01*
X1522730D01*
Y735730D01*
D02*
G37*
G36*
X1497840Y764690D02*
X1486460D01*
Y758635D01*
X1485838Y758012D01*
X1484715Y756332D01*
X1484321Y754350D01*
Y745540D01*
X1481960D01*
Y726460D01*
X1497040D01*
Y730820D01*
X1500210D01*
Y727960D01*
X1513790D01*
Y746040D01*
X1500210D01*
Y741180D01*
X1497040D01*
Y745540D01*
X1494680D01*
Y751310D01*
X1497840D01*
Y764690D01*
D02*
G37*
G36*
X676102Y729653D02*
Y725994D01*
X679761D01*
X679104Y727579D01*
X677687Y728996D01*
X676102Y729653D01*
D02*
G37*
G36*
X673562D02*
X671977Y728996D01*
X670559Y727579D01*
X669902Y725994D01*
X673562D01*
Y729653D01*
D02*
G37*
G36*
X1371230Y730230D02*
X1364400D01*
Y729010D01*
X1364637Y727820D01*
X1365311Y726811D01*
X1366320Y726137D01*
X1367510Y725900D01*
X1371230D01*
Y730230D01*
D02*
G37*
G36*
X679761Y723454D02*
X676102D01*
Y719794D01*
X677687Y720451D01*
X679104Y721869D01*
X679761Y723454D01*
D02*
G37*
G36*
X673562D02*
X669902D01*
X670559Y721869D01*
X671977Y720451D01*
X673562Y719794D01*
Y723454D01*
D02*
G37*
G36*
X1005717Y738040D02*
X1002283D01*
X998967Y737151D01*
X995993Y735435D01*
X993565Y733007D01*
X991849Y730033D01*
X990960Y726717D01*
Y723283D01*
X991849Y719967D01*
X993565Y716993D01*
X995993Y714565D01*
X998967Y712849D01*
X1002283Y711960D01*
X1005717D01*
X1009033Y712849D01*
X1012007Y714565D01*
X1014435Y716993D01*
X1016151Y719967D01*
X1017040Y723283D01*
Y726717D01*
X1016151Y730033D01*
X1014435Y733007D01*
X1012007Y735435D01*
X1009033Y737151D01*
X1005717Y738040D01*
D02*
G37*
G36*
X634388Y714740D02*
X634270D01*
Y705470D01*
X643540D01*
Y705588D01*
X642822Y708268D01*
X641434Y710672D01*
X639472Y712634D01*
X637068Y714022D01*
X634388Y714740D01*
D02*
G37*
G36*
X643540Y702930D02*
X634270D01*
Y693660D01*
X634388D01*
X637068Y694378D01*
X639472Y695766D01*
X641434Y697728D01*
X642822Y700132D01*
X643540Y702812D01*
Y702930D01*
D02*
G37*
G36*
X1342018Y684200D02*
X1335497D01*
Y679680D01*
X1342018D01*
Y684200D01*
D02*
G37*
G36*
X1332957D02*
X1326438D01*
Y679680D01*
X1332957D01*
Y684200D01*
D02*
G37*
G36*
X1359104Y683994D02*
X1352583D01*
Y679474D01*
X1359104D01*
Y683994D01*
D02*
G37*
G36*
X1350043D02*
X1343524D01*
Y679474D01*
X1350043D01*
Y683994D01*
D02*
G37*
G36*
X1342018Y677140D02*
X1335497D01*
Y672620D01*
X1342018D01*
Y677140D01*
D02*
G37*
G36*
X1332957D02*
X1326438D01*
Y672620D01*
X1332957D01*
Y677140D01*
D02*
G37*
G36*
X1359104Y676934D02*
X1352583D01*
Y672414D01*
X1359104D01*
Y676934D01*
D02*
G37*
G36*
X1350043D02*
X1343524D01*
Y672414D01*
X1350043D01*
Y676934D01*
D02*
G37*
G36*
X1005717Y688040D02*
X1002283D01*
X998967Y687151D01*
X995993Y685435D01*
X993565Y683007D01*
X991849Y680033D01*
X990960Y676717D01*
Y673283D01*
X991849Y669967D01*
X993565Y666993D01*
X995993Y664565D01*
X998967Y662849D01*
X1002283Y661960D01*
X1005717D01*
X1009033Y662849D01*
X1012007Y664565D01*
X1014435Y666993D01*
X1016151Y669967D01*
X1016286Y670468D01*
X1020960D01*
Y668210D01*
X1039040D01*
Y681790D01*
X1020960D01*
Y679532D01*
X1016286D01*
X1016151Y680033D01*
X1014435Y683007D01*
X1012007Y685435D01*
X1009033Y687151D01*
X1005717Y688040D01*
D02*
G37*
G36*
X1130717D02*
X1127283D01*
X1123967Y687151D01*
X1120993Y685435D01*
X1118565Y683007D01*
X1116849Y680033D01*
X1115960Y676717D01*
Y673283D01*
X1116849Y669967D01*
X1118565Y666993D01*
X1120993Y664565D01*
X1123967Y662849D01*
X1127283Y661960D01*
X1130717D01*
X1134033Y662849D01*
X1137007Y664565D01*
X1139435Y666993D01*
X1141151Y669967D01*
X1142040Y673283D01*
Y676717D01*
X1141151Y680033D01*
X1139435Y683007D01*
X1137007Y685435D01*
X1134033Y687151D01*
X1130717Y688040D01*
D02*
G37*
G36*
X1039040Y664790D02*
X1031270D01*
Y659270D01*
X1039040D01*
Y664790D01*
D02*
G37*
G36*
X1028730D02*
X1020960D01*
Y659270D01*
X1028730D01*
Y664790D01*
D02*
G37*
G36*
X1039040Y656730D02*
X1031270D01*
Y651210D01*
X1039040D01*
Y656730D01*
D02*
G37*
G36*
X1028730D02*
X1020960D01*
Y651210D01*
X1028730D01*
Y656730D01*
D02*
G37*
G36*
X1355717Y668040D02*
X1352283D01*
X1348967Y667151D01*
X1345993Y665435D01*
X1343565Y663007D01*
X1341849Y660033D01*
X1340960Y656717D01*
Y653283D01*
X1341849Y649967D01*
X1343565Y646993D01*
X1345993Y644565D01*
X1348967Y642849D01*
X1352283Y641960D01*
X1355717D01*
X1359033Y642849D01*
X1362007Y644565D01*
X1364435Y646993D01*
X1366151Y649967D01*
X1367040Y653283D01*
Y656717D01*
X1366151Y660033D01*
X1364435Y663007D01*
X1362007Y665435D01*
X1359033Y667151D01*
X1355717Y668040D01*
D02*
G37*
G36*
X1187717D02*
X1184283D01*
X1180967Y667151D01*
X1177993Y665435D01*
X1175565Y663007D01*
X1173849Y660033D01*
X1172960Y656717D01*
Y653283D01*
X1173849Y649967D01*
X1175565Y646993D01*
X1177993Y644565D01*
X1180967Y642849D01*
X1184283Y641960D01*
X1187717D01*
X1191033Y642849D01*
X1194007Y644565D01*
X1196434Y646993D01*
X1198151Y649967D01*
X1199040Y653283D01*
Y656717D01*
X1198151Y660033D01*
X1196434Y663007D01*
X1194007Y665435D01*
X1191033Y667151D01*
X1187717Y668040D01*
D02*
G37*
G36*
X840717D02*
X837283D01*
X833967Y667151D01*
X830993Y665435D01*
X828565Y663007D01*
X826849Y660033D01*
X825960Y656717D01*
Y653283D01*
X826849Y649967D01*
X828565Y646993D01*
X830993Y644565D01*
X833967Y642849D01*
X837283Y641960D01*
X840717D01*
X844033Y642849D01*
X847007Y644565D01*
X849435Y646993D01*
X851151Y649967D01*
X852040Y653283D01*
Y656717D01*
X851151Y660033D01*
X849435Y663007D01*
X847007Y665435D01*
X844033Y667151D01*
X840717Y668040D01*
D02*
G37*
G36*
X672717D02*
X669283D01*
X665967Y667151D01*
X662993Y665435D01*
X660565Y663007D01*
X658849Y660033D01*
X657960Y656717D01*
Y653283D01*
X658849Y649967D01*
X660565Y646993D01*
X662993Y644565D01*
X665967Y642849D01*
X669283Y641960D01*
X672717D01*
X676033Y642849D01*
X679007Y644565D01*
X681434Y646993D01*
X683151Y649967D01*
X684040Y653283D01*
Y656717D01*
X683151Y660033D01*
X681434Y663007D01*
X679007Y665435D01*
X676033Y667151D01*
X672717Y668040D01*
D02*
G37*
G36*
X808730Y639040D02*
X803210D01*
Y631270D01*
X808730D01*
Y639040D01*
D02*
G37*
G36*
X829790D02*
X824270D01*
Y631270D01*
X829790D01*
Y639040D01*
D02*
G37*
G36*
X1344790D02*
X1339270D01*
Y631270D01*
X1344790D01*
Y639040D01*
D02*
G37*
G36*
X1323730D02*
X1318210D01*
Y631270D01*
X1323730D01*
Y639040D01*
D02*
G37*
G36*
X1249238Y633617D02*
Y629958D01*
X1252897D01*
X1252240Y631543D01*
X1250823Y632961D01*
X1249238Y633617D01*
D02*
G37*
G36*
X1246698D02*
X1245113Y632961D01*
X1243695Y631543D01*
X1243038Y629958D01*
X1246698D01*
Y633617D01*
D02*
G37*
G36*
X1252897Y627418D02*
X1249238D01*
Y623759D01*
X1250823Y624415D01*
X1252240Y625833D01*
X1252897Y627418D01*
D02*
G37*
G36*
X1246698D02*
X1243038D01*
X1243695Y625833D01*
X1245113Y624415D01*
X1246698Y623759D01*
Y627418D01*
D02*
G37*
G36*
X1344790Y628730D02*
X1339270D01*
Y620960D01*
X1344790D01*
Y628730D01*
D02*
G37*
G36*
X1336730Y639040D02*
X1326270D01*
Y630000D01*
Y620960D01*
X1336730D01*
Y630000D01*
Y639040D01*
D02*
G37*
G36*
X1323730Y628730D02*
X1318210D01*
Y620960D01*
X1323730D01*
Y628730D01*
D02*
G37*
G36*
X1312717Y668040D02*
X1309283D01*
X1305967Y667151D01*
X1302993Y665435D01*
X1300565Y663007D01*
X1298849Y660033D01*
X1297960Y656717D01*
Y653283D01*
X1298849Y649967D01*
X1300565Y646993D01*
X1302993Y644565D01*
X1305967Y642849D01*
X1306468Y642714D01*
Y639040D01*
X1301210D01*
Y620960D01*
X1314790D01*
Y632921D01*
X1315187Y633516D01*
X1315532Y635250D01*
X1315532Y635250D01*
Y642714D01*
X1316033Y642849D01*
X1319007Y644565D01*
X1321434Y646993D01*
X1323151Y649967D01*
X1324040Y653283D01*
Y656717D01*
X1323151Y660033D01*
X1321434Y663007D01*
X1319007Y665435D01*
X1316033Y667151D01*
X1312717Y668040D01*
D02*
G37*
G36*
X829790Y628730D02*
X824270D01*
Y620960D01*
X829790D01*
Y628730D01*
D02*
G37*
G36*
X821730Y639040D02*
X811270D01*
Y630000D01*
Y620960D01*
X821730D01*
Y630000D01*
Y639040D01*
D02*
G37*
G36*
X808730Y628730D02*
X803210D01*
Y620960D01*
X808730D01*
Y628730D01*
D02*
G37*
G36*
X797717Y668040D02*
X794283D01*
X790967Y667151D01*
X787993Y665435D01*
X785565Y663007D01*
X783849Y660033D01*
X782960Y656717D01*
Y653283D01*
X783849Y649967D01*
X785565Y646993D01*
X787993Y644565D01*
X790967Y642849D01*
X791468Y642714D01*
Y639040D01*
X786210D01*
Y620960D01*
X799790D01*
Y632921D01*
X800187Y633516D01*
X800532Y635250D01*
X800532Y635250D01*
Y642714D01*
X801033Y642849D01*
X804007Y644565D01*
X806434Y646993D01*
X808151Y649967D01*
X809040Y653283D01*
Y656717D01*
X808151Y660033D01*
X806434Y663007D01*
X804007Y665435D01*
X801033Y667151D01*
X797717Y668040D01*
D02*
G37*
G36*
X634388Y613140D02*
X631612D01*
X628932Y612422D01*
X626528Y611034D01*
X624566Y609072D01*
X623178Y606668D01*
X622460Y603988D01*
Y601212D01*
X623178Y598532D01*
X624566Y596128D01*
X626528Y594166D01*
X628932Y592778D01*
X631612Y592060D01*
X634388D01*
X637068Y592778D01*
X639472Y594166D01*
X641434Y596128D01*
X642822Y598532D01*
X643540Y601212D01*
Y603988D01*
X642822Y606668D01*
X641434Y609072D01*
X639472Y611034D01*
X637068Y612422D01*
X634388Y613140D01*
D02*
G37*
G36*
X1480717Y618040D02*
X1477283D01*
X1473967Y617151D01*
X1470993Y615435D01*
X1468565Y613007D01*
X1466849Y610033D01*
X1465960Y606717D01*
Y603283D01*
X1466849Y599967D01*
X1468565Y596993D01*
X1470993Y594565D01*
X1473967Y592849D01*
X1477283Y591960D01*
X1480717D01*
X1484033Y592849D01*
X1487007Y594565D01*
X1489435Y596993D01*
X1491151Y599967D01*
X1492040Y603283D01*
Y606717D01*
X1491151Y610033D01*
X1489435Y613007D01*
X1487007Y615435D01*
X1484033Y617151D01*
X1480717Y618040D01*
D02*
G37*
G36*
X1361790Y639040D02*
X1348210D01*
Y620960D01*
X1349968D01*
Y617420D01*
X1348967Y617151D01*
X1345993Y615435D01*
X1343565Y613007D01*
X1341849Y610033D01*
X1340960Y606717D01*
Y603283D01*
X1341849Y599967D01*
X1343565Y596993D01*
X1345993Y594565D01*
X1348967Y592849D01*
X1352283Y591960D01*
X1355717D01*
X1359033Y592849D01*
X1362007Y594565D01*
X1364435Y596993D01*
X1366151Y599967D01*
X1367040Y603283D01*
Y606717D01*
X1366151Y610033D01*
X1364435Y613007D01*
X1362007Y615435D01*
X1359033Y617151D01*
X1359032Y617152D01*
Y620960D01*
X1361790D01*
Y639040D01*
D02*
G37*
G36*
X1312717Y618040D02*
X1309283D01*
X1305967Y617151D01*
X1302993Y615435D01*
X1300565Y613007D01*
X1298849Y610033D01*
X1297960Y606717D01*
Y603283D01*
X1298849Y599967D01*
X1300565Y596993D01*
X1302993Y594565D01*
X1305967Y592849D01*
X1309283Y591960D01*
X1312717D01*
X1316033Y592849D01*
X1319007Y594565D01*
X1321434Y596993D01*
X1323151Y599967D01*
X1324040Y603283D01*
Y606717D01*
X1323151Y610033D01*
X1321434Y613007D01*
X1319007Y615435D01*
X1316033Y617151D01*
X1312717Y618040D01*
D02*
G37*
G36*
X965717D02*
X962283D01*
X958967Y617151D01*
X955993Y615435D01*
X953565Y613007D01*
X951849Y610033D01*
X950960Y606717D01*
Y603283D01*
X951849Y599967D01*
X953565Y596993D01*
X955993Y594565D01*
X958967Y592849D01*
X962283Y591960D01*
X965717D01*
X969033Y592849D01*
X972007Y594565D01*
X974435Y596993D01*
X976151Y599967D01*
X977040Y603283D01*
Y606717D01*
X976151Y610033D01*
X974435Y613007D01*
X972007Y615435D01*
X969033Y617151D01*
X965717Y618040D01*
D02*
G37*
G36*
X846790Y639040D02*
X833210D01*
Y620960D01*
X834968D01*
Y617420D01*
X833967Y617151D01*
X830993Y615435D01*
X828565Y613007D01*
X826849Y610033D01*
X825960Y606717D01*
Y603283D01*
X826849Y599967D01*
X828565Y596993D01*
X830993Y594565D01*
X833967Y592849D01*
X837283Y591960D01*
X840717D01*
X844033Y592849D01*
X847007Y594565D01*
X849435Y596993D01*
X851151Y599967D01*
X852040Y603283D01*
Y606717D01*
X851151Y610033D01*
X849435Y613007D01*
X847007Y615435D01*
X844033Y617151D01*
X844032Y617152D01*
Y620960D01*
X846790D01*
Y639040D01*
D02*
G37*
G36*
X797717Y618040D02*
X794283D01*
X790967Y617151D01*
X787993Y615435D01*
X785565Y613007D01*
X783849Y610033D01*
X782960Y606717D01*
Y603283D01*
X783849Y599967D01*
X785565Y596993D01*
X787993Y594565D01*
X790967Y592849D01*
X794283Y591960D01*
X797717D01*
X801033Y592849D01*
X804007Y594565D01*
X806434Y596993D01*
X808151Y599967D01*
X809040Y603283D01*
Y606717D01*
X808151Y610033D01*
X806434Y613007D01*
X804007Y615435D01*
X801033Y617151D01*
X797717Y618040D01*
D02*
G37*
G36*
X684040D02*
X657960D01*
Y591960D01*
X684040D01*
Y618040D01*
D02*
G37*
G36*
X1005717Y603040D02*
X1002283D01*
X998967Y602151D01*
X995993Y600435D01*
X993565Y598007D01*
X991849Y595033D01*
X990960Y591717D01*
Y588283D01*
X991849Y584967D01*
X993565Y581993D01*
X995993Y579565D01*
X998967Y577849D01*
X1002283Y576960D01*
X1005717D01*
X1009033Y577849D01*
X1012007Y579565D01*
X1014435Y581993D01*
X1016151Y584967D01*
X1017040Y588283D01*
Y591717D01*
X1016151Y595033D01*
X1014435Y598007D01*
X1012007Y600435D01*
X1009033Y602151D01*
X1005717Y603040D01*
D02*
G37*
G36*
X637000Y587796D02*
X629000D01*
X627293Y587572D01*
X625702Y586913D01*
X624336Y585864D01*
X623287Y584498D01*
X622628Y582907D01*
X622404Y581200D01*
Y573200D01*
X622628Y571493D01*
X623287Y569902D01*
X624336Y568536D01*
X625702Y567487D01*
X627293Y566828D01*
X629000Y566604D01*
X637000D01*
X638707Y566828D01*
X640298Y567487D01*
X641664Y568536D01*
X642713Y569902D01*
X643372Y571493D01*
X643596Y573200D01*
Y581200D01*
X643372Y582907D01*
X642713Y584498D01*
X641664Y585864D01*
X640298Y586913D01*
X638707Y587572D01*
X637000Y587796D01*
D02*
G37*
G36*
X1524000Y650596D02*
X1516000D01*
X1514293Y650372D01*
X1512702Y649713D01*
X1511336Y648664D01*
X1510287Y647298D01*
X1509628Y645707D01*
X1509404Y644000D01*
Y636000D01*
X1509628Y634293D01*
X1510287Y632702D01*
X1511336Y631336D01*
X1512702Y630287D01*
X1513314Y630034D01*
Y606184D01*
X1467516Y560386D01*
X1457220D01*
X1456472Y561134D01*
X1454068Y562522D01*
X1451388Y563240D01*
X1448612D01*
X1445932Y562522D01*
X1443528Y561134D01*
X1442780Y560386D01*
X1417220D01*
X1416472Y561134D01*
X1414068Y562522D01*
X1411388Y563240D01*
X1408612D01*
X1405932Y562522D01*
X1403528Y561134D01*
X1402780Y560386D01*
X1377220D01*
X1376472Y561134D01*
X1374068Y562522D01*
X1371388Y563240D01*
X1368612D01*
X1365932Y562522D01*
X1363528Y561134D01*
X1361566Y559172D01*
X1360178Y556768D01*
X1359460Y554088D01*
Y551312D01*
X1360178Y548632D01*
X1361566Y546228D01*
X1363528Y544266D01*
X1365932Y542878D01*
X1368612Y542160D01*
X1371388D01*
X1374068Y542878D01*
X1376472Y544266D01*
X1377220Y545014D01*
X1402780D01*
X1403528Y544266D01*
X1405932Y542878D01*
X1408612Y542160D01*
X1411388D01*
X1414068Y542878D01*
X1416472Y544266D01*
X1417220Y545014D01*
X1442780D01*
X1443528Y544266D01*
X1445932Y542878D01*
X1448612Y542160D01*
X1451388D01*
X1454068Y542878D01*
X1456472Y544266D01*
X1457220Y545014D01*
X1470700D01*
X1472689Y545276D01*
X1474543Y546044D01*
X1476135Y547265D01*
X1526435Y597565D01*
X1526435Y597565D01*
X1527656Y599157D01*
X1528424Y601011D01*
X1528686Y603000D01*
Y631363D01*
X1529713Y632702D01*
X1530372Y634293D01*
X1530596Y636000D01*
Y644000D01*
X1530372Y645707D01*
X1529713Y647298D01*
X1528664Y648664D01*
X1527298Y649713D01*
X1525707Y650372D01*
X1524000Y650596D01*
D02*
G37*
G36*
X1298000Y562996D02*
X1290000D01*
X1288293Y562772D01*
X1286702Y562113D01*
X1285336Y561064D01*
X1284585Y560086D01*
X1267220D01*
X1266472Y560834D01*
X1264068Y562222D01*
X1261388Y562940D01*
X1258612D01*
X1255932Y562222D01*
X1253528Y560834D01*
X1251566Y558872D01*
X1250178Y556468D01*
X1249460Y553788D01*
Y551012D01*
X1250178Y548332D01*
X1251566Y545928D01*
X1253528Y543966D01*
X1255932Y542578D01*
X1258612Y541860D01*
X1261388D01*
X1264068Y542578D01*
X1266472Y543966D01*
X1267220Y544714D01*
X1284585D01*
X1285336Y543736D01*
X1286702Y542687D01*
X1288293Y542028D01*
X1290000Y541804D01*
X1298000D01*
X1299707Y542028D01*
X1301298Y542687D01*
X1302664Y543736D01*
X1303713Y545102D01*
X1304372Y546693D01*
X1304596Y548400D01*
Y556400D01*
X1304372Y558107D01*
X1303713Y559698D01*
X1302664Y561064D01*
X1301298Y562113D01*
X1299707Y562772D01*
X1298000Y562996D01*
D02*
G37*
G36*
X1482554Y543738D02*
Y540079D01*
X1486213D01*
X1485557Y541663D01*
X1484139Y543081D01*
X1482554Y543738D01*
D02*
G37*
G36*
X1480014D02*
X1478429Y543081D01*
X1477011Y541663D01*
X1476355Y540079D01*
X1480014D01*
Y543738D01*
D02*
G37*
G36*
X1173757Y555190D02*
X1171443D01*
X1169207Y554591D01*
X1167203Y553434D01*
X1165566Y551797D01*
X1164409Y549793D01*
X1163810Y547557D01*
Y545243D01*
X1164409Y543007D01*
X1165566Y541003D01*
X1167203Y539366D01*
X1169207Y538209D01*
X1171443Y537610D01*
X1173757D01*
X1175993Y538209D01*
X1177997Y539366D01*
X1179634Y541003D01*
X1180791Y543007D01*
X1181390Y545243D01*
Y547557D01*
X1180791Y549793D01*
X1179634Y551797D01*
X1177997Y553434D01*
X1175993Y554591D01*
X1173757Y555190D01*
D02*
G37*
G36*
X1486213Y537538D02*
X1482554D01*
Y533879D01*
X1484139Y534536D01*
X1485557Y535953D01*
X1486213Y537538D01*
D02*
G37*
G36*
X1480014D02*
X1476355D01*
X1477011Y535953D01*
X1478429Y534536D01*
X1480014Y533879D01*
Y537538D01*
D02*
G37*
G36*
X1005717Y553040D02*
X1002283D01*
X998967Y552151D01*
X995993Y550435D01*
X993565Y548007D01*
X991849Y545033D01*
X990960Y541717D01*
Y538283D01*
X991849Y534967D01*
X993565Y531993D01*
X995993Y529565D01*
X998967Y527849D01*
X1002283Y526960D01*
X1005717D01*
X1009033Y527849D01*
X1012007Y529565D01*
X1014435Y531993D01*
X1016151Y534967D01*
X1016286Y535468D01*
X1020960D01*
Y533210D01*
X1039040D01*
Y546790D01*
X1020960D01*
Y544532D01*
X1016286D01*
X1016151Y545033D01*
X1014435Y548007D01*
X1012007Y550435D01*
X1009033Y552151D01*
X1005717Y553040D01*
D02*
G37*
G36*
X1414000Y537896D02*
X1411270D01*
Y528570D01*
X1420596D01*
Y531300D01*
X1420372Y533007D01*
X1419713Y534598D01*
X1418664Y535964D01*
X1417298Y537013D01*
X1415707Y537672D01*
X1414000Y537896D01*
D02*
G37*
G36*
X1374000D02*
X1371270D01*
Y528570D01*
X1380596D01*
Y531300D01*
X1380372Y533007D01*
X1379713Y534598D01*
X1378664Y535964D01*
X1377298Y537013D01*
X1375707Y537672D01*
X1374000Y537896D01*
D02*
G37*
G36*
X1408730D02*
X1406000D01*
X1404293Y537672D01*
X1402702Y537013D01*
X1401336Y535964D01*
X1400287Y534598D01*
X1399628Y533007D01*
X1399404Y531300D01*
Y528570D01*
X1408730D01*
Y537896D01*
D02*
G37*
G36*
X1368730D02*
X1366000D01*
X1364293Y537672D01*
X1362702Y537013D01*
X1361336Y535964D01*
X1360287Y534598D01*
X1359628Y533007D01*
X1359404Y531300D01*
Y528570D01*
X1368730D01*
Y537896D01*
D02*
G37*
G36*
X1454000D02*
X1451270D01*
Y528570D01*
X1460596D01*
Y531300D01*
X1460372Y533007D01*
X1459713Y534598D01*
X1458664Y535964D01*
X1457298Y537013D01*
X1455707Y537672D01*
X1454000Y537896D01*
D02*
G37*
G36*
X1448730D02*
X1446000D01*
X1444293Y537672D01*
X1442702Y537013D01*
X1441336Y535964D01*
X1440287Y534598D01*
X1439628Y533007D01*
X1439404Y531300D01*
Y528570D01*
X1448730D01*
Y537896D01*
D02*
G37*
G36*
X1295388Y537540D02*
X1295270D01*
Y528270D01*
X1304540D01*
Y528388D01*
X1303822Y531068D01*
X1302434Y533472D01*
X1300472Y535434D01*
X1298068Y536822D01*
X1295388Y537540D01*
D02*
G37*
G36*
X1292730D02*
X1292612D01*
X1289932Y536822D01*
X1287528Y535434D01*
X1285566Y533472D01*
X1284178Y531068D01*
X1283460Y528388D01*
Y528270D01*
X1292730D01*
Y537540D01*
D02*
G37*
G36*
X1039040Y529790D02*
X1031270D01*
Y524270D01*
X1039040D01*
Y529790D01*
D02*
G37*
G36*
X1028730D02*
X1020960D01*
Y524270D01*
X1028730D01*
Y529790D01*
D02*
G37*
G36*
X1460596Y526030D02*
X1451270D01*
Y516704D01*
X1454000D01*
X1455707Y516928D01*
X1457298Y517587D01*
X1458664Y518636D01*
X1459713Y520002D01*
X1460372Y521593D01*
X1460596Y523300D01*
Y526030D01*
D02*
G37*
G36*
X1448730D02*
X1439404D01*
Y523300D01*
X1439628Y521593D01*
X1440287Y520002D01*
X1441336Y518636D01*
X1442702Y517587D01*
X1444293Y516928D01*
X1446000Y516704D01*
X1448730D01*
Y526030D01*
D02*
G37*
G36*
X1420596Y526030D02*
X1411270D01*
Y516704D01*
X1414000D01*
X1415707Y516928D01*
X1417298Y517587D01*
X1418664Y518636D01*
X1419713Y520002D01*
X1420372Y521593D01*
X1420596Y523300D01*
Y526030D01*
D02*
G37*
G36*
X1408730D02*
X1399404D01*
Y523300D01*
X1399628Y521593D01*
X1400287Y520002D01*
X1401336Y518636D01*
X1402702Y517587D01*
X1404293Y516928D01*
X1406000Y516704D01*
X1408730D01*
Y526030D01*
D02*
G37*
G36*
X1380596D02*
X1371270D01*
Y516704D01*
X1374000D01*
X1375707Y516928D01*
X1377298Y517587D01*
X1378664Y518636D01*
X1379713Y520002D01*
X1380372Y521593D01*
X1380596Y523300D01*
Y526030D01*
D02*
G37*
G36*
X1368730D02*
X1359404D01*
Y523300D01*
X1359628Y521593D01*
X1360287Y520002D01*
X1361336Y518636D01*
X1362702Y517587D01*
X1364293Y516928D01*
X1366000Y516704D01*
X1368730D01*
Y526030D01*
D02*
G37*
G36*
X1304540Y525730D02*
X1295270D01*
Y516460D01*
X1295388D01*
X1298068Y517178D01*
X1300472Y518566D01*
X1302434Y520528D01*
X1303822Y522932D01*
X1304540Y525612D01*
Y525730D01*
D02*
G37*
G36*
X1292730D02*
X1283460D01*
Y525612D01*
X1284178Y522932D01*
X1285566Y520528D01*
X1287528Y518566D01*
X1289932Y517178D01*
X1292612Y516460D01*
X1292730D01*
Y525730D01*
D02*
G37*
G36*
X1039040Y521730D02*
X1031270D01*
Y516210D01*
X1039040D01*
Y521730D01*
D02*
G37*
G36*
X1028730D02*
X1020960D01*
Y516210D01*
X1028730D01*
Y521730D01*
D02*
G37*
G36*
X900730Y1110540D02*
X900612D01*
X897932Y1109822D01*
X895528Y1108434D01*
X893566Y1106472D01*
X892178Y1104068D01*
X891460Y1101388D01*
Y1101270D01*
X900730D01*
Y1110540D01*
D02*
G37*
G36*
X912540Y1098730D02*
X903270D01*
Y1089460D01*
X903388D01*
X906068Y1090178D01*
X908472Y1091566D01*
X910434Y1093528D01*
X911822Y1095932D01*
X912540Y1098612D01*
Y1098730D01*
D02*
G37*
%LPD*%
D15*
X1417790Y732212D02*
D03*
Y689212D02*
D03*
D16*
X1357489Y786896D02*
D03*
X1340489D02*
D03*
X888000Y801000D02*
D03*
X905000D02*
D03*
Y780000D02*
D03*
X888000D02*
D03*
X1468500Y1005000D02*
D03*
X1485500D02*
D03*
X1468499Y985004D02*
D03*
X1485499D02*
D03*
X1507000Y737000D02*
D03*
X1524000D02*
D03*
X1295000Y716000D02*
D03*
X1312000D02*
D03*
X1308000Y630000D02*
D03*
X1325000D02*
D03*
X1355000D02*
D03*
X1338000D02*
D03*
X840000D02*
D03*
X823000D02*
D03*
X793000D02*
D03*
X810000D02*
D03*
D17*
X1334227Y678410D02*
D03*
Y695410D02*
D03*
X1392000Y751000D02*
D03*
Y768000D02*
D03*
X1351313Y695204D02*
D03*
Y678204D02*
D03*
D18*
X1485416Y873056D02*
D03*
X1442416D02*
D03*
D19*
X927000Y795000D02*
D03*
Y778000D02*
D03*
X1362000Y873000D02*
D03*
Y890000D02*
D03*
X1363000Y935500D02*
D03*
Y918500D02*
D03*
X1502000Y1022000D02*
D03*
Y1005000D02*
D03*
X1506000Y952000D02*
D03*
Y935000D02*
D03*
X1451000Y987000D02*
D03*
Y1004000D02*
D03*
X1294000Y785000D02*
D03*
Y768000D02*
D03*
Y750000D02*
D03*
Y733000D02*
D03*
X1313000Y750000D02*
D03*
Y733000D02*
D03*
X1030000Y675000D02*
D03*
Y658000D02*
D03*
X731000Y775000D02*
D03*
Y758000D02*
D03*
X690000Y867000D02*
D03*
Y850000D02*
D03*
X1030000Y523000D02*
D03*
Y540000D02*
D03*
D20*
X1467000Y953000D02*
D03*
X1476500D02*
D03*
X1486000D02*
D03*
Y926000D02*
D03*
X1476500D02*
D03*
X1467000D02*
D03*
D21*
X1445000Y934000D02*
D03*
Y948000D02*
D03*
X856000Y787000D02*
D03*
Y801000D02*
D03*
D22*
X1514261Y899719D02*
D03*
X1531261D02*
D03*
X1428000Y949600D02*
D03*
X1411000D02*
D03*
X1428000Y968600D02*
D03*
X1411000D02*
D03*
D23*
X1469850Y758000D02*
D03*
X1492150D02*
D03*
D24*
X1489500Y736000D02*
D03*
X1470500D02*
D03*
X1480000Y714000D02*
D03*
D25*
X1345500Y731500D02*
D03*
Y741000D02*
D03*
Y750500D02*
D03*
X1372500D02*
D03*
Y741000D02*
D03*
Y731500D02*
D03*
D26*
X1360000Y711000D02*
D03*
X1346000D02*
D03*
D27*
X752250Y815500D02*
D03*
X831750D02*
D03*
X752250Y770500D02*
D03*
X831750D02*
D03*
D28*
X735000Y1043500D02*
D03*
D29*
X625000Y1044500D02*
D03*
Y895000D02*
D03*
D30*
X654500Y897250D02*
D03*
D31*
X740000Y892500D02*
D03*
D32*
X756500Y906750D02*
D03*
Y917750D02*
D03*
Y928750D02*
D03*
Y939750D02*
D03*
Y950750D02*
D03*
Y961750D02*
D03*
Y972750D02*
D03*
Y983750D02*
D03*
Y994750D02*
D03*
D33*
X948350Y973350D02*
D03*
Y955000D02*
D03*
Y936650D02*
D03*
X930000Y973350D02*
D03*
Y955000D02*
D03*
Y936650D02*
D03*
X911650Y973350D02*
D03*
Y955000D02*
D03*
Y936650D02*
D03*
D34*
X855000Y1050000D02*
D03*
X867700D02*
D03*
X880400D02*
D03*
X893100D02*
D03*
X905800D02*
D03*
X918500D02*
D03*
X931200D02*
D03*
X943900D02*
D03*
X956600D02*
D03*
X969300D02*
D03*
X982000D02*
D03*
X994700D02*
D03*
X1007400D02*
D03*
X1020100D02*
D03*
Y880000D02*
D03*
X1007400D02*
D03*
X994700D02*
D03*
X982000D02*
D03*
X969300D02*
D03*
X956600D02*
D03*
X943900D02*
D03*
X931200D02*
D03*
X918500D02*
D03*
X905800D02*
D03*
X893100D02*
D03*
X880400D02*
D03*
X867700D02*
D03*
X855000D02*
D03*
D35*
X1030100Y1022150D02*
D03*
Y1009450D02*
D03*
Y996750D02*
D03*
Y984050D02*
D03*
Y971350D02*
D03*
Y958650D02*
D03*
Y945950D02*
D03*
Y933250D02*
D03*
Y920550D02*
D03*
Y907850D02*
D03*
D62*
X1401922Y686874D02*
X1417790D01*
Y663140D02*
X1421628Y659302D01*
X1417790Y663140D02*
Y689212D01*
X1426611Y882713D02*
X1435591D01*
X1440600Y877704D01*
X1392352Y909600D02*
X1402076D01*
Y907248D02*
X1426611Y882713D01*
Y849611D02*
X1435591D01*
X1390000Y909600D02*
X1392352D01*
X1440600Y854620D02*
Y877704D01*
X1435591Y849611D02*
X1440600Y854620D01*
X1402114Y825114D02*
X1426611Y849611D01*
X1476500Y901973D02*
Y926000D01*
X1402258Y909600D02*
X1428000Y935342D01*
X1392352Y907248D02*
X1402076D01*
X1390000Y909600D02*
X1392352Y907248D01*
X1428000Y935342D02*
Y964000D01*
X1486000Y926000D02*
X1514261Y897739D01*
Y819261D02*
Y897739D01*
X1469850Y774850D02*
X1514261Y819261D01*
X1229486Y825114D02*
X1402114D01*
X1209600Y845000D02*
X1229486Y825114D01*
X1376016Y750750D02*
X1391750D01*
X1393592Y695204D02*
X1401922Y686874D01*
X1351313Y695204D02*
X1393592D01*
X1336228Y695410D02*
X1336433Y695204D01*
X1334227Y695410D02*
X1336228D01*
X1336433Y695204D02*
X1351313D01*
X1203250Y605000D02*
X1312000Y713750D01*
X1321285Y704465D02*
X1323172D01*
X1332227Y695410D02*
X1334227D01*
X1312000Y713750D02*
X1321285Y704465D01*
X1323172D02*
X1332227Y695410D01*
X1470175Y733675D02*
Y738325D01*
X633000Y678800D02*
X710478D01*
X916000Y701000D02*
X1065600D01*
X1209600Y845000D01*
X1156000Y635000D02*
Y698000D01*
X1129000Y725000D02*
X1156000Y698000D01*
Y635000D02*
X1186000Y605000D01*
X905000Y780000D02*
X905000Y780000D01*
X905000Y626000D02*
Y780000D01*
Y626000D02*
X966000Y565000D01*
X1050000D01*
X1094000Y521000D01*
X1198000D01*
X1186000Y605000D02*
X1203250D01*
X741228Y961228D02*
X755978D01*
X867700Y896700D02*
X874000Y903000D01*
X867700Y880000D02*
Y896700D01*
X1469850Y758000D02*
Y774850D01*
X1391150Y1044600D02*
X1448750Y987000D01*
X1390000Y1044600D02*
X1391150D01*
X1448750Y987000D02*
X1451000D01*
X1428000Y964000D02*
X1451000Y987000D01*
X1001000Y655000D02*
X1066000Y590000D01*
X964000Y655000D02*
X1001000D01*
X1066000Y590000D02*
X1129000D01*
X1144000Y605000D01*
X1186000D01*
X1312000Y713750D02*
Y716000D01*
X1470175Y738325D02*
Y757675D01*
X1392000Y751000D02*
X1457500D01*
X1470175Y738325D01*
X1391750Y750750D02*
X1392000Y751000D01*
X1469850Y758000D02*
X1470175Y757675D01*
D63*
X1447506Y925017D02*
Y931494D01*
X1445000Y934000D02*
X1447506Y931494D01*
X1462925Y909598D02*
X1468875D01*
X1447506Y925017D02*
X1462925Y909598D01*
X1468875D02*
X1476500Y901973D01*
X1485416Y893056D01*
Y873056D02*
Y893056D01*
X1401000Y890000D02*
X1409000Y882000D01*
Y866300D02*
Y882000D01*
X1382000Y890000D02*
X1401000D01*
X1503768Y926000D02*
X1506000Y928232D01*
Y935000D01*
X1486000Y926000D02*
X1503768D01*
X1375619Y751147D02*
Y766516D01*
Y751147D02*
X1376016Y750750D01*
X1357489Y784646D02*
X1375619Y766516D01*
X1357489Y784646D02*
Y786896D01*
X1329403D02*
X1340489D01*
X1324140Y781955D02*
X1324462D01*
X1329403Y786896D01*
X1386242Y737969D02*
X1413827D01*
X1383211Y741000D02*
X1386242Y737969D01*
X1372500Y741000D02*
X1383211D01*
X1413827Y737969D02*
X1421922Y729874D01*
X904943Y1100000D02*
X913028Y1108085D01*
X902000Y1100000D02*
X904943D01*
X877000Y1130000D02*
X890000Y1117000D01*
X1062800D01*
X1079000Y1074000D02*
X1079228Y1073772D01*
Y1070772D02*
X1220000Y930000D01*
X1079228Y1070772D02*
Y1073772D01*
X1294000Y733000D02*
X1313000D01*
X1294000Y733000D02*
X1294000Y733000D01*
X930000Y964175D02*
Y973350D01*
Y955000D02*
Y964175D01*
Y945825D02*
Y955000D01*
Y936650D02*
Y945825D01*
X939175Y955000D02*
X948350D01*
X930000D02*
X939175D01*
X920825D02*
X930000D01*
X911650D02*
X920825D01*
X911650Y964175D02*
Y973350D01*
Y955000D02*
Y964175D01*
Y945825D02*
Y955000D01*
Y936650D02*
Y945825D01*
X939175Y973350D02*
X948350D01*
X930000D02*
X939175D01*
X911650D02*
X920825D01*
X948350Y964175D02*
Y973350D01*
Y945825D02*
Y955000D01*
Y936650D02*
Y945825D01*
X939175Y936650D02*
X948350D01*
X920825D02*
X930000D01*
X888000Y780000D02*
Y801000D01*
X690000Y900000D02*
X706000Y916000D01*
Y929000D01*
X690000Y867000D02*
Y900000D01*
X682000Y878000D02*
Y915000D01*
X696000Y929000D02*
X706000D01*
X682000Y915000D02*
X696000Y929000D01*
X706000D02*
X706125Y928875D01*
X756375D01*
X756500Y928750D01*
X620555Y816555D02*
X682000Y878000D01*
X620555Y665845D02*
Y816555D01*
X674000Y884000D02*
Y920000D01*
X612000Y822000D02*
X674000Y884000D01*
X612000Y649000D02*
Y822000D01*
X674000Y920000D02*
X735655Y981655D01*
X692250Y850000D02*
X697250Y845000D01*
X749700D01*
X690000Y850000D02*
X692250D01*
X1306000Y947000D02*
X1334500Y918500D01*
X1231000Y947000D02*
X1306000D01*
X1334500Y918500D02*
X1363000D01*
X902400Y1130000D02*
X1074000D01*
X1092245Y1085755D02*
Y1111755D01*
X1074000Y1130000D02*
X1092245Y1111755D01*
Y1085755D02*
X1231000Y947000D01*
X1292000Y930000D02*
X1349000Y873000D01*
X1220000Y930000D02*
X1292000D01*
X1177000Y1031000D02*
X1238000Y970000D01*
X1308000D01*
X1342000Y936000D02*
X1362000D01*
X1308000Y970000D02*
X1342000Y936000D01*
X1390000Y935000D02*
X1390250Y934750D01*
X1390000Y872700D02*
X1390350Y872350D01*
X1062800Y1117000D02*
X1079800Y1100000D01*
X702000Y1046000D02*
X728834Y1072834D01*
X747834D02*
X775000Y1100000D01*
X728834Y1072834D02*
X747834D01*
X775400Y1130000D02*
X789400Y1144000D01*
X888400D01*
X902400Y1130000D01*
X1446250Y948000D02*
X1451250Y953000D01*
X1467000D01*
X1445000Y948000D02*
X1446250D01*
X1390000Y847300D02*
X1409000Y866300D01*
X1363000Y909000D02*
X1382000Y890000D01*
X1363000Y909000D02*
Y918500D01*
X1362000Y936000D02*
X1362500Y935500D01*
X728750Y775000D02*
X731000D01*
X710478Y678800D02*
X712678Y681000D01*
X713000D01*
X905000Y801000D02*
X918750D01*
X924750Y795000D01*
X927000D01*
X903700Y802300D02*
X905000Y801000D01*
X903700Y802300D02*
Y818000D01*
X876700Y845000D02*
X903700Y818000D01*
X735000Y830300D02*
X749700Y845000D01*
X732655Y775000D02*
X735000Y777345D01*
Y830300D01*
X731000Y775000D02*
X732655D01*
X731000Y758000D02*
X733345Y760345D01*
X751000Y770500D02*
X752250D01*
X740845Y760345D02*
X751000Y770500D01*
X733345Y760345D02*
X740845D01*
X1311000Y635250D02*
Y655000D01*
X1308000Y630000D02*
Y632250D01*
X1311000Y635250D01*
X754405Y985845D02*
X756500Y983750D01*
X748328Y985845D02*
X754405D01*
X736000Y986000D02*
X748173D01*
X748328Y985845D01*
X702000Y1020000D02*
X736000Y986000D01*
X702000Y1020000D02*
Y1046000D01*
X719000Y1015000D02*
X739250Y994750D01*
X756500D01*
X735655Y981655D02*
X754405D01*
X741000Y961000D02*
X741228Y961228D01*
X755978D02*
X756500Y961750D01*
X716125Y950875D02*
X756375D01*
X716000Y951000D02*
X716125Y950875D01*
X927500Y818500D02*
X939000Y807000D01*
X1002000Y762000D02*
Y787420D01*
X1003700Y789120D01*
X1001884Y846816D02*
X1003700Y845000D01*
Y789120D02*
Y845000D01*
X1531261Y897719D02*
Y899719D01*
X1411000Y948980D02*
Y949600D01*
X1409655Y947635D02*
X1411000Y948980D01*
X1476228Y953272D02*
Y965772D01*
Y953272D02*
X1476500Y953000D01*
X1476000Y966000D02*
X1476228Y965772D01*
X1506000Y952000D02*
Y967000D01*
X1485750Y953250D02*
Y984754D01*
X1485499Y985004D02*
X1485750Y984754D01*
Y953250D02*
X1486000Y953000D01*
X1485500Y1005000D02*
X1485500Y1005000D01*
X1502000D01*
X1485500Y985005D02*
Y1005000D01*
X1485499Y985004D02*
X1485500Y985005D01*
Y1005000D02*
X1485500Y1005000D01*
X1467500Y1004000D02*
X1468500Y1005000D01*
X1468500Y1005000D01*
X1468500Y985005D02*
Y1005000D01*
X1468499Y985004D02*
X1468500Y985005D01*
X1451000Y1004000D02*
X1467500D01*
X1362150Y872850D02*
X1389850D01*
X1362000Y873000D02*
X1362150Y872850D01*
X1389850D02*
X1390000Y872700D01*
X1349000Y873000D02*
X1362000D01*
X1362500Y935500D02*
X1389500D01*
X1390000Y935000D01*
X1294000Y733000D02*
X1295000Y732000D01*
Y716000D02*
Y732000D01*
X1294000Y750000D02*
Y768000D01*
X1294000Y750000D02*
X1313000D01*
X1294000Y750000D02*
X1294000Y750000D01*
X1313250Y750250D02*
X1345250D01*
X1345500Y750500D01*
X1313000Y750000D02*
X1313250Y750250D01*
X1329000Y741000D02*
X1345500D01*
X1345750Y711250D02*
Y731250D01*
X1345500Y731500D02*
X1345750Y731250D01*
Y711250D02*
X1346000Y711000D01*
X1361250Y712250D02*
X1371250D01*
X1384501Y725501D01*
X1360000Y711000D02*
X1361250Y712250D01*
X1390983Y725501D02*
X1392554Y727072D01*
X1384501Y725501D02*
X1390983D01*
X1354500Y629500D02*
X1355000Y630000D01*
X1354500Y605500D02*
Y629500D01*
X1354000Y605000D02*
X1354500Y605500D01*
X839500D02*
Y629500D01*
X839000Y605000D02*
X839500Y605500D01*
Y629500D02*
X840000Y630000D01*
X793000Y632250D02*
X796000Y635250D01*
Y655000D01*
X793000Y630000D02*
Y632250D01*
X1004000Y675000D02*
X1030000D01*
X1004000Y540000D02*
X1004000Y540000D01*
X1030000D01*
X978300Y797700D02*
X986000Y790000D01*
X978300Y797700D02*
Y845000D01*
X952900Y815100D02*
Y845000D01*
Y815100D02*
X968000Y800000D01*
X927500Y818500D02*
Y845000D01*
X1019000Y817000D02*
X1029100Y827100D01*
Y845000D01*
X982000Y1050000D02*
X983772Y1048228D01*
Y1034228D02*
Y1048228D01*
Y1034228D02*
X984000Y1034000D01*
X880000Y1032000D02*
Y1032322D01*
X880400Y1032722D01*
Y1064368D01*
X918500Y1035500D02*
X923000Y1031000D01*
X918500Y1035500D02*
Y1050000D01*
X1031000Y1079000D02*
X1058800D01*
X1021750Y1069750D02*
X1031000Y1079000D01*
X1058800D02*
X1079800Y1100000D01*
X1021750Y1055000D02*
Y1069750D01*
X833000Y770500D02*
X845905Y783405D01*
X852405D01*
X856000Y787000D01*
X831750Y770500D02*
X833000D01*
X773000Y790000D02*
Y842900D01*
X775100Y845000D01*
X753500Y770500D02*
X773000Y790000D01*
X752250Y770500D02*
X753500D01*
X699055Y885000D02*
X718003Y866052D01*
X754048D01*
X775100Y845000D01*
X880400Y866400D02*
Y880000D01*
X872000Y858000D02*
X880400Y866400D01*
X788100Y858000D02*
X872000D01*
X775100Y845000D02*
X788100Y858000D01*
X928605Y877405D02*
X931200Y880000D01*
X928605Y864605D02*
Y877405D01*
X925000Y861000D02*
X928605Y864605D01*
X892700Y861000D02*
X925000D01*
X876700Y845000D02*
X892700Y861000D01*
X952000Y860000D02*
X956600Y864600D01*
Y880000D01*
X942500Y860000D02*
X952000D01*
X927500Y845000D02*
X942500Y860000D01*
X969300Y861400D02*
Y880000D01*
X952900Y845000D02*
X969300Y861400D01*
X982000Y856000D02*
Y880000D01*
X980632Y854632D02*
X982000Y856000D01*
X980632Y847333D02*
Y854632D01*
X978300Y845000D02*
X980632Y847333D01*
X1001884Y846816D02*
Y858715D01*
X996314Y864285D02*
X1001884Y858715D01*
X994700Y880000D02*
X996314Y878386D01*
Y864285D02*
Y878386D01*
X1009815Y864285D02*
Y877585D01*
X1007400Y880000D02*
X1009815Y877585D01*
Y864285D02*
X1029100Y845000D01*
X1032695Y917955D02*
X1047045D01*
X1105300Y845000D02*
Y859700D01*
X1047045Y917955D02*
X1105300Y859700D01*
X1030100Y920550D02*
X1032695Y917955D01*
X756375Y950875D02*
X756500Y950750D01*
X739000Y911000D02*
X743250Y906750D01*
X612000Y649000D02*
X633000Y628000D01*
X754405Y981655D02*
X756500Y983750D01*
X620555Y665845D02*
X633000Y653400D01*
X743250Y906750D02*
X756500D01*
X878932Y1097668D02*
X884082D01*
X876600Y1100000D02*
X878932Y1097668D01*
X884938Y1096812D02*
X885188D01*
X917555Y1064445D01*
X884082Y1097668D02*
X884938Y1096812D01*
X917555Y1057595D02*
Y1064445D01*
X863274Y1065000D02*
X865506Y1062768D01*
Y1052194D02*
Y1062768D01*
Y1052194D02*
X867700Y1050000D01*
X810000Y1065000D02*
X863274D01*
X884000Y1086000D02*
X904855Y1065145D01*
X871000Y1086000D02*
X884000D01*
X904855Y1057595D02*
Y1065145D01*
X851200Y1100000D02*
X865055Y1086145D01*
X878350Y1079650D02*
X893000Y1065000D01*
X846150Y1079650D02*
X878350D01*
X865055Y1086145D02*
X870855D01*
X871000Y1086000D01*
X825800Y1100000D02*
X846150Y1079650D01*
X893000Y1056750D02*
Y1065000D01*
X872768Y1072000D02*
X880400Y1064368D01*
X828400Y1072000D02*
X872768D01*
X800400Y1100000D02*
X828400Y1072000D01*
X775000Y1100000D02*
X810000Y1065000D01*
X996350Y1067350D02*
X1029000Y1100000D01*
X996350Y1055000D02*
Y1067350D01*
X917555Y1057595D02*
X920150Y1055000D01*
X1009050Y1070050D02*
X1025000Y1086000D01*
X1009050Y1055000D02*
Y1070050D01*
X1025000Y1086000D02*
X1040400D01*
X1054400Y1100000D01*
X983650Y1055000D02*
Y1080050D01*
X1003600Y1100000D01*
X971000Y1055050D02*
Y1089501D01*
X970950Y1055000D02*
X971000Y1055050D01*
Y1089501D02*
X978200Y1096701D01*
Y1100000D01*
X952800Y1096701D02*
X958250Y1091251D01*
Y1055000D02*
Y1091251D01*
X952800Y1096701D02*
Y1100000D01*
X928791Y1086285D02*
Y1098609D01*
Y1086285D02*
X944361Y1070715D01*
Y1056189D02*
Y1070715D01*
X927400Y1100000D02*
X928791Y1098609D01*
X944361Y1056189D02*
X945550Y1055000D01*
X904855Y1057595D02*
X907450Y1055000D01*
X851200Y1100000D02*
Y1102500D01*
X826200Y1127500D02*
Y1130000D01*
Y1127500D02*
X851200Y1102500D01*
X800800Y1127500D02*
Y1130000D01*
Y1127500D02*
X825800Y1102500D01*
Y1100000D02*
Y1102500D01*
D64*
X1464122Y674499D02*
Y727622D01*
X1227000Y576000D02*
X1365624D01*
X1464122Y674499D01*
Y727622D02*
X1470175Y733675D01*
X1198000Y521000D02*
Y547000D01*
X1227000Y576000D01*
D65*
X1489500Y754350D02*
X1492150Y757000D01*
X1489500Y736000D02*
Y754350D01*
X1492150Y757000D02*
Y758000D01*
X1506000Y736000D02*
X1507000Y737000D01*
X1489500Y736000D02*
X1506000D01*
D66*
X1480000Y705400D02*
X1520000Y665400D01*
X1480000Y705400D02*
Y714000D01*
X1410000Y552700D02*
X1450000D01*
X1520000Y640000D02*
X1521000Y639000D01*
Y603000D02*
Y639000D01*
X1370000Y552700D02*
X1410000D01*
X1450000D02*
X1470700D01*
X1521000Y603000D01*
X1223400Y546400D02*
X1242800Y527000D01*
X1260000D01*
Y552400D02*
X1294000D01*
D67*
X1479000Y655000D02*
D03*
X1186000Y605000D02*
D03*
X1129000Y590000D02*
D03*
Y725000D02*
D03*
X964000Y655000D02*
D03*
X671000Y605000D02*
D03*
D68*
X1354000Y655000D02*
D03*
X1479000Y605000D02*
D03*
X1354000D02*
D03*
X1311000Y655000D02*
D03*
X1186000D02*
D03*
X1311000Y605000D02*
D03*
X1004000Y540000D02*
D03*
X1129000D02*
D03*
X1004000Y590000D02*
D03*
Y675000D02*
D03*
X1129000D02*
D03*
X1004000Y725000D02*
D03*
X839000Y605000D02*
D03*
X964000D02*
D03*
X839000Y655000D02*
D03*
X796000D02*
D03*
X671000D02*
D03*
X796000Y605000D02*
D03*
D69*
X1209600Y845000D02*
D03*
X1159400Y1100000D02*
D03*
D70*
X1184200Y845000D02*
D03*
X1158800D02*
D03*
X1210200Y1100000D02*
D03*
X1184800D02*
D03*
D71*
X750000Y1130000D02*
D03*
X775400D02*
D03*
X826200D02*
D03*
X877000D02*
D03*
X851600D02*
D03*
X800800D02*
D03*
X1130600Y1100000D02*
D03*
X1105200D02*
D03*
X1029000D02*
D03*
X1003600D02*
D03*
X978200D02*
D03*
X927400D02*
D03*
X902000D02*
D03*
X851200D02*
D03*
X800400D02*
D03*
X775000D02*
D03*
X825800D02*
D03*
X876600D02*
D03*
X952800D02*
D03*
X1054400D02*
D03*
X1079800D02*
D03*
X1390000Y872700D02*
D03*
Y960400D02*
D03*
Y935000D02*
D03*
X1130700Y845000D02*
D03*
X1105300D02*
D03*
X1029100D02*
D03*
X1003700D02*
D03*
X978300D02*
D03*
X927500D02*
D03*
X902100D02*
D03*
X851300D02*
D03*
X800500D02*
D03*
X775100D02*
D03*
X825900D02*
D03*
X876700D02*
D03*
X952900D02*
D03*
X1054500D02*
D03*
X1079900D02*
D03*
X1450000Y552700D02*
D03*
X1390000Y1019200D02*
D03*
Y1044600D02*
D03*
Y1070000D02*
D03*
X633000Y704200D02*
D03*
Y678800D02*
D03*
Y628000D02*
D03*
Y602600D02*
D03*
Y653400D02*
D03*
X1294000Y527000D02*
D03*
X1260000Y552400D02*
D03*
X1410000Y552700D02*
D03*
X1370000D02*
D03*
X1520000Y665400D02*
D03*
D72*
X902400Y1130000D02*
D03*
X749600Y1100000D02*
D03*
X749700Y845000D02*
D03*
D73*
X1390000Y847300D02*
D03*
Y909600D02*
D03*
X1450000Y527300D02*
D03*
X1390000Y993800D02*
D03*
X633000Y577200D02*
D03*
X1294000Y552400D02*
D03*
X1260000Y527000D02*
D03*
X1410000Y527300D02*
D03*
X1370000D02*
D03*
X1520000Y640000D02*
D03*
D74*
X1172600Y546400D02*
D03*
X1198000Y521000D02*
D03*
D75*
X1223400Y546400D02*
D03*
D76*
X948350Y964175D02*
D03*
Y945825D02*
D03*
X939175Y973350D02*
D03*
Y955000D02*
D03*
Y936650D02*
D03*
X930000Y964175D02*
D03*
Y945825D02*
D03*
X920825Y973350D02*
D03*
Y955000D02*
D03*
Y936650D02*
D03*
X911650Y964175D02*
D03*
Y945825D02*
D03*
D77*
X1520000Y1120000D02*
D03*
Y530000D02*
D03*
X630000D02*
D03*
Y1120000D02*
D03*
X700000Y810000D02*
D03*
Y1120000D02*
D03*
X1450000D02*
D03*
Y810000D02*
D03*
D78*
X1421628Y659302D02*
D03*
X1506046Y869615D02*
D03*
X1324140Y781955D02*
D03*
X913028Y1108085D02*
D03*
X1180219Y985462D02*
D03*
X1487094Y819787D02*
D03*
X1270648Y761069D02*
D03*
X1180864Y927260D02*
D03*
X1115609Y788132D02*
D03*
X1081135Y976509D02*
D03*
X1079288Y926029D02*
D03*
X1522530Y780129D02*
D03*
X1481284Y538809D02*
D03*
X674832Y724724D02*
D03*
X663135Y1074391D02*
D03*
X727159Y1140262D02*
D03*
X759171Y1019602D02*
D03*
X890296Y756735D02*
D03*
X754861Y752426D02*
D03*
X1247968Y628688D02*
D03*
X1482516Y1081163D02*
D03*
X1534228Y986359D02*
D03*
X1445579Y1026374D02*
D03*
X1393926Y794718D02*
D03*
X1427727Y760428D02*
D03*
X1196285Y1063190D02*
D03*
X1079000Y1074000D02*
D03*
X706000Y929000D02*
D03*
X713000Y681000D02*
D03*
X916000Y701000D02*
D03*
X719000Y1015000D02*
D03*
X741000Y961000D02*
D03*
X716000Y951000D02*
D03*
X874000Y903000D02*
D03*
X939000Y807000D02*
D03*
X1002000Y762000D02*
D03*
X1476000Y966000D02*
D03*
X1506000Y967000D02*
D03*
X1329000Y741000D02*
D03*
X986000Y790000D02*
D03*
X968000Y800000D02*
D03*
X1019000Y817000D02*
D03*
X984000Y1034000D02*
D03*
X1177000Y1031000D02*
D03*
X880000Y1032000D02*
D03*
X923000Y1031000D02*
D03*
X699055Y885000D02*
D03*
X739000Y911000D02*
D03*
M02*
