M48
;Layer_Color=9474304
;FILE_FORMAT=4:2
METRIC,LZ
;TYPE=PLATED
T01F00S00C0.20
T02F00S00C0.30
T03F00S00C0.75
T04F00S00C1.02
T05F00S00C1.10
T06F00S00C1.40
T07F00S00C3.00
%
T01
X009208Y009367
X009392
Y00955
X0093Y009458
X009483
Y009642
X009392Y009733
X0093Y009642
X009208Y009733
X009117Y009642
X009208Y00955
X009117Y009458
T02
X01248Y006287
X012706Y007611
X013241Y00782
X01329Y00741
X014277Y007604
X014216Y006593
X014813Y005388
X015225Y007801
X011156Y007881
X00986Y0079
X01002Y00762
X008903Y007567
X00916Y00701
X007549Y007524
X006748Y007247
X00713Y00681
X006991Y00885
X00706Y00929
X00716Y00951
X00741Y00961
X00739Y00911
X00719Y01015
X007592Y010196
X006631Y010744
X007272Y011403
X00913Y011081
X00923Y01031
X0088Y01032
X00984Y01034
X01079Y01074
X010811Y009765
X010793Y00926
X011809Y009273
X011802Y009855
X01177Y01031
X01019Y00817
X00968Y008
X00939Y00807
X00874Y00903
X011963Y010632
X014456Y010264
X01476Y00966
X01506Y00967
X015342Y009864
X01506Y008696
X014871Y008198
X013939Y007947
X014825Y010812
T03
X01198Y00521
X012234Y005464
X011726
T04
X011588Y00845
X011842
X011848Y011
X011594
X012102
X012096Y00845
T05
X0126Y00527
Y005524
X01294
Y00527
X0137Y005273
Y005527
X0141
Y005273
X0145
Y005527
X0152Y0064
Y006654
X00633Y006534
Y006788
Y007042
Y00628
Y006026
Y005772
X007497Y00845
X007751
X00775Y011
X007496
X0075Y0113
X007754
X008008
X008262
X008516
X00877
X009024
X00902Y011
X009274
X009528
X009782
X010036
X01029
X010544
X010798
X011052
X011306
X008766
X008512
X008258
X008004
X008005Y00845
X008259
X008513
X008767
X009021
X009275
X009529
X009783
X010037
X010291
X010545
X010799
X011053
X011307
X0139Y008473
Y008727
Y009096
Y00935
Y009604
Y009938
Y010192
Y010446
Y0107
T06
X01311Y00605
X01354
Y00655
X01311
X01479
Y00605
X01186
Y00655
X01129Y00675
Y00725
X01004
Y00675
X00964Y00655
Y00605
X01004Y0059
Y0054
X01129
Y0059
X00839Y00605
X00796
Y00655
X00839
X00671
Y00605
T07
X0152Y0053
X0063
X007Y0081
Y0112
X0063
X0145
X0152
X0145Y0081
M30
